<svg xmlns="http://www.w3.org/2000/svg" width="92.758" height="93.092" viewBox="0 0 92.758 93.092">
  <g id="stock" transform="translate(-0.917)">
    <path id="Path_16601" data-name="Path 16601" d="M85.01,40.774H68.346V35.3a1.363,1.363,0,0,0-2.726,0v5.47H59.974a1.363,1.363,0,1,0,0,2.726H65.62v5.771H64.6a2.593,2.593,0,0,0-2.59,2.59V67.906A2.593,2.593,0,0,0,64.6,70.5H65.62V81.309a1.363,1.363,0,0,0,2.726,0V70.5h1.023a2.593,2.593,0,0,0,2.59-2.59V51.861a2.593,2.593,0,0,0-2.59-2.59H68.346V43.5H85.01a5.946,5.946,0,0,1,5.939,5.939V96.086H3.643V49.439A5.946,5.946,0,0,1,9.582,43.5H33.473v2.66H32.451a2.593,2.593,0,0,0-2.59,2.59V64.795a2.593,2.593,0,0,0,2.59,2.59h1.023V79.428a1.363,1.363,0,1,0,2.726,0V67.385h1.023a2.593,2.593,0,0,0,2.59-2.59V48.75a2.593,2.593,0,0,0-2.59-2.59H36.2V43.5h5.646a1.363,1.363,0,1,0,0-2.726H36.2V40.1a1.363,1.363,0,0,0-2.726,0v.673H9.582A8.675,8.675,0,0,0,.917,49.439v48.01a8.675,8.675,0,0,0,8.665,8.665H30.329v6.93l-4.393,5.1H24.193a1.363,1.363,0,1,0,0,2.726H70.274a1.363,1.363,0,1,0,0-2.726H68.656l-4.393-5.1v-6.93H85.01a8.675,8.675,0,0,0,8.665-8.665V49.439a8.675,8.675,0,0,0-8.665-8.665Zm-15.777,27h-4.5V52h4.5V67.771ZM37.087,64.659h-4.5V48.886h4.5ZM85.01,103.388H57.427a1.363,1.363,0,0,0,0,2.726h4.111v6.073H58.143a1.363,1.363,0,1,0,0,2.726h4.133l2.781,3.226H29.535l2.781-3.226H36.45a1.363,1.363,0,0,0,0-2.726H33.055v-6.073H51.618a1.363,1.363,0,1,0,0-2.726H9.582A5.949,5.949,0,0,1,3.8,98.812H90.79a5.948,5.948,0,0,1-5.78,4.576Z" transform="translate(0 -27.773)" fill="#15c8ff"/>
    <path id="Path_16602" data-name="Path 16602" d="M73.1,140.049a1.363,1.363,0,0,0-1.363,1.363v3.29a2.593,2.593,0,0,0,2.59,2.59h1.023v7.258a1.363,1.363,0,0,0,2.726,0v-7.258H79.1a2.593,2.593,0,0,0,2.59-2.59V128.657a2.593,2.593,0,0,0-2.59-2.59H78.078v-2.18a1.363,1.363,0,1,0-2.726,0v2.18H74.329a2.593,2.593,0,0,0-2.59,2.59V135.6a1.363,1.363,0,0,0,2.726,0v-6.811h4.5v15.774h-4.5v-3.155A1.363,1.363,0,0,0,73.1,140.049Z" transform="translate(-57.952 -100.259)" fill="#15c8ff"/>
    <path id="Path_16603" data-name="Path 16603" d="M251.229,36.915h1.023v7.258a1.363,1.363,0,1,0,2.726,0V36.915H256a2.593,2.593,0,0,0,2.59-2.59V23.634a1.363,1.363,0,1,0-2.726,0V34.189h-4.5V9.511h4.5v8.315a1.363,1.363,0,0,0,2.726,0V9.375A2.593,2.593,0,0,0,256,6.785h-1.023V1.363a1.363,1.363,0,1,0-2.726,0V6.785h-1.023a2.593,2.593,0,0,0-2.59,2.59V34.325a2.593,2.593,0,0,0,2.59,2.59Z" transform="translate(-202.706)" fill="#15c8ff"/>
    <path id="Path_16604" data-name="Path 16604" d="M407.019,168.775a1.362,1.362,0,0,0,1.846.553l6.278-3.385-.452,1.185a1.363,1.363,0,1,0,2.547.97l1.534-4.028a1.363,1.363,0,0,0-.788-1.759l-4.275-1.629a1.363,1.363,0,0,0-.97,2.547l.991.378-6.159,3.321A1.363,1.363,0,0,0,407.019,168.775Z" transform="translate(-332.171 -131.41)" fill="#15c8ff"/>
    <path id="Path_16605" data-name="Path 16605" d="M44.767,261.484a1.362,1.362,0,0,0,1.789.717l17.587-7.527,1.6,4.187a1.363,1.363,0,0,0,1.92.714L96.715,243.91a1.363,1.363,0,1,0-1.294-2.4L67.734,256.439l-1.55-4.062a1.363,1.363,0,0,0-1.81-.767l-18.89,8.085a1.363,1.363,0,0,0-.717,1.789Z" transform="translate(-35.791 -197.489)" fill="#15c8ff"/>
  </g>
</svg>
