<svg xmlns="http://www.w3.org/2000/svg" width="98.408" height="98.408" viewBox="0 0 98.408 98.408">
  <path id="director" d="M50.742,43.093v7.556L53.3,48.087a1.537,1.537,0,1,1,2.174,2.174l-5.186,5.186a1.538,1.538,0,0,1-2.175,0l-5.186-5.186a1.538,1.538,0,0,1,2.174-2.175l2.561,2.561V43.093a1.538,1.538,0,0,1,3.075,0ZM76.735,12.788h-12.4a1.538,1.538,0,1,0,0,3.075h12.4a6.181,6.181,0,0,1,6.174,6.174V50.648l-2.561-2.561a1.538,1.538,0,1,0-2.175,2.174l5.186,5.186a1.537,1.537,0,0,0,2.175,0l5.186-5.186a1.538,1.538,0,1,0-2.175-2.174l-2.561,2.561V22.037a9.26,9.26,0,0,0-9.249-9.249ZM22.665,67.972a8.7,8.7,0,1,1-8.7-8.7A8.713,8.713,0,0,1,22.665,67.972Zm-3.075,0A5.628,5.628,0,1,0,13.962,73.6,5.634,5.634,0,0,0,19.589,67.972ZM0,96.872V83.048a6.278,6.278,0,0,1,6.271-6.271h1.89a1.538,1.538,0,0,1,.785.215,9.853,9.853,0,0,0,10.032,0,1.538,1.538,0,0,1,.785-.215h1.89a6.278,6.278,0,0,1,6.271,6.271V96.872a1.538,1.538,0,0,1-1.538,1.538H1.538A1.538,1.538,0,0,1,0,96.872Zm3.075-1.538H24.848V83.048a3.2,3.2,0,0,0-3.2-3.2H20.17a12.932,12.932,0,0,1-12.417,0H6.271a3.2,3.2,0,0,0-3.2,3.2V95.334ZM93.15,67.972a8.7,8.7,0,1,1-8.7-8.7A8.713,8.713,0,0,1,93.15,67.972Zm-3.075,0A5.628,5.628,0,1,0,84.447,73.6,5.634,5.634,0,0,0,90.074,67.972Zm8.334,15.076V96.872a1.538,1.538,0,0,1-1.538,1.538H72.022a1.538,1.538,0,0,1-1.538-1.538V83.048a6.278,6.278,0,0,1,6.271-6.271h1.89a1.538,1.538,0,0,1,.785.215,9.853,9.853,0,0,0,10.032,0,1.538,1.538,0,0,1,.785-.215h1.89A6.278,6.278,0,0,1,98.408,83.048Zm-3.075,0a3.2,3.2,0,0,0-3.2-3.2H90.655a12.932,12.932,0,0,1-12.417,0H76.756a3.2,3.2,0,0,0-3.2,3.2V95.334H95.333V83.048ZM40.5,67.972a8.7,8.7,0,1,1,8.7,8.7A8.713,8.713,0,0,1,40.5,67.972Zm3.075,0A5.628,5.628,0,1,0,49.2,62.345,5.634,5.634,0,0,0,43.577,67.972Zm-2.063,8.805H43.4a1.538,1.538,0,0,1,.785.215,9.852,9.852,0,0,0,10.032,0,1.538,1.538,0,0,1,.785-.215H56.9a6.278,6.278,0,0,1,6.271,6.271V96.872a1.538,1.538,0,0,1-1.538,1.538H36.78a1.538,1.538,0,0,1-1.538-1.538V83.048A6.278,6.278,0,0,1,41.513,76.777Zm-3.2,18.556H60.091V83.048a3.2,3.2,0,0,0-3.2-3.2H55.413a12.931,12.931,0,0,1-12.417,0H41.513a3.2,3.2,0,0,0-3.2,3.2ZM57.907,8.7A8.7,8.7,0,1,1,49.2,0,8.713,8.713,0,0,1,57.907,8.7Zm-3.075,0A5.628,5.628,0,1,0,49.2,14.331,5.634,5.634,0,0,0,54.832,8.7Zm8.334,15.076V37.6a1.538,1.538,0,0,1-1.538,1.538H36.78A1.538,1.538,0,0,1,35.242,37.6V23.779a6.278,6.278,0,0,1,6.271-6.271H43.4a1.538,1.538,0,0,1,.785.215,9.851,9.851,0,0,0,10.032,0,1.538,1.538,0,0,1,.785-.215H56.9a6.278,6.278,0,0,1,6.271,6.271Zm-3.075,0a3.2,3.2,0,0,0-3.2-3.2H55.413a12.93,12.93,0,0,1-12.417,0H41.513a3.2,3.2,0,0,0-3.2,3.2V36.065H60.091ZM35.614,14.325a1.538,1.538,0,0,0-1.538-1.538h-12.4a9.26,9.26,0,0,0-9.249,9.249V50.648L9.863,48.087a1.538,1.538,0,1,0-2.175,2.174l5.186,5.186a1.537,1.537,0,0,0,2.175,0l5.186-5.186a1.538,1.538,0,1,0-2.175-2.174L15.5,50.648V22.037a6.181,6.181,0,0,1,6.174-6.174h12.4a1.538,1.538,0,0,0,1.538-1.538Z" transform="translate(0 -0.001)" fill="#15c8ff"/>
</svg>
