<svg xmlns="http://www.w3.org/2000/svg" width="98.517" height="98.5" viewBox="0 0 98.517 98.5">
  <g id="contract" transform="translate(0 -0.039)">
    <path id="Path_16610" data-name="Path 16610" d="M251,99.668a4.928,4.928,0,0,0-9.029-1.182l-.821,1.428a1.642,1.642,0,0,0-2.232.592l-4.17,7.108-1.428-.821a1.64,1.64,0,1,0-1.642,2.84l1.428.821-13.954,24.182-3.448,9.21-1.642,3.069a4.925,4.925,0,0,0,.263,5.319l-3.694,4.531-1.034-2.593a3.284,3.284,0,0,0-5.861-.46l-.591,1-.558-6.567a3.283,3.283,0,0,0-6.386-.771L192.16,159.49a1.642,1.642,0,0,0,1.034,2.069,1.421,1.421,0,0,0,.509.131,1.642,1.642,0,0,0,1.56-1.116l4.022-12.115.575,6.664a3.283,3.283,0,0,0,6.09,1.412l.608-1,1.018,2.578a3.283,3.283,0,0,0,5.614.837l3.825-4.842a5.056,5.056,0,0,0,1.3.164,4.925,4.925,0,0,0,4.285-2.43l1.642-2.741,6.255-7.6,14.1-24.477,1.428.821a1.646,1.646,0,0,1,.608,2.249l-6.567,11.377a1.63,1.63,0,1,0,2.774,1.707L249.4,121.8a4.923,4.923,0,0,0-1.806-6.731l-1.428-.821,4.1-7.109a1.642,1.642,0,0,0-.591-2.232l.821-1.428A4.924,4.924,0,0,0,251,99.668Zm-6.189.459a1.641,1.641,0,0,1,1-.771,1.724,1.724,0,0,1,1.247.164,1.643,1.643,0,0,1,.772,1,1.724,1.724,0,0,1-.164,1.247l-.821,1.428-2.857-1.642Zm-22.376,45.836-.821-.476-2.43-1.412,2.331-6.238,5.171,2.988Zm-4.925,4.744a1.641,1.641,0,0,1-.492-2.151l.821-1.428,2.856,1.642-.821,1.412a1.641,1.641,0,0,1-2.364.525Zm11.048-12.575-5.68-3.283L236.008,112.1l5.68,3.283Zm14.775-25.594-5.68-3.283,3.283-5.68,5.68,3.283Zm0,0" transform="translate(-152.661 -76.284)" fill="#15c8ff"/>
    <path id="Path_16611" data-name="Path 16611" d="M79.4,356.991l-5.811,5.8-3.481-3.481a1.643,1.643,0,1,0-2.315,2.331l3.481,3.481a3.309,3.309,0,0,0,4.646,0l5.795-5.812a1.642,1.642,0,0,0-2.315-2.315Zm0,0" transform="translate(-53.499 -283.389)" fill="#15c8ff"/>
    <path id="Path_16612" data-name="Path 16612" d="M32,325.995a13.954,13.954,0,1,0,27.908,0,1.642,1.642,0,0,0-3.283,0,10.672,10.672,0,1,1-4.268-8.536,1.642,1.642,0,0,0,1.97-2.627A13.954,13.954,0,0,0,32,325.995Zm0,0" transform="translate(-25.433 -247.977)" fill="#15c8ff"/>
    <path id="Path_16613" data-name="Path 16613" d="M116.325,51.322a1.642,1.642,0,0,0,0-3.283H73.642A1.642,1.642,0,0,0,72,49.681v6.567a1.641,1.641,0,0,0,1.642,1.642h42.683a1.642,1.642,0,1,0,0-3.283H75.283V51.322Zm0,0" transform="translate(-57.225 -38.15)" fill="#15c8ff"/>
    <path id="Path_16614" data-name="Path 16614" d="M97.642,112.039a1.642,1.642,0,1,0,0,3.283h32.833a1.642,1.642,0,1,0,0-3.283Zm0,0" transform="translate(-76.3 -89.017)" fill="#15c8ff"/>
    <path id="Path_16615" data-name="Path 16615" d="M165.758,168.039H129.642a1.642,1.642,0,1,0,0,3.283h36.117a1.642,1.642,0,0,0,0-3.283Zm0,0" transform="translate(-101.733 -133.525)" fill="#15c8ff"/>
    <path id="Path_16616" data-name="Path 16616" d="M92.117,217.681a1.642,1.642,0,0,0-1.642-1.642H57.642a1.642,1.642,0,1,0,0,3.283H90.475A1.641,1.641,0,0,0,92.117,217.681Zm0,0" transform="translate(-44.508 -171.675)" fill="#15c8ff"/>
    <path id="Path_16617" data-name="Path 16617" d="M261.133,216.039H249.642a1.642,1.642,0,1,0,0,3.283h11.492a1.642,1.642,0,1,0,0-3.283Zm0,0" transform="translate(-197.108 -171.675)" fill="#15c8ff"/>
    <path id="Path_16618" data-name="Path 16618" d="M74.058,259.322a1.642,1.642,0,1,0,0-3.283H57.642a1.642,1.642,0,1,0,0,3.283Zm0,0" transform="translate(-44.508 -203.467)" fill="#15c8ff"/>
    <path id="Path_16619" data-name="Path 16619" d="M169.642,259.322h11.492a1.642,1.642,0,1,0,0-3.283H169.642a1.642,1.642,0,1,0,0,3.283Zm0,0" transform="translate(-133.525 -203.467)" fill="#15c8ff"/>
    <path id="Path_16620" data-name="Path 16620" d="M73.875,75.556A1.642,1.642,0,0,0,72.233,77.2V93.614a1.641,1.641,0,0,1-1.642,1.642H4.925a1.641,1.641,0,0,1-1.642-1.642V4.964A1.642,1.642,0,0,1,4.925,3.322H70.592a1.642,1.642,0,0,1,1.642,1.642V35.795a1.642,1.642,0,0,0,3.283,0V4.964A4.925,4.925,0,0,0,70.592.039H4.925A4.925,4.925,0,0,0,0,4.964v88.65a4.925,4.925,0,0,0,4.925,4.925H70.592a4.925,4.925,0,0,0,4.925-4.925V77.2A1.642,1.642,0,0,0,73.875,75.556Zm0,0" fill="#15c8ff"/>
  </g>
</svg>
