<svg xmlns="http://www.w3.org/2000/svg" width="88.035" height="92.954" viewBox="0 0 88.035 92.954">
  <g id="megaphone" transform="translate(-2.776 -0.1)">
    <path id="Path_16621" data-name="Path 16621" d="M60.069,29.364C51,16.018,38.882,8.925,32.537,13.271a7.319,7.319,0,0,0-1.794,1.8c0,.051-14.689,29.777-14.689,29.777l-8.2,5.556A11.583,11.583,0,0,0,4.779,66.5l.369.543a11.6,11.6,0,0,0,16.021,3.075l13.172,19.4c1.937,2.388,5.658,4.766,10.25,1.968a6.939,6.939,0,0,0,3.075-4.715,7.339,7.339,0,0,0-1.138-5.535l-11.6-17.118s27.43-2.183,27.532-2.224a6.57,6.57,0,0,0,2.388-1.025c3.26-2.214,4.428-6.857,3.3-13.079-1.015-5.73-3.9-12.218-8.077-18.43ZM8.131,65.025l-.369-.543a7.985,7.985,0,0,1,2.132-11.1l7.083-4.818,9.348,13.766-7.083,4.818A8,8,0,0,1,8.131,65.025ZM43.576,83.26a3.792,3.792,0,0,1-6.294,4.233L24.152,68.151l5.279-3.588,1.394-.113ZM29.718,60.935,19.529,45.928l9.717-19.814c.943,5.566,3.7,12.177,8.108,18.666S46.887,56.271,51.7,59.2Zm30.238-2.388c-4.9-.318-12.874-5.843-19.629-15.8s-8.948-19.373-7.442-24.057a4.367,4.367,0,0,1,4.1-3.075c4.859,0,13.131,5.556,20.08,15.8,3.916,5.761,6.765,11.788,7.544,17.056C66.137,58.547,59.956,58.547,59.956,58.547Z" transform="translate(0 0.298)" fill="#15c8ff"/>
    <path id="Path_16622" data-name="Path 16622" d="M46.367,29.314a9.625,9.625,0,0,0-7.3,1.507,1.8,1.8,0,0,0,2.05,2.962,6.151,6.151,0,0,1,6.909,10.179,1.794,1.794,0,0,0,1.025,3.27,1.753,1.753,0,0,0,1.025-.308,9.727,9.727,0,0,0-3.639-17.61Z" transform="translate(0.889 0.727)" fill="#15c8ff"/>
    <path id="Path_16623" data-name="Path 16623" d="M60.869,17.187h.174a1.794,1.794,0,0,0,1.784-1.609L64.211,2.13a1.794,1.794,0,1,0-3.567-.369L59.27,15.219a1.794,1.794,0,0,0,1.6,1.968Z" transform="translate(1.414 0)" fill="#15c8ff"/>
    <path id="Path_16624" data-name="Path 16624" d="M83.836,14.09a1.8,1.8,0,0,0-2.491-.513l-12.5,8.2a1.794,1.794,0,0,0,1.025,3.29,1.825,1.825,0,0,0,1.025-.287l12.5-8.2a1.794,1.794,0,0,0,.441-2.491Z" transform="translate(1.633 0.33)" fill="#15c8ff"/>
    <path id="Path_16625" data-name="Path 16625" d="M87.586,35.495,73.052,32.881a1.8,1.8,0,0,0-.636,3.536l14.525,2.614h.318a1.794,1.794,0,0,0,.318-3.567Z" transform="translate(1.706 0.82)" fill="#15c8ff"/>
  </g>
</svg>
