<svg id="Group_20383" data-name="Group 20383" xmlns="http://www.w3.org/2000/svg" xmlns:xlink="http://www.w3.org/1999/xlink" width="133.591" height="59.579" viewBox="0 0 133.591 59.579">
  <defs>
    <clipPath id="clip-path">
      <rect id="Rectangle_10868" data-name="Rectangle 10868" width="133.591" height="59.579" fill="none"/>
    </clipPath>
  </defs>
  <g id="Group_20382" data-name="Group 20382" clip-path="url(#clip-path)">
    <path id="Path_16086" data-name="Path 16086" d="M1638.193,59.579a5.192,5.192,0,0,1-.464-2.8q-.006-26.917-.016-53.835c0-1.68,0-3.161,2.41-2.914,1.2.122,1.749.526,1.746,1.737q-.068,28.908-.116,57.815Z" transform="translate(-1508.277 0)" fill="#fff"/>
    <path id="Path_16087" data-name="Path 16087" d="M0,.629C3.675.239,3.7.253,3.7,3.763q0,26.8,0,53.591c0,.883-.088,1.766-.135,2.649C0,60,0,60,0,56.458V.629" transform="translate(0 -0.424)" fill="#fff"/>
    <path id="Path_16088" data-name="Path 16088" d="M50.772,60.8a5.562,5.562,0,0,1-.467-3.022Q50.3,31.1,50.3,4.416c0-.443-.006-.887.02-1.328.056-.929.164-1.827,1.452-1.755,1.161.065,1.167.942,1.226,1.754.042.588.024,1.18.024,1.771q0,26.24-.01,52.48a6.5,6.5,0,0,1-.463,3.465Z" transform="translate(-46.323 -1.224)" fill="#fff"/>
    <path id="Path_16089" data-name="Path 16089" d="M135.167,368.036c4.618,3.4,5.8,6.8,3.926,11.08-1.576,3.59-4.664,4.884-8.219,5.078-4.138.226-8.3.061-12.446.1-1.323.012-1.853-.579-1.85-1.875q.028-13.284-.005-26.568c0-1.424.593-1.971,2-1.953,3.779.047,7.56-.043,11.337.049,3.614.088,6.494,1.546,7.923,5.035s.245,6.324-2.494,8.675c-.1.083-.12.25-.172.38m-8.394,12a37.8,37.8,0,0,0,4.433-.032,4.458,4.458,0,0,0,4.024-4.311,4.532,4.532,0,0,0-3.455-4.773c-2.1-.617-4.264-.388-6.4-.395-4.55-.015-4.2-.417-4.159,4.174.051,6.317-.885,5.378,5.559,5.337m-.353-21.911c-5.95-.067-5.149-.765-5.215,5.025-.008.661,0,1.324.046,1.983s.374,1.16,1.08,1.166c2.869.024,5.768.422,8.593-.273a3.608,3.608,0,0,0,2.992-4.241,3.8,3.8,0,0,0-3.737-3.641c-1.244-.107-2.505-.019-3.759-.019" transform="translate(-107.36 -325.927)" fill="#fff"/>
    <path id="Path_16090" data-name="Path 16090" d="M878.994,464.23c-2.076,0-4.151.006-6.227,0-1.32-.005-1.659.629-1.375,1.853a5.814,5.814,0,0,0,4.545,4.63c2.924.521,4.838-.143,6.21-2.691,1.069-1.985,2.559-1.348,4.008-1.08,1.056.2.828,1.06.532,1.775a8.52,8.52,0,0,1-4.815,4.951c-5.449,2.136-13.572.657-15.009-8.026-1.17-7.068,2.135-12.911,8.173-14.1A10.191,10.191,0,0,1,887.262,462.5c-.108,1.244-.682,1.7-1.819,1.7h-6.449v.031m-2.008-3.7c1.406,0,2.814-.053,4.217.015,1.471.071,1.583-.667,1.257-1.8a5.424,5.424,0,0,0-5.4-3.781,5.661,5.661,0,0,0-5.45,4.078c-.29,1.116.088,1.5,1.163,1.488,1.406-.02,2.812,0,4.217,0" transform="translate(-798.136 -415.66)" fill="#fff"/>
    <path id="Path_16091" data-name="Path 16091" d="M1309.868,462c.017-4.651,1.288-8.379,5.416-10.474a10.484,10.484,0,0,1,11.363.71c4.522,3.141,5.753,11.636,2.5,16.724-2.85,4.455-9.291,5.9-14.235,3.115-4.054-2.286-5.046-6.11-5.042-10.076m16.566-.69a15.978,15.978,0,0,0-.23-2.43,5.987,5.987,0,0,0-5.727-4.951c-3-.043-5.169,1.8-5.945,4.917a12.771,12.771,0,0,0,.128,6.552,5.624,5.624,0,0,0,5.221,4.353,5.493,5.493,0,0,0,6-3.878,12.835,12.835,0,0,0,.55-4.563" transform="translate(-1206.344 -414.608)" fill="#fff"/>
    <path id="Path_16092" data-name="Path 16092" d="M470.69,462.725c-.03,8.33-6.357,13.32-13.933,10.989-5.624-1.73-8.343-7.892-6.632-15.03A10.139,10.139,0,0,1,462,451.166c5.664,1.007,8.714,5.063,8.69,11.559m-16.553.36a19.151,19.151,0,0,0,.21,2.516,5.668,5.668,0,0,0,5.032,4.863c2.963.317,5.2-.878,6.211-3.521a11.568,11.568,0,0,0,0-8.628,5.58,5.58,0,0,0-5.548-3.636,5.727,5.727,0,0,0-5.3,3.719,11.661,11.661,0,0,0-.612,4.687" transform="translate(-414.082 -415.348)" fill="#fff"/>
    <path id="Path_16093" data-name="Path 16093" d="M1311.017,13.442c0-3.609.044-7.218-.019-10.826-.03-1.688.592-2.365,2.342-2.314,5.133.149,4.8-.721,4.806,4.7.012,6.334-.056,12.669.034,19,.03,2.081-.64,2.853-2.806,2.8-4.358-.113-4.361-.006-4.362-4.3q0-4.529,0-9.059" transform="translate(-1207.383 -0.275)" fill="#fff"/>
    <path id="Path_16094" data-name="Path 16094" d="M111.476,13.42c0-3.615.037-7.23-.017-10.844C111.435,1,112,.323,113.66.353c5.459.1,4.674-.458,4.707,4.534.043,6.418-.046,12.836.043,19.253.027,1.963-.534,2.751-2.632,2.711-4.305-.081-4.307.023-4.308-4.358q0-4.537,0-9.074" transform="translate(-102.649 -0.324)" fill="#fff"/>
    <path id="Path_16095" data-name="Path 16095" d="M545.931,13.552c0,3.467-.073,6.937.029,10.4.055,1.851-.475,2.643-2.494,2.624-4.445-.044-4.446.051-4.446-4.44,0-6.418.064-12.837-.036-19.254-.032-2.066.558-2.9,2.757-2.82,4.62.17,4.161-.372,4.187,4.195.018,3.1,0,6.2,0,9.3" transform="translate(-496.386 -0.052)" fill="#fff"/>
    <path id="Path_16096" data-name="Path 16096" d="M1154.445,385.386c0-1.476.016-2.952,0-4.428-.021-1.563.438-3.261-2.02-3.694-1.063-.187-.977-2.811.131-3.042,1.787-.373,2.118-1.43,1.873-2.869-.4-2.329,1.061-3.313,2.8-4.192.927-.469,1.408-.291,1.426.784.014.812.05,1.626.007,2.435-.106,1.995-.3,3.954,2.737,3.748.906-.062,1.093.844,1.106,1.632.015.9-.266,1.777-1.285,1.714-2.527-.156-2.639,1.33-2.576,3.228.1,2.949.05,5.9.021,8.856-.017,1.767.383,3.057,2.55,3.035,1.527-.015,1.331,1.268,1.51,2.253.22,1.212-.517,1.53-1.485,1.729-3.881.8-6.586-1.245-6.759-5.211-.087-1.989-.015-3.985-.015-5.978h-.016" transform="translate(-1060.649 -337.918)" fill="#fff"/>
    <path id="Path_16097" data-name="Path 16097" d="M767.905,368.724c0,4.277-.039,8.555.02,12.831.022,1.61-.389,2.456-2.231,2.435-1.775-.02-2.058-.9-2.052-2.369q.049-12.831-.005-25.663c-.008-1.606.362-2.454,2.214-2.428,1.769.025,2.084.891,2.069,2.363-.043,4.277-.015,8.554-.014,12.831" transform="translate(-703.283 -325.588)" fill="#fff"/>
    <path id="Path_16098" data-name="Path 16098" d="M1214.111,13.718c0,3.617-.031,7.235.015,10.852.018,1.438-.414,2.175-2.02,2.176-1.523,0-2.155-.569-2.15-2.071q.034-11.184,0-22.368c-.005-1.518.646-2.045,2.159-2.049,1.617-.005,2.03.729,2.012,2.166-.047,3.764-.016,7.53-.016,11.294" transform="translate(-1114.328 -0.237)" fill="#fff"/>
    <path id="Path_16099" data-name="Path 16099" d="M1028.525,13.559c0,3.616-.039,7.233.019,10.849.024,1.513-.361,2.333-2.1,2.317-1.6-.015-2.061-.753-2.058-2.169q.024-11.07-.008-22.14c-.007-1.6.611-2.2,2.254-2.186,1.7.019,1.919.913,1.907,2.26-.033,3.69-.011,7.38-.011,11.07" transform="translate(-943.415 -0.211)" fill="#fff"/>
    <path id="Path_16100" data-name="Path 16100" d="M869.873,13.756c0,3.618-.026,7.237.013,10.855.015,1.45-.478,2.162-2.061,2.157-1.515,0-2.137-.558-2.13-2.079q.051-11.188,0-22.375c-.007-1.557.683-2.017,2.166-2.03,1.619-.014,2.039.749,2.025,2.174-.037,3.766-.013,7.532-.013,11.3" transform="translate(-797.275 -0.261)" fill="#fff"/>
    <path id="Path_16101" data-name="Path 16101" d="M1467.688,13.3c0,3.764-.038,7.528.019,11.291.023,1.5-.529,2.1-2.075,2.115-1.59.013-2.083-.708-2.079-2.142q.025-11.07-.008-22.14c-.007-1.572.56-2.233,2.229-2.211s1.944.872,1.93,2.239c-.037,3.616-.013,7.232-.015,10.848" transform="translate(-1347.876 -0.193)" fill="#fff"/>
    <path id="Path_16102" data-name="Path 16102" d="M695.577,13.463c0,3.618-.034,7.237.016,10.855.021,1.513-.392,2.319-2.123,2.321-1.783,0-2.08-.915-2.075-2.373q.039-10.855,0-21.711c0-1.406.178-2.394,2.016-2.42,1.908-.027,2.2.917,2.181,2.472-.051,3.618-.016,7.237-.018,10.855" transform="translate(-636.752 -0.125)" fill="#fff"/>
    <path id="Path_16103" data-name="Path 16103" d="M426.613,13.534c0,3.615-.039,7.231.019,10.845.024,1.5-.329,2.338-2.083,2.326-1.616-.011-2.053-.764-2.05-2.168q.02-11.067-.008-22.133c-.006-1.576.577-2.22,2.238-2.2,1.706.023,1.909.918,1.9,2.261-.035,3.689-.012,7.378-.012,11.067" transform="translate(-389.099 -0.189)" fill="#fff"/>
    <path id="Path_16104" data-name="Path 16104" d="M268.046,13.454c0,3.688-.02,7.376.01,11.063.011,1.377-.318,2.212-1.968,2.239-1.692.028-2.2-.709-2.2-2.254q.046-11.063.005-22.126c0-1.469.534-2.113,2.095-2.11s2.085.651,2.066,2.125c-.047,3.687-.016,7.375-.013,11.063" transform="translate(-243.037 -0.245)" fill="#fff"/>
    <path id="Path_16105" data-name="Path 16105" d="M1080.194,14.68c0-3.611-.024-7.223.016-10.834.011-.968-.243-2.269,1.373-2.249,1.455.018,1.282,1.22,1.286,2.121q.042,11.055,0,22.111c0,.926.075,2.088-1.378,2.041s-1.273-1.22-1.281-2.135c-.033-3.685-.014-7.37-.015-11.055" transform="translate(-994.815 -1.47)" fill="#fff"/>
    <path id="Path_16106" data-name="Path 16106" d="M480.92,14.662c0,3.683.022,7.367-.016,11.05-.009.907.154,2.093-1.293,2.119s-1.348-1.136-1.351-2.062q-.035-11.05,0-22.1c0-.908-.163-2.084,1.294-2.112s1.34,1.141,1.349,2.056c.037,3.683.015,7.367.017,11.05" transform="translate(-440.444 -1.432)" fill="#fff"/>
    <path id="Path_16107" data-name="Path 16107" d="M1140.131,14.639c0,3.69.017,7.38-.012,11.07-.007.923.155,2.078-1.29,2.13s-1.4-1.092-1.4-2.026q-.038-11.07,0-22.139c0-.906-.157-2.093,1.3-2.116,1.623-.026,1.381,1.257,1.39,2.234.035,3.616.014,7.232.013,10.848" transform="translate(-1047.515 -1.433)" fill="#fff"/>
    <path id="Path_16108" data-name="Path 16108" d="M1417.421,14.559c0-3.611-.019-7.222.012-10.833.009-.987-.2-2.256,1.425-2.188,1.451.06,1.255,1.258,1.259,2.151.028,7.222.013,14.443,0,21.665a8.442,8.442,0,0,1-.108,1.1c-.108.807-.411,1.423-1.384,1.369-1-.056-1.178-.766-1.181-1.546-.014-3.905-.007-7.811-.007-11.717h-.019" transform="translate(-1305.392 -1.414)" fill="#fff"/>
    <path id="Path_16109" data-name="Path 16109" d="M957.622,15.226c0,3.618.017,7.235-.012,10.852-.007.926.14,2.117-1.347,2.027-1.342-.081-1.076-1.22-1.079-2.04q-.037-11.074,0-22.148c0-.815-.277-1.954,1.087-2.022,1.5-.075,1.33,1.115,1.337,2.035.029,3.765.012,7.53.012,11.3" transform="translate(-879.673 -1.742)" fill="#fff"/>
    <path id="Path_16110" data-name="Path 16110" d="M1268,14.885c0,3.68.017,7.361-.012,11.04-.007.911.192,2.114-1.311,2.036-1.3-.067-1.15-1.156-1.152-2q-.028-11.151,0-22.3c0-.864-.079-1.908,1.234-1.928,1.344-.02,1.225,1.036,1.23,1.9.021,3.754.009,7.508.011,11.261" transform="translate(-1165.49 -1.591)" fill="#fff"/>
    <path id="Path_16111" data-name="Path 16111" d="M1554.764,15.052c0,3.68.016,7.36-.013,11.04-.007.832.217,1.945-1.124,2-1.483.057-1.319-1.126-1.322-2.046q-.03-11.04,0-22.08c0-.9-.228-2.122,1.26-2.1s1.173,1.27,1.182,2.148c.039,3.679.016,7.36.014,11.04" transform="translate(-1429.608 -1.717)" fill="#fff"/>
    <path id="Path_16112" data-name="Path 16112" d="M1589.363,15.423c0,3.682.023,7.365-.018,11.046-.009.823.194,2.025-1.068,2.062-1.292.038-1.13-1.161-1.133-1.992q-.038-11.047,0-22.093c0-.82-.22-2.015,1.066-2.054,1.317-.04,1.122,1.167,1.132,1.984.042,3.682.019,7.364.021,11.046" transform="translate(-1461.688 -2.203)" fill="#fff"/>
    <path id="Path_16113" data-name="Path 16113" d="M783.29,15.236c0,3.618.016,7.236-.012,10.853-.007.843.18,1.954-1.135,2.015-1.51.07-1.294-1.149-1.3-2.057q-.032-11.075,0-22.15c0-.827-.236-1.951,1.115-2.008,1.506-.064,1.307,1.137,1.314,2.05.03,3.765.013,7.531.012,11.3" transform="translate(-719.118 -1.738)" fill="#fff"/>
    <path id="Path_16114" data-name="Path 16114" d="M648.355,15.075c0,3.607.022,7.214-.016,10.821-.009.883.31,2.124-1.16,2.188s-1.289-1.155-1.291-2.065q-.032-11.041,0-22.083c0-.9-.217-2.122,1.281-2.07s1.16,1.291,1.169,2.169c.039,3.68.016,7.361.016,11.041" transform="translate(-594.826 -1.715)" fill="#fff"/>
    <path id="Path_16115" data-name="Path 16115" d="M353.038,14.677c0-3.691-.011-7.383.008-11.074,0-.879-.063-1.908,1.3-1.838,1.181.061,1.132,1,1.134,1.8q.023,11.3,0,22.59c0,.887.019,1.9-1.314,1.844-1.189-.054-1.112-1.009-1.116-1.8-.02-3.839-.009-7.678-.01-11.517" transform="translate(-325.133 -1.623)" fill="#fff"/>
    <path id="Path_16116" data-name="Path 16116" d="M220.489,15.044c0,3.681.016,7.361-.012,11.041-.006.838.2,1.941-1.136,1.992-1.491.057-1.311-1.132-1.314-2.048q-.03-11.041,0-22.083c0-.9-.235-2.123,1.258-2.094S220.466,3.121,220.475,4c.038,3.68.016,7.361.014,11.041" transform="translate(-200.782 -1.706)" fill="#fff"/>
    <path id="Path_16117" data-name="Path 16117" d="M991.673,16.059c0,3.687.019,7.373-.016,11.06-.007.745.213,1.844-1.053,1.772-1.021-.058-.92-1.02-.922-1.725q-.027-11.281,0-22.562c0-.764-.13-1.829,1.094-1.77,1.069.051.875,1.039.88,1.723.028,3.834.014,7.668.014,11.5" transform="translate(-911.452 -2.608)" fill="#fff"/>
    <path id="Path_16118" data-name="Path 16118" d="M1177.053,15.886c0,3.761.018,7.521-.015,11.282-.006.751.2,1.856-1.009,1.834-1.2-.021-.968-1.124-.97-1.872q-.036-11.171,0-22.342c0-.743-.221-1.853,1.006-1.831,1.2.022.965,1.124.972,1.869.035,3.687.016,7.374.015,11.06" transform="translate(-1082.173 -2.723)" fill="#fff"/>
    <path id="Path_16119" data-name="Path 16119" d="M817.438,16.069c0,3.686.02,7.372-.016,11.058-.007.742.213,1.844-1.048,1.779-1.015-.052-.934-1.013-.935-1.719q-.028-11.279,0-22.559c0-.764-.118-1.827,1.1-1.778,1.069.044.883,1.032.888,1.717.029,3.833.014,7.667.014,11.5" transform="translate(-750.978 -2.624)" fill="#fff"/>
    <path id="Path_16120" data-name="Path 16120" d="M389.6,15.634c0,3.833.014,7.666-.013,11.5,0,.692.158,1.68-.88,1.738-1.208.068-1.1-1-1.1-1.767q-.033-11.277,0-22.555c0-.775-.073-1.831,1.138-1.732,1.041.085.841,1.075.847,1.761.029,3.685.014,7.371.013,11.056" transform="translate(-356.949 -2.588)" fill="#fff"/>
  </g>
</svg>
