<svg xmlns="http://www.w3.org/2000/svg" width="121.518" height="121.527" viewBox="0 0 121.518 121.527">
  <g id="cloud" transform="translate(0.5 0.5)">
    <g id="Group_20321" data-name="Group 20321" transform="translate(73.676 111.112)">
      <g id="Group_20320" data-name="Group 20320">
        <path id="Path_16021" data-name="Path 16021" d="M357.484,472H315.35a2.354,2.354,0,1,0,0,4.708h42.134a2.354,2.354,0,0,0,0-4.708Z" transform="translate(-312.996 -472.003)" fill="#15c8ff" stroke="#15c8ff" stroke-width="1"/>
      </g>
    </g>
    <g id="Group_20323" data-name="Group 20323" transform="translate(0 111.112)">
      <g id="Group_20322" data-name="Group 20322">
        <path id="Path_16022" data-name="Path 16022" d="M44.273,472H2.374a2.354,2.354,0,0,0,0,4.708h41.9a2.354,2.354,0,0,0,0-4.708Z" transform="translate(-0.02 -472.003)" fill="#15c8ff" stroke="#15c8ff" stroke-width="1"/>
      </g>
    </g>
    <g id="Group_20325" data-name="Group 20325" transform="translate(40.594 48.153)">
      <g id="Group_20324" data-name="Group 20324">
        <path id="Path_16023" data-name="Path 16023" d="M193.058,204.555H174.816a2.354,2.354,0,1,0,0,4.708h18.242a2.354,2.354,0,0,0,0-4.708Z" transform="translate(-172.462 -204.555)" fill="#15c8ff" stroke="#15c8ff" stroke-width="1"/>
      </g>
    </g>
    <g id="Group_20327" data-name="Group 20327" transform="translate(75.493 48.153)">
      <g id="Group_20326" data-name="Group 20326">
        <path id="Path_16024" data-name="Path 16024" d="M324.733,205.243a2.352,2.352,0,1,0,.69,1.664A2.372,2.372,0,0,0,324.733,205.243Z" transform="translate(-320.715 -204.553)" fill="#15c8ff" stroke="#15c8ff" stroke-width="1"/>
      </g>
    </g>
    <g id="Group_20329" data-name="Group 20329" transform="translate(67.269 48.153)">
      <g id="Group_20328" data-name="Group 20328">
        <path id="Path_16025" data-name="Path 16025" d="M289.8,205.243a2.358,2.358,0,1,0,.687,1.664A2.377,2.377,0,0,0,289.8,205.243Z" transform="translate(-285.777 -204.553)" fill="#15c8ff" stroke="#15c8ff" stroke-width="1"/>
      </g>
    </g>
    <g id="Group_20331" data-name="Group 20331" transform="translate(40.594 66.984)">
      <g id="Group_20330" data-name="Group 20330">
        <path id="Path_16026" data-name="Path 16026" d="M193.058,284.549H174.816a2.354,2.354,0,1,0,0,4.708h18.242a2.354,2.354,0,1,0,0-4.708Z" transform="translate(-172.462 -284.549)" fill="#15c8ff" stroke="#15c8ff" stroke-width="1"/>
      </g>
    </g>
    <g id="Group_20333" data-name="Group 20333" transform="translate(75.493 66.984)">
      <g id="Group_20332" data-name="Group 20332">
        <path id="Path_16027" data-name="Path 16027" d="M324.733,285.237a2.352,2.352,0,1,0,.69,1.664A2.372,2.372,0,0,0,324.733,285.237Z" transform="translate(-320.715 -284.547)" fill="#15c8ff" stroke="#15c8ff" stroke-width="1"/>
      </g>
    </g>
    <g id="Group_20335" data-name="Group 20335" transform="translate(67.269 66.984)">
      <g id="Group_20334" data-name="Group 20334">
        <path id="Path_16028" data-name="Path 16028" d="M289.8,285.237a2.358,2.358,0,1,0,.687,1.664A2.377,2.377,0,0,0,289.8,285.237Z" transform="translate(-285.777 -284.547)" fill="#15c8ff" stroke="#15c8ff" stroke-width="1"/>
      </g>
    </g>
    <g id="Group_20337" data-name="Group 20337" transform="translate(40.594 85.815)">
      <g id="Group_20336" data-name="Group 20336">
        <path id="Path_16029" data-name="Path 16029" d="M193.058,364.543H174.816a2.354,2.354,0,1,0,0,4.708h18.242a2.354,2.354,0,0,0,0-4.708Z" transform="translate(-172.462 -364.543)" fill="#15c8ff" stroke="#15c8ff" stroke-width="1"/>
      </g>
    </g>
    <g id="Group_20339" data-name="Group 20339" transform="translate(75.493 85.815)">
      <g id="Group_20338" data-name="Group 20338">
        <path id="Path_16030" data-name="Path 16030" d="M324.733,365.231a2.352,2.352,0,1,0,.69,1.664A2.376,2.376,0,0,0,324.733,365.231Z" transform="translate(-320.715 -364.541)" fill="#15c8ff" stroke="#15c8ff" stroke-width="1"/>
      </g>
    </g>
    <g id="Group_20341" data-name="Group 20341" transform="translate(67.269 85.815)">
      <g id="Group_20340" data-name="Group 20340">
        <path id="Path_16031" data-name="Path 16031" d="M289.795,365.231a2.352,2.352,0,1,0,.69,1.664A2.367,2.367,0,0,0,289.795,365.231Z" transform="translate(-285.777 -364.541)" fill="#15c8ff" stroke="#15c8ff" stroke-width="1"/>
      </g>
    </g>
    <g id="Group_20343" data-name="Group 20343" transform="translate(29.689 39.074)">
      <g id="Group_20342" data-name="Group 20342">
        <path id="Path_16032" data-name="Path 16032" d="M187.338,196.587a11.758,11.758,0,0,0-4.716-9.415,11.765,11.765,0,0,0-7.053-21.185H137.906a11.765,11.765,0,0,0-7.053,21.185,11.757,11.757,0,0,0,0,18.831,11.765,11.765,0,0,0,7.053,21.185h16.447v6.534a7.062,7.062,0,1,0,4.708,0v-6.534h16.507A11.765,11.765,0,0,0,182.622,206,11.759,11.759,0,0,0,187.338,196.587Zm-56.493-18.831a7.07,7.07,0,0,1,7.062-7.062h37.662a7.062,7.062,0,0,1,0,14.123H137.906A7.07,7.07,0,0,1,130.844,177.757Zm25.863,64.976a2.354,2.354,0,1,1,2.354-2.354A2.356,2.356,0,0,1,156.707,242.733Zm25.922-27.314a7.07,7.07,0,0,1-7.062,7.062H137.906a7.062,7.062,0,1,1,0-14.123h37.662A7.07,7.07,0,0,1,182.63,215.418Zm-7.062-11.769H137.906a7.062,7.062,0,1,1,0-14.123h37.662a7.062,7.062,0,1,1,0,14.123Z" transform="translate(-126.137 -165.987)" fill="#15c8ff" stroke="#15c8ff" stroke-width="1"/>
      </g>
    </g>
    <g id="Group_20345" data-name="Group 20345" transform="translate(0 0)">
      <g id="Group_20344" data-name="Group 20344">
        <path id="Path_16033" data-name="Path 16033" d="M115.484,36.449A28.693,28.693,0,0,0,103.5,26.481a40.731,40.731,0,0,0-78.142,6.493q-.548-.025-1.093-.025a24.247,24.247,0,0,0-3.761,48.2,2.38,2.38,0,0,0,.365.028,2.354,2.354,0,0,0,.36-4.68,19.539,19.539,0,0,1,3.036-38.84A19.77,19.77,0,0,1,27,37.849a2.354,2.354,0,0,0,2.658-2.015,36.021,36.021,0,0,1,69.749-6.823,2.354,2.354,0,0,0,1.35,1.419,24.017,24.017,0,0,1-4.094,45.813,2.354,2.354,0,0,0,.944,4.612,28.725,28.725,0,0,0,17.879-44.407Z" transform="translate(-0.019)" fill="#15c8ff" stroke="#15c8ff" stroke-width="1"/>
      </g>
    </g>
  </g>
</svg>
