<svg xmlns="http://www.w3.org/2000/svg" width="114.087" height="102.679" viewBox="0 0 114.087 102.679">
  <path id="coins" d="M114.067,37.226c-.188-3.253-4.058-5.8-11.8-7.735a4.287,4.287,0,0,0,.409-1.78v-13.3h-.032C101.966,3.327,56.555,3,51.339,3S.713,3.327.032,14.409H0v.247H0V27.717c.01,3.613,4.672,6.44,11.608,8.545a4.171,4.171,0,0,0-.171.964h-.029v.247h0V50.512C3.936,52.436.2,54.942.019,58.142H0v.247H0V71.451c.006,2.516,2.274,4.649,5.986,6.427a4.189,4.189,0,0,0-.253,1.183H5.7v.247h0V92.369c.015,6.324,14.255,10.251,30.077,12.084a1.746,1.746,0,0,0,.346.07c.036,0,.067-.019.1-.021,3.05.344,6.149.612,9.216.8a1.57,1.57,0,0,0,.188.038c.036,0,.065-.019.1-.021,3.894.236,7.726.356,11.31.356s7.416-.12,11.31-.357c.034,0,.065.021.1.021.067,0,.124-.032.188-.038,3.067-.192,6.166-.458,9.216-.8.036,0,.067.019.1.019a1.746,1.746,0,0,0,.346-.07c15.822-1.833,30.06-5.761,30.077-12.088v-13.3h-.03c-.133-2.331-2.12-4.276-6.045-5.9a4.251,4.251,0,0,0,.371-1.711V59.017c6.826-2.1,11.4-4.908,11.409-8.488v-13.3ZM98.67,72.063l-.648.569a17.012,17.012,0,0,1-4.851,2.624V66.189a28.3,28.3,0,0,0,5.7-2.616v7.868A1.209,1.209,0,0,1,98.67,72.063ZM56.142,80.9c-.278.008-.557.011-.837.017-.679.013-1.375.017-2.063.023v-9.5q.784-.009,1.569-.023l.3-.006q2.872-.054,5.735-.183v9.494q-.61.031-1.228.057C58.476,80.832,57.319,80.87,56.142,80.9Zm-8.3.027q-1.306-.023-2.6-.063l-.319-.011q-1.554-.051-3.086-.127V71.232q2.858.134,5.735.183l.3.006q.784.014,1.569.023v9.5c-.369,0-.738,0-1.1-.01C48.166,80.933,48,80.927,47.839,80.926ZM13.495,76.59c-.063-.019-.122-.036-.184-.053V67.351c1.776.479,3.685.917,5.7,1.314v9.281q-2.618-.556-4.822-1.16C13.961,76.72,13.721,76.657,13.495,76.59ZM53.574,92.336q.784.014,1.569.023v9.505q-3.942-.037-7.606-.221V92.15q2.858.134,5.735.183C53.372,92.332,53.473,92.334,53.574,92.336Zm7.243-.006q2.872-.054,5.735-.183v9.494q-3.662.18-7.606.221V92.357q.784-.009,1.569-.023C60.615,92.334,60.715,92.332,60.816,92.33Zm15.242-.859v9.443q-2.741.288-5.7.5V91.931C72.282,91.806,74.187,91.652,76.058,91.471Zm3.8-.411q2.941-.354,5.7-.8v9.336q-2.687.473-5.7.871Zm9.507-1.481c2.019-.4,3.928-.835,5.7-1.314v9.186c-1.694.489-3.6.962-5.7,1.409Zm-64.65,0V98.86c-2.1-.447-4.01-.92-5.7-1.409V88.265C20.791,88.744,22.7,89.184,24.719,89.579Zm3.8.681q2.761.448,5.7.8v9.4q-3.015-.4-5.7-.871Zm9.507,1.211c1.871.181,3.776.335,5.7.462v9.483q-2.963-.208-5.7-.5ZM33.312,80.1l-.578-.059c-.137-.013-.272-.03-.409-.044V70.557c1.871.181,3.776.335,5.7.462v9.475C36.432,80.38,34.854,80.251,33.312,80.1Zm-4.79-9.956v9.4q-3.015-.4-5.7-.871V69.342Q25.578,69.79,28.522,70.144ZM65.916,80.4q-.627.048-1.266.1V71.017c1.928-.127,3.833-.28,5.7-.462V80c-1.175.124-2.377.24-3.611.34C66.467,80.363,66.192,80.384,65.916,80.4Zm8.241-.856v-9.4q2.941-.354,5.7-.8v9.336Q77.174,79.151,74.157,79.549Zm9.507-10.886c2.019-.4,3.928-.835,5.7-1.314v9.186c-1.694.489-3.6.962-5.7,1.409Zm-26-8.686c-1.43-.036-2.827-.091-4.2-.158-.074,0-.148-.008-.221-.01V50.316q2.858.134,5.735.183l.3.006q.784.014,1.569.023v9.494c-.926-.01-1.86-.013-2.763-.034ZM13.31,32.8V23.618c1.776.479,3.685.917,5.7,1.314v9.281c-.234-.049-.475-.1-.7-.148-1.012-.222-2-.454-2.942-.7C14.651,33.18,13.968,32.992,13.31,32.8Zm34.559-5.117q.784.014,1.569.023V37.2c-2.559-.025-5.1-.091-7.606-.217V27.5q2.858.134,5.735.183C47.668,27.683,47.768,27.685,47.869,27.687Zm7.243-.006q2.872-.054,5.735-.183v9.486c-.323.015-.633.038-.958.053l-.082,0c-1.276.057-2.576.1-3.894.129-.205.006-.411.008-.616.013-.677.013-1.369.015-2.055.023v-9.5q.784-.009,1.569-.023Zm43.329.955-.053-.011-.692.538A18.494,18.494,0,0,1,93.171,31.5V22.454a28.3,28.3,0,0,0,5.7-2.616v7.868A1.493,1.493,0,0,1,98.44,28.635ZM74.157,35.8V26.411q2.941-.354,5.7-.8v9.321C78.059,35.249,76.161,35.542,74.157,35.8ZM83.664,34.2V24.931c2.019-.4,3.928-.835,5.7-1.314v9.165C87.665,33.279,85.746,33.752,83.664,34.2Zm-13.31-7.376v9.431q-2.755.291-5.7.5V27.284C66.578,27.156,68.483,27,70.354,26.821ZM32.325,36.256V26.821c1.871.181,3.776.335,5.7.462v9.465C36.093,36.61,34.184,36.452,32.325,36.256Zm-3.8-9.846v9.4c-.376-.049-.768-.089-1.141-.141-.243-.034-.475-.07-.715-.1q-1.649-.237-3.227-.5c-.211-.036-.415-.074-.622-.11V25.61Q25.578,26.055,28.522,26.411ZM48.966,59.547l-.77-.057q-1.825-.143-3.565-.316l-.745-.076c-.051-.006-.1-.013-.152-.017V49.639c1.871.181,3.776.335,5.7.462v9.477C49.284,59.566,49.12,59.559,48.966,59.547ZM36.4,58.127c-.753-.12-1.46-.249-2.177-.375V48.428q2.761.448,5.7.8v9.4c-1.164-.154-2.3-.314-3.4-.485Q36.469,58.136,36.4,58.127Zm-5.98-10.38v9.266q-3.152-.676-5.7-1.428V46.433C26.495,46.912,28.4,47.352,30.423,47.747Zm-9.507-2.476v9.034c-2.989-1.154-4.917-2.333-5.545-3.383l-.127-.213a1.2,1.2,0,0,1-.032-.181V42.655A28.3,28.3,0,0,0,20.916,45.271Zm45.6,5.227q2.872-.054,5.735-.183V59.8c-2.5.124-5.039.192-7.606.219V50.527q.784-.009,1.569-.023Zm24.573,7.3c-.835.145-1.677.287-2.542.418-.5.076-1,.148-1.514.221-.481.068-.981.127-1.47.19v-9.4q2.941-.354,5.7-.8v9.336C91.211,57.773,91.152,57.785,91.093,57.794ZM78.218,59.418c-.709.059-1.441.1-2.16.148V50.1c1.928-.127,3.833-.28,5.7-.462v9.433c-1.1.116-2.208.232-3.343.327Zm21.73-3.565c-.947.264-1.949.511-2.972.753-.473.11-.956.221-1.451.327-.146.032-.3.061-.451.093V47.749c2.019-.4,3.928-.835,5.7-1.314v9.186Zm10.315-18.5c-.175,1.291-3.1,3.008-8.325,4.622h0c-6.727,2.078-17.254,3.982-30.594,4.571-.683.029-1.363.057-2.059.08-.569.019-1.139.036-1.719.051-1.574.034-3.172.059-4.818.059s-3.244-.025-4.818-.061c-.578-.013-1.148-.032-1.719-.051-.7-.021-1.379-.051-2.059-.08-13.341-.589-23.869-2.493-30.594-4.571h0c-5.181-1.6-8.1-3.3-8.319-4.59a.446.446,0,0,1,.032-.112c.129.032.274.059.405.091.743.177,1.506.348,2.282.511,3.778.814,7.965,1.481,12.426,1.991.015,0,.027.008.04.008l.01,0c3.039.346,6.191.618,9.427.81.025,0,.046.013.07.013s.023-.008.036-.008q3.494.205,7.077.291c1.462.036,2.9.055,4.3.055,1,0,2.021-.011,3.054-.03,13.816-.213,26.62-1.856,35.531-4.4.411-.116.812-.236,1.207-.356.241-.074.489-.146.723-.221.688-.221,1.348-.447,1.985-.683l.325-.125c.538-.2,1.055-.415,1.55-.629.143-.063.289-.124.428-.186.527-.238,1.036-.481,1.508-.734.213-.112.4-.228.6-.342.228-.131.456-.264.667-.4.12-.076.262-.148.376-.224C107.8,34.543,110.047,36.563,110.264,37.35ZM51.339,6.8c31.353,0,47.211,4.936,47.508,7.769-.23,1.285-3.149,2.983-8.317,4.581h0c-6.727,2.078-17.254,3.982-30.594,4.571-.683.029-1.363.057-2.059.08-.569.019-1.139.036-1.719.051-1.574.036-3.172.061-4.818.061s-3.244-.025-4.818-.061c-.578-.013-1.148-.032-1.719-.051-.7-.021-1.379-.051-2.059-.08-13.341-.589-23.869-2.493-30.594-4.571h0c-5.17-1.6-8.087-3.3-8.317-4.581C4.128,11.739,19.986,6.8,51.339,6.8ZM3.8,27.711V19.837a28.3,28.3,0,0,0,5.7,2.616v9.1C5.809,30.172,3.807,28.782,3.8,27.711Zm9.211,26.314c.029.03.072.057.1.087,2.6,2.628,7.994,4.693,14.7,6.233.154.036.318.07.473.106q.739.165,1.5.323a146.647,146.647,0,0,0,21.534,2.73l.013,0,.008,0q3.862.225,7.9.3c1.19.025,2.362.04,3.506.04,1.312,0,2.658-.015,4.027-.048,2.487-.051,4.938-.154,7.355-.295.01,0,.017.006.027.006s.03-.01.048-.01a147.064,147.064,0,0,0,21.95-2.81,34.448,34.448,0,0,1-5.625,2.2h0c-7.1,2.194-18.444,4.193-32.859,4.657-.428.013-.85.029-1.283.04-.466.011-.939.019-1.413.029-1.2.019-2.4.036-3.636.036-1.647,0-3.244-.025-4.818-.061-.578-.013-1.148-.032-1.719-.051-.7-.021-1.379-.051-2.059-.08-13.341-.589-23.869-2.493-30.594-4.571h0C6.919,61.27,3.993,59.551,3.824,58.26,4.035,57.545,5.957,55.756,13.014,54.026ZM3.8,71.445V63.571a28.3,28.3,0,0,0,5.7,2.616v9.068l-1.086-.422-.023.023C5.413,73.618,3.807,72.4,3.8,71.445Zm5.7,20.916V84.487a28.3,28.3,0,0,0,5.7,2.616v9.1C11.513,94.821,9.511,93.431,9.507,92.361Zm89.369,3.847v-9.1a28.3,28.3,0,0,0,5.7-2.616v7.868C104.578,93.428,102.574,94.819,98.876,96.208Zm5.68-17c-.207,1.287-3.128,2.995-8.321,4.6h0c-6.727,2.078-17.254,3.982-30.594,4.571-.683.029-1.363.057-2.059.08-.569.019-1.139.036-1.719.051-1.574.034-3.172.059-4.818.059s-3.246-.025-4.822-.061c-.572-.013-1.137-.032-1.7-.051-.7-.023-1.386-.051-2.073-.08C35.107,87.784,24.58,85.881,17.853,83.8h0c-5.029-1.553-7.935-3.2-8.3-4.478.567.2,1.154.39,1.757.578.061.019.122.038.183.055q.77.237,1.576.458c.2.057.409.114.616.169.3.082.616.16.928.24a138.719,138.719,0,0,0,25.308,3.6l.01,0,.006,0c2.947.175,5.957.283,9,.319.81.015,1.614.023,2.4.023,1.048,0,2.12-.013,3.206-.032,2.774-.046,5.512-.148,8.19-.308.006,0,.01,0,.015,0s.015-.006.025-.006c3.261-.2,6.417-.475,9.45-.823.011,0,.021.006.032.006.042,0,.076-.021.118-.025,3.377-.39,6.579-.869,9.551-1.426.612-.112,1.215-.228,1.812-.348.133-.027.266-.053.4-.082,5.615-1.152,10.475-2.645,13.81-4.5.183-.1.354-.2.527-.3.211-.126.413-.253.608-.382s.394-.232.561-.352C103.4,77.53,104.432,78.727,104.555,79.2Zm.025-24.829v-9.1a28.3,28.3,0,0,0,5.7-2.616v7.868C110.283,51.6,108.278,52.987,104.58,54.375Z" transform="translate(0 -3)" fill="#15c8ff"/>
</svg>
