<svg id="cpu" xmlns="http://www.w3.org/2000/svg" width="139.973" height="139.973" viewBox="0 0 139.973 139.973">
  <g id="Group_21258" data-name="Group 21258" transform="translate(57.411 57.411)">
    <g id="Group_21257" data-name="Group 21257">
      <path id="Path_16684" data-name="Path 16684" d="M232.418,210H212.734A2.734,2.734,0,0,0,210,212.734v19.684a2.734,2.734,0,0,0,2.734,2.734h19.684a2.734,2.734,0,0,0,2.734-2.734V212.734A2.734,2.734,0,0,0,232.418,210Zm-2.734,19.684H215.468V215.468h14.216Z" transform="translate(-210 -210)" fill="#15c8ff"/>
    </g>
  </g>
  <g id="Group_21260" data-name="Group 21260" transform="translate(121.383 14.763)">
    <g id="Group_21259" data-name="Group 21259">
      <path id="Path_16685" data-name="Path 16685" d="M453.3,54a9.3,9.3,0,1,0,9.3,9.3A9.305,9.305,0,0,0,453.3,54Zm0,13.122a3.827,3.827,0,1,1,3.827-3.827A3.832,3.832,0,0,1,453.3,67.122Z" transform="translate(-444 -54)" fill="#15c8ff"/>
    </g>
  </g>
  <g id="Group_21262" data-name="Group 21262" transform="translate(111.957 21.316)">
    <g id="Group_21261" data-name="Group 21261">
      <path id="Path_16686" data-name="Path 16686" d="M414.187,78.771a2.732,2.732,0,1,0,.8,1.933A2.756,2.756,0,0,0,414.187,78.771Z" transform="translate(-409.52 -77.97)" fill="#15c8ff"/>
    </g>
  </g>
  <g id="Group_21264" data-name="Group 21264" transform="translate(8.193)">
    <g id="Group_21263" data-name="Group 21263">
      <path id="Path_16687" data-name="Path 16687" d="M135.377,72.72a9.3,9.3,0,1,0,0-5.468H118.554V45.929a2.734,2.734,0,0,0-2.734-2.734h-4.374V26.784h15.316a2.734,2.734,0,1,0,0-5.468H108.712a2.734,2.734,0,0,0-2.734,2.734V43.195H94.5V26.373a9.3,9.3,0,1,0-5.468,0V43.195H67.7a2.734,2.734,0,0,0-2.734,2.734V50.3H48.559V18.182a9.295,9.295,0,1,0-5.468,0v34.86a2.734,2.734,0,0,0,2.734,2.734H64.971V67.253H48.148a9.3,9.3,0,1,0,0,5.468H64.971V94.044A2.734,2.734,0,0,0,67.7,96.778h4.374V113.19H56.763a2.734,2.734,0,1,0,0,5.468H74.813a2.734,2.734,0,0,0,2.734-2.734V96.778H89.029V113.6a9.3,9.3,0,1,0,5.468,0V96.778H115.82a2.734,2.734,0,0,0,2.734-2.734V89.67h16.412v32.121a9.295,9.295,0,1,0,5.468,0V86.936A2.734,2.734,0,0,0,137.7,84.2H118.554V72.72Zm8.884-6.561a3.827,3.827,0,1,1-3.827,3.827A3.832,3.832,0,0,1,144.261,66.159ZM45.834,13.122A3.827,3.827,0,1,1,49.661,9.3,3.832,3.832,0,0,1,45.834,13.122Zm-6.57,60.691a3.827,3.827,0,1,1,3.827-3.827A3.832,3.832,0,0,1,39.264,73.814ZM87.935,17.488a3.827,3.827,0,1,1,3.827,3.827A3.832,3.832,0,0,1,87.935,17.488Zm7.655,105a3.827,3.827,0,1,1-3.827-3.827A3.832,3.832,0,0,1,95.59,122.485Zm17.5-31.174H70.438V48.662h42.648Zm24.6,35.54a3.827,3.827,0,1,1-3.827,3.827A3.832,3.832,0,0,1,137.691,126.851Z" transform="translate(-29.969)" fill="#15c8ff"/>
    </g>
  </g>
  <g id="Group_21266" data-name="Group 21266" transform="translate(0 106.62)">
    <g id="Group_21265" data-name="Group 21265">
      <path id="Path_16688" data-name="Path 16688" d="M9.3,390a9.3,9.3,0,1,0,9.3,9.3A9.305,9.305,0,0,0,9.3,390Zm0,13.122a3.827,3.827,0,1,1,3.827-3.827A3.832,3.832,0,0,1,9.3,403.122Z" transform="translate(0 -390)" fill="#15c8ff"/>
    </g>
  </g>
  <g id="Group_21268" data-name="Group 21268" transform="translate(22.554 113.19)">
    <g id="Group_21267" data-name="Group 21267">
      <path id="Path_16689" data-name="Path 16689" d="M87.167,414.831a2.732,2.732,0,1,0,.8,1.933A2.755,2.755,0,0,0,87.167,414.831Z" transform="translate(-82.5 -414.03)" fill="#15c8ff"/>
    </g>
  </g>
</svg>
