<svg xmlns="http://www.w3.org/2000/svg" width="137.235" height="139.198" viewBox="0 0 137.235 139.198">
  <g id="developing" transform="translate(-1 -0.113)">
    <circle id="Ellipse_3005" data-name="Ellipse 3005" cx="2.213" cy="2.213" r="2.213" transform="translate(67.404 64.054)" fill="#15c8ff"/>
    <path id="Path_16673" data-name="Path 16673" d="M47.775,59.269A11.05,11.05,0,0,0,57,42.108l6.817-6.817a11.1,11.1,0,1,0-3.13-3.13l-6.817,6.817a11.047,11.047,0,0,0-16.937,7.01H31.874a6.64,6.64,0,1,0,0,4.427h5.058a11.088,11.088,0,0,0,10.844,8.854ZM69.91,19.427a6.64,6.64,0,1,1-6.64,6.64A6.649,6.649,0,0,1,69.91,19.427ZM47.775,41.562a6.64,6.64,0,1,1-6.64,6.64A6.649,6.649,0,0,1,47.775,41.562ZM25.64,50.416A2.213,2.213,0,1,1,27.854,48.2,2.216,2.216,0,0,1,25.64,50.416Z" transform="translate(21.842 18.065)" fill="#15c8ff"/>
    <circle id="Ellipse_3006" data-name="Ellipse 3006" cx="2.213" cy="2.213" r="2.213" transform="translate(89.539 41.919)" fill="#15c8ff"/>
    <path id="Path_16674" data-name="Path 16674" d="M2.195,60.211H8.4V77.919h4.427V55.784H10.186l7.072-11.317L24.33,55.784H21.685V95.627h4.427V60.211H32.32l-15.063-24.1Z" transform="translate(1.45 43.685)" fill="#15c8ff"/>
    <path id="Path_16675" data-name="Path 16675" d="M5,57H9.427V70.281H5Z" transform="translate(4.854 69.031)" fill="#15c8ff"/>
    <path id="Path_16676" data-name="Path 16676" d="M54.4,28.638h4.427V19.784H56.186L63.258,8.467,70.33,19.784H67.685V59.627h4.427V24.211H78.32L63.258.113l-15.063,24.1H54.4Z" transform="translate(57.27)" fill="#15c8ff"/>
    <path id="Path_16677" data-name="Path 16677" d="M136.055,91.728a6.321,6.321,0,0,1-4.1-9.91l1.284-1.8L121.194,67.977l-1.8,1.286a6.247,6.247,0,0,1-5.184.943,43.507,43.507,0,0,0,1.855-11.656h.035V31.989h-4.427v6.6A43.261,43.261,0,0,0,72.847,14.281H66.388a43.364,43.364,0,0,0-7.574.706L47.642,3.816,44.413,7.043a2.068,2.068,0,0,1-2.291.407,2.033,2.033,0,0,1-1.279-1.884V1H23.135V5.566a2.114,2.114,0,0,1-3.568,1.476L16.337,3.816,3.816,16.335l3.227,3.232a2.066,2.066,0,0,1,.409,2.291,2.039,2.039,0,0,1-1.886,1.277H1V40.842H5.566a2.063,2.063,0,0,1,1.908,1.337,2.04,2.04,0,0,1-.434,2.233L3.816,47.642,16.335,60.162l3.229-3.227a2.068,2.068,0,0,1,2.291-.407,2.033,2.033,0,0,1,1.279,1.884h.031A43,43,0,0,0,47.045,96.221L49.7,97.547v5.272a4.431,4.431,0,0,0,4.427,4.427h8.854v1.877l2.189.363a6.242,6.242,0,0,1,3.774,2.187H54.123A4.431,4.431,0,0,0,49.7,116.1v2.213A19.906,19.906,0,0,0,85.121,130.8a6.347,6.347,0,0,1,2.8.463,6.253,6.253,0,0,1,3.8,4.786l.367,2.191h17.033l.356-2.178a6.324,6.324,0,0,1,9.912-4.1l1.8,1.284,12.044-12.043-1.282-1.793a6.322,6.322,0,0,1,4.088-9.914l2.191-.363V92.091ZM85.112,111.674H84.074a19.746,19.746,0,0,1-2.233-4.427h3.272a4.358,4.358,0,0,0,1.4-.248,15.489,15.489,0,1,0,19.007-21.1,43.1,43.1,0,0,0,2.855-3.646,19.919,19.919,0,1,1-18.832,34.9V116.1A4.431,4.431,0,0,0,85.112,111.674Zm8.854-21.579a39.4,39.4,0,0,1-3.754,2.167l-.673.336V62.977h4.427Zm-4.427,7.453,2.652-1.326a43.656,43.656,0,0,0,9.64-6.565,11.044,11.044,0,1,1-12.291,10.95ZM16.437,53.8l-.1.1-6.26-6.262.1-.1A6.54,6.54,0,0,0,5.566,36.416H5.427V27.562h.139a6.541,6.541,0,0,0,4.608-11.125l-.1-.1,6.26-6.262.1.1A6.54,6.54,0,0,0,27.562,5.566V5.427h8.854v.139a6.543,6.543,0,0,0,11.127,4.611l.1-.1,6.1,6.1A42.932,42.932,0,0,0,45,19.992,17.687,17.687,0,1,0,24.261,47.872a42.383,42.383,0,0,0-.792,4.531,6.457,6.457,0,0,0-7.032,1.4ZM29.273,35.439a4.4,4.4,0,0,1,2.716-7.878,4.381,4.381,0,0,1,2.528.834A43.376,43.376,0,0,0,29.273,35.439Zm8.433-10.193A8.836,8.836,0,1,0,27.176,39.39a43.244,43.244,0,0,0-1.682,4.168A13.265,13.265,0,1,1,41.188,22.451a43.621,43.621,0,0,0-3.482,2.8ZM49.023,92.261a39.6,39.6,0,0,1-3.754-2.167V80.685H49.7V92.6Zm-8.181-16V86.77A38.824,38.824,0,0,1,66.388,18.708h6.459A38.824,38.824,0,0,1,98.393,86.77V58.55H85.112V102.82H76.258V80.685H62.977V102.82H54.123V76.258ZM71.831,102.82H67.4V85.112h4.427Zm2.213,8.781a10.642,10.642,0,0,0-3.393-4.354H77.21a24.294,24.294,0,0,0,1.749,4.427H74.067c-.009-.024-.013-.049-.022-.073Zm-4.427,22.208a15.513,15.513,0,0,1-15.494-15.494V116.1H85.112v2.213A15.513,15.513,0,0,1,69.618,133.808Zm64.191-28.326a10.755,10.755,0,0,0-6.273,15.151l-6.9,6.9a10.754,10.754,0,0,0-15.149,6.273H95.73a10.522,10.522,0,0,0-8.022-7.207,19.767,19.767,0,0,0,1.459-4.5,24.106,24.106,0,0,0,11.439,2.858A24.341,24.341,0,0,0,110.72,78.469a42.6,42.6,0,0,0,1.966-4.044,10.667,10.667,0,0,0,7.949-.746l6.9,6.9a10.755,10.755,0,0,0,6.275,15.151Z" transform="translate(0 1.076)" fill="#15c8ff"/>
  </g>
</svg>
