<svg id="Group_20381" data-name="Group 20381" xmlns="http://www.w3.org/2000/svg" xmlns:xlink="http://www.w3.org/1999/xlink" width="212.369" height="54.3" viewBox="0 0 212.369 54.3">
  <defs>
    <clipPath id="clip-path">
      <rect id="Rectangle_10867" data-name="Rectangle 10867" width="212.369" height="54.3" fill="none"/>
    </clipPath>
  </defs>
  <g id="Group_20380" data-name="Group 20380" clip-path="url(#clip-path)">
    <path id="Path_16077" data-name="Path 16077" d="M28.9,0a44.76,44.76,0,0,1,5.037.985A26.654,26.654,0,0,1,46.6,9.054a3.077,3.077,0,0,1-.476,4.822,3.03,3.03,0,0,1-3.943-.635A19.6,19.6,0,0,0,34.5,7.68C27.17,4.923,20.257,5.589,14.015,10.529a19.891,19.891,0,0,0-7.795,13.5c-.864,7.023.988,13.175,6.127,18.23a19.489,19.489,0,0,0,14.7,5.861A19.9,19.9,0,0,0,42.146,41a3.129,3.129,0,0,1,4.32-.375,3,3,0,0,1,.433,4.174,24.813,24.813,0,0,1-6.749,5.78A26.028,26.028,0,0,1,25.1,54.256a25.424,25.424,0,0,1-16.717-7.31A26.413,26.413,0,0,1,.645,33.7C.383,32.567.212,31.414,0,30.271v-6.14c.277-1.442.445-2.9.834-4.327A26.946,26.946,0,0,1,8.891,6.852,25.606,25.606,0,0,1,20.254.712C21.641.373,23.061.234,24.465,0Z" fill="#1b2170"/>
    <path id="Path_16078" data-name="Path 16078" d="M544.45,101.109c1.454,0,2.909-.011,4.363,0a3.587,3.587,0,0,1,3.79,3.825,16.211,16.211,0,0,1-32.281,2.112c-1.19-8.44,4.255-16.621,12.4-18.4a15.611,15.611,0,0,1,13.68,3.034c1.927,1.54,1.921,3.664-.021,5.152-.227.174-.454.348-.685.516a2.843,2.843,0,0,1-3.748-.044,8.813,8.813,0,0,0-7.555-1.693A9.392,9.392,0,0,0,531.18,112.3a8.846,8.846,0,0,0,11.092-.542,9.026,9.026,0,0,0,2.154-2.731c.311-.643.267-.72-.467-.725-1.311-.009-2.623.015-3.934-.009a3.674,3.674,0,0,1-3.637-2.68,3.577,3.577,0,0,1,3.413-4.49c1.548-.045,3.1-.008,4.649-.008Z" transform="translate(-445.691 -75.581)" fill="#46b1e5"/>
    <path id="Path_16079" data-name="Path 16079" d="M99.5,90.126q2.038,0,4.076,0c2.665,0,3.957,1.29,3.952,3.937a16.232,16.232,0,0,1-32.246,2.5c-1.373-8.018,3.353-16.114,10.959-18.5a15.6,15.6,0,0,1,14.477,2.229,3.528,3.528,0,0,1,.866,5.194,3.64,3.64,0,0,1-5.053.618,8.763,8.763,0,0,0-9.279-.716,9.4,9.4,0,0,0,1.711,17.353A9.067,9.067,0,0,0,99.26,98.175c.417-.806.385-.865-.5-.868-1.263,0-2.527,0-3.79,0a3.588,3.588,0,1,1-.116-7.167c1.548-.043,3.1-.008,4.648-.008Z" transform="translate(-64.304 -66.158)" fill="#46b1e5"/>
    <path id="Path_16080" data-name="Path 16080" d="M1003.675,152.894q0,5.174,0,10.347c0,1.333-.6,2-1.927,2.038-1.429.04-2.86.013-4.29.01-.37,0-.721-.053-.872-.471-.139-.385-.394-.308-.693-.194a12.684,12.684,0,1,1-6.156-24.419,10.2,10.2,0,0,1,6.067.883c.348.178.633.245.783-.219a.655.655,0,0,1,.722-.454c1.525,0,3.051-.021,4.576.01a1.785,1.785,0,0,1,1.788,1.979q.011,5.245,0,10.49m-7.084-.054a5.407,5.407,0,1,0-5.444,5.562,5.488,5.488,0,0,0,5.444-5.562" transform="translate(-838.533 -120.035)" fill="#46b1e5"/>
    <path id="Path_16081" data-name="Path 16081" d="M783.989,88.4a15.978,15.978,0,0,1,10.126,3.541,3.246,3.246,0,0,1-.017,5.272c-1.687,1.323-2.944,1.348-4.663.091a9.06,9.06,0,0,0-14.3,6.207,9.2,9.2,0,0,0,6.527,10.317,8.727,8.727,0,0,0,7.861-1.436,3.5,3.5,0,0,1,5.712,2.312,3.243,3.243,0,0,1-1.331,3.2,15.857,15.857,0,0,1-11.306,3.331,16.506,16.506,0,0,1-9.922-28.048A15.343,15.343,0,0,1,783.989,88.4" transform="translate(-657.936 -75.746)" fill="#46b1e5"/>
    <path id="Path_16082" data-name="Path 16082" d="M1321.816,106.961q0-6.352,0-12.7a3.442,3.442,0,0,1,3.491-3.628,3.522,3.522,0,0,1,3.448,3.618c0,1.285.011,2.569,0,3.854-.006.5.095.686.657.482a10.613,10.613,0,0,1,11.381,2.107,11.759,11.759,0,0,1,4.132,8.859c.047,3.258.013,6.518.009,9.777a3.469,3.469,0,1,1-6.936.008c-.011-3.069.024-6.138-.015-9.206a5.431,5.431,0,0,0-2.255-4.559,4.077,4.077,0,0,0-5.624.843,6.125,6.125,0,0,0-1.344,3.9q0,4.639,0,9.278a3.05,3.05,0,0,1-2.944,3.292,4.792,4.792,0,0,1-1.843-.143,2.926,2.926,0,0,1-2.15-2.865q-.009-6.459,0-12.917" transform="translate(-1132.578 -77.656)" fill="#46b1e5"/>
    <path id="Path_16083" data-name="Path 16083" d="M405.149,74.477c-.11,7.2-2.033,13.428-6.291,18.863A5.251,5.251,0,0,1,397,95.079a3.429,3.429,0,0,1-4.226-1.056,4.731,4.731,0,0,1,.184-6.166,19.681,19.681,0,0,0,4.452-10.722A20.622,20.622,0,0,0,392.5,61.026a4.752,4.752,0,0,1,.121-6.221,3.57,3.57,0,0,1,5.308.212,29.645,29.645,0,0,1,7.084,16.9c.1.968.041,1.948.137,2.561" transform="translate(-335.365 -46.031)" fill="#0f51a8"/>
    <path id="Path_16084" data-name="Path 16084" d="M1189.929,148.855c-.644,0-1.29-.034-1.93.01a.967.967,0,0,1-1.192-.791,1.277,1.277,0,0,0-1.508-.908,1.35,1.35,0,0,0-1.141,1.276.778.778,0,0,0,.6.914c.96.28,1.925.548,2.873.866a10.017,10.017,0,0,1,4.645,2.688,7.741,7.741,0,0,1,.039,9.927,8.88,8.88,0,0,1-13.868-.355,7.608,7.608,0,0,1-1.176-2.429,1.66,1.66,0,0,1,1.524-2.23c1.571-.058,3.146-.012,4.719-.021.479,0,.562.319.665.684a1.393,1.393,0,0,0,2.661.058.893.893,0,0,0-.628-1.279c-1.039-.348-2.094-.649-3.133-1-.564-.188-1.113-.422-1.662-.65-5.678-2.356-5.579-9.655-1.641-12.866,4.633-3.778,11.7-2.167,13.8,3.245a5.413,5.413,0,0,1,.244.819,1.6,1.6,0,0,1-1.531,2.022c-.784.043-1.573.008-2.359.008Z" transform="translate(-1008.469 -120.551)" fill="#46b1e5"/>
    <path id="Path_16085" data-name="Path 16085" d="M341.042,121.174a18.057,18.057,0,0,1-3.765,11.213,3.649,3.649,0,0,1-3.528,1.735,3.726,3.726,0,0,1-3.112-2.887,4.682,4.682,0,0,1,.749-4.326,11.9,11.9,0,0,0,.931-1.347,8.936,8.936,0,0,0-1.027-10.311A4.728,4.728,0,0,1,331.54,109a3.4,3.4,0,0,1,5.068.127,18.024,18.024,0,0,1,4.3,9.7c.05.4.1.8.128,1.2.022.379,0,.76,0,1.141" transform="translate(-282.953 -92.477)" fill="#0f51a8"/>
  </g>
</svg>
