<svg xmlns="http://www.w3.org/2000/svg" xmlns:xlink="http://www.w3.org/1999/xlink" width="93.092" height="93.092" viewBox="0 0 93.092 93.092">
  <defs>
    <clipPath id="clip-path">
      <path id="path1305" d="M0-682.665H93.092v93.092H0Z" transform="translate(0 682.665)"/>
    </clipPath>
  </defs>
  <g id="g1275" transform="translate(0 682.665)">
    <g id="g1277" transform="translate(69.866 -624.344)">
      <path id="path1279" d="M0-94.228l8.59-14.878" transform="translate(0 109.106)" fill="rgba(0,0,0,0)" stroke="#15c8ff" stroke-linecap="round" stroke-linejoin="round" stroke-miterlimit="10" stroke-width="4"/>
    </g>
    <g id="g1281" transform="translate(34.886 -602.597)">
      <path id="path1283" d="M0,0H17.49" fill="rgba(0,0,0,0)" stroke="#15c8ff" stroke-linecap="round" stroke-linejoin="round" stroke-miterlimit="10" stroke-width="4"/>
    </g>
    <g id="g1285" transform="translate(11.917 -629.054)">
      <path id="path1287" d="M0,0,8.682,15.037" fill="rgba(0,0,0,0)" stroke="#15c8ff" stroke-linecap="round" stroke-linejoin="round" stroke-miterlimit="10" stroke-width="4"/>
    </g>
    <g id="g1289" transform="translate(14.644 -663.426)">
      <path id="path1291" d="M-56.743,0-65.7,15.518" transform="translate(65.703)" fill="rgba(0,0,0,0)" stroke="#15c8ff" stroke-linecap="round" stroke-linejoin="round" stroke-miterlimit="10" stroke-width="4"/>
    </g>
    <g id="g1293" transform="translate(40.716 -669.641)">
      <path id="path1295" d="M-110.767,0h-17.49" transform="translate(128.257)" fill="rgba(0,0,0,0)" stroke="#15c8ff" stroke-linecap="round" stroke-linejoin="round" stroke-miterlimit="10" stroke-width="4"/>
    </g>
    <g id="g1297" transform="translate(72.526 -658.165)">
      <path id="path1299" d="M-55.171-95.56l-8.711-15.089" transform="translate(63.883 110.649)" fill="rgba(0,0,0,0)" stroke="#15c8ff" stroke-linecap="round" stroke-linejoin="round" stroke-miterlimit="10" stroke-width="4"/>
    </g>
    <g id="g1301" transform="translate(0 -682.665)">
      <g id="g1303" clip-path="url(#clip-path)">
        <g id="g1309" transform="translate(1.364 39.258)">
          <path id="path1311" d="M-92.306-46.154a7.287,7.287,0,0,1-7.288,7.288,7.288,7.288,0,0,1-7.287-7.288,7.287,7.287,0,0,1,7.287-7.288A7.287,7.287,0,0,1-92.306-46.154Z" transform="translate(106.881 53.441)" fill="rgba(0,0,0,0)" stroke="#15c8ff" stroke-linecap="round" stroke-linejoin="round" stroke-miterlimit="10" stroke-width="4"/>
        </g>
        <g id="g1313" transform="translate(77.153 39.258)">
          <path id="path1315" d="M-92.306-46.154a7.288,7.288,0,0,1-7.288,7.288,7.287,7.287,0,0,1-7.287-7.288,7.287,7.287,0,0,1,7.287-7.288A7.288,7.288,0,0,1-92.306-46.154Z" transform="translate(106.881 53.441)" fill="rgba(0,0,0,0)" stroke="#15c8ff" stroke-linecap="round" stroke-linejoin="round" stroke-miterlimit="10" stroke-width="4"/>
        </g>
        <g id="g1317" transform="translate(58.206 5.736)">
          <path id="path1319" d="M-92.307-46.154a7.288,7.288,0,0,1-7.288,7.288,7.288,7.288,0,0,1-7.288-7.288,7.288,7.288,0,0,1,7.288-7.288A7.288,7.288,0,0,1-92.307-46.154Z" transform="translate(106.882 53.441)" fill="rgba(0,0,0,0)" stroke="#15c8ff" stroke-linecap="round" stroke-linejoin="round" stroke-miterlimit="10" stroke-width="4"/>
        </g>
        <g id="g1321" transform="translate(20.311 5.736)">
          <path id="path1323" d="M-92.307-46.154a7.288,7.288,0,0,1-7.288,7.288,7.288,7.288,0,0,1-7.288-7.288,7.288,7.288,0,0,1,7.288-7.288A7.288,7.288,0,0,1-92.307-46.154Z" transform="translate(106.882 53.441)" fill="rgba(0,0,0,0)" stroke="#15c8ff" stroke-linecap="round" stroke-linejoin="round" stroke-miterlimit="10" stroke-width="4"/>
        </g>
        <g id="g1325" transform="translate(58.206 72.781)">
          <path id="path1327" d="M-92.307-46.154a7.288,7.288,0,0,1-7.288,7.288,7.288,7.288,0,0,1-7.288-7.288,7.288,7.288,0,0,1,7.288-7.288A7.288,7.288,0,0,1-92.307-46.154Z" transform="translate(106.882 53.441)" fill="rgba(0,0,0,0)" stroke="#15c8ff" stroke-linecap="round" stroke-linejoin="round" stroke-miterlimit="10" stroke-width="4"/>
        </g>
        <g id="g1329" transform="translate(20.311 72.781)">
          <path id="path1331" d="M-92.307-46.154a7.288,7.288,0,0,1-7.288,7.288,7.288,7.288,0,0,1-7.288-7.288,7.288,7.288,0,0,1,7.288-7.288A7.288,7.288,0,0,1-92.307-46.154Z" transform="translate(106.882 53.441)" fill="rgba(0,0,0,0)" stroke="#15c8ff" stroke-linecap="round" stroke-linejoin="round" stroke-miterlimit="10" stroke-width="4"/>
        </g>
      </g>
    </g>
  </g>
</svg>
