<svg id="server" xmlns="http://www.w3.org/2000/svg" width="93" height="93" viewBox="0 0 93 93">
  <g id="Group_21160" data-name="Group 21160">
    <g id="Group_21159" data-name="Group 21159">
      <path id="Path_16669" data-name="Path 16669" d="M88.35,27.9A4.65,4.65,0,0,0,93,23.25V4.65A4.65,4.65,0,0,0,88.35,0H4.65A4.65,4.65,0,0,0,0,4.65v18.6A4.65,4.65,0,0,0,4.65,27.9H9.3v4.65H4.65A4.65,4.65,0,0,0,0,37.2V55.8a4.65,4.65,0,0,0,4.65,4.65H9.3V65.1H4.65A4.65,4.65,0,0,0,0,69.75v18.6A4.65,4.65,0,0,0,4.65,93h83.7A4.65,4.65,0,0,0,93,88.35V69.75a4.65,4.65,0,0,0-4.65-4.65H83.7V60.45h4.65A4.65,4.65,0,0,0,93,55.8V37.2a4.65,4.65,0,0,0-4.65-4.65H83.7V27.9Zm0,40.3a1.55,1.55,0,0,1,1.55,1.55v18.6a1.55,1.55,0,0,1-1.55,1.55H4.65A1.55,1.55,0,0,1,3.1,88.35V69.75A1.55,1.55,0,0,1,4.65,68.2ZM12.4,65.1V60.45h3.1V65.1Zm6.2,0V60.45H74.4V65.1Zm58.9,0V60.45h3.1V65.1ZM88.35,35.65A1.55,1.55,0,0,1,89.9,37.2V55.8a1.55,1.55,0,0,1-1.55,1.55H4.65A1.55,1.55,0,0,1,3.1,55.8V37.2a1.55,1.55,0,0,1,1.55-1.55ZM12.4,32.55V27.9h3.1v4.65Zm6.2,0V27.9H74.4v4.65Zm58.9,0V27.9h3.1v4.65ZM4.65,24.8A1.55,1.55,0,0,1,3.1,23.25V4.65A1.55,1.55,0,0,1,4.65,3.1h83.7A1.55,1.55,0,0,1,89.9,4.65v18.6a1.55,1.55,0,0,1-1.55,1.55Z" fill="#15c8ff"/>
    </g>
  </g>
  <g id="Group_21162" data-name="Group 21162" transform="translate(9.279 9.299)">
    <g id="Group_21161" data-name="Group 21161">
      <path id="Path_16670" data-name="Path 16670" d="M88.215,51.095H56.929a4.65,4.65,0,1,0,0,3.1H88.215a1.55,1.55,0,1,0,0-3.1Zm-35.65,3.1a1.55,1.55,0,1,1,1.55-1.55A1.55,1.55,0,0,1,52.565,54.195Z" transform="translate(-47.894 -47.994)" fill="#15c8ff"/>
    </g>
  </g>
  <g id="Group_21164" data-name="Group 21164" transform="translate(68.2 6.2)">
    <g id="Group_21163" data-name="Group 21163">
      <rect id="Rectangle_11239" data-name="Rectangle 11239" width="3" height="3" transform="translate(-0.2 -0.2)" fill="#15c8ff"/>
    </g>
  </g>
  <g id="Group_21166" data-name="Group 21166" transform="translate(74.4 6.2)">
    <g id="Group_21165" data-name="Group 21165">
      <rect id="Rectangle_11240" data-name="Rectangle 11240" width="4" height="3" transform="translate(-0.4 -0.2)" fill="#15c8ff"/>
    </g>
  </g>
  <g id="Group_21168" data-name="Group 21168" transform="translate(80.6 6.2)">
    <g id="Group_21167" data-name="Group 21167">
      <rect id="Rectangle_11241" data-name="Rectangle 11241" width="3" height="3" transform="translate(0.4 -0.2)" fill="#15c8ff"/>
    </g>
  </g>
  <g id="Group_21170" data-name="Group 21170" transform="translate(62 6.2)">
    <g id="Group_21169" data-name="Group 21169">
      <rect id="Rectangle_11242" data-name="Rectangle 11242" width="3" height="3" transform="translate(0 -0.2)" fill="#15c8ff"/>
    </g>
  </g>
  <g id="Group_21172" data-name="Group 21172" transform="translate(55.8 6.2)">
    <g id="Group_21171" data-name="Group 21171">
      <rect id="Rectangle_11243" data-name="Rectangle 11243" width="3" height="3" transform="translate(0.2 -0.2)" fill="#15c8ff"/>
    </g>
  </g>
  <g id="Group_21174" data-name="Group 21174" transform="translate(68.2 12.4)">
    <g id="Group_21173" data-name="Group 21173">
      <rect id="Rectangle_11244" data-name="Rectangle 11244" width="3" height="3" transform="translate(-0.2 -0.399)" fill="#15c8ff"/>
    </g>
  </g>
  <g id="Group_21176" data-name="Group 21176" transform="translate(74.4 12.4)">
    <g id="Group_21175" data-name="Group 21175">
      <rect id="Rectangle_11245" data-name="Rectangle 11245" width="4" height="3" transform="translate(-0.4 -0.399)" fill="#15c8ff"/>
    </g>
  </g>
  <g id="Group_21178" data-name="Group 21178" transform="translate(80.6 12.4)">
    <g id="Group_21177" data-name="Group 21177">
      <rect id="Rectangle_11246" data-name="Rectangle 11246" width="3" height="3" transform="translate(0.4 -0.399)" fill="#15c8ff"/>
    </g>
  </g>
  <g id="Group_21180" data-name="Group 21180" transform="translate(62 12.4)">
    <g id="Group_21179" data-name="Group 21179">
      <rect id="Rectangle_11247" data-name="Rectangle 11247" width="3" height="3" transform="translate(0 -0.399)" fill="#15c8ff"/>
    </g>
  </g>
  <g id="Group_21182" data-name="Group 21182" transform="translate(55.8 12.4)">
    <g id="Group_21181" data-name="Group 21181">
      <rect id="Rectangle_11248" data-name="Rectangle 11248" width="3" height="3" transform="translate(0.2 -0.399)" fill="#15c8ff"/>
    </g>
  </g>
  <g id="Group_21184" data-name="Group 21184" transform="translate(68.2 18.6)">
    <g id="Group_21183" data-name="Group 21183">
      <rect id="Rectangle_11249" data-name="Rectangle 11249" width="3" height="3" transform="translate(-0.2 0.399)" fill="#15c8ff"/>
    </g>
  </g>
  <g id="Group_21186" data-name="Group 21186" transform="translate(74.4 18.6)">
    <g id="Group_21185" data-name="Group 21185">
      <rect id="Rectangle_11250" data-name="Rectangle 11250" width="4" height="3" transform="translate(-0.4 0.399)" fill="#15c8ff"/>
    </g>
  </g>
  <g id="Group_21188" data-name="Group 21188" transform="translate(80.6 18.6)">
    <g id="Group_21187" data-name="Group 21187">
      <rect id="Rectangle_11251" data-name="Rectangle 11251" width="3" height="3" transform="translate(0.4 0.399)" fill="#15c8ff"/>
    </g>
  </g>
  <g id="Group_21190" data-name="Group 21190" transform="translate(62 18.6)">
    <g id="Group_21189" data-name="Group 21189">
      <rect id="Rectangle_11252" data-name="Rectangle 11252" width="3" height="3" transform="translate(0 0.399)" fill="#15c8ff"/>
    </g>
  </g>
  <g id="Group_21192" data-name="Group 21192" transform="translate(55.8 18.6)">
    <g id="Group_21191" data-name="Group 21191">
      <rect id="Rectangle_11253" data-name="Rectangle 11253" width="3" height="3" transform="translate(0.2 0.399)" fill="#15c8ff"/>
    </g>
  </g>
  <g id="Group_21194" data-name="Group 21194" transform="translate(9.279 41.849)">
    <g id="Group_21193" data-name="Group 21193">
      <path id="Path_16671" data-name="Path 16671" d="M88.215,219.095H56.929a4.65,4.65,0,1,0,0,3.1H88.215a1.55,1.55,0,0,0,0-3.1Zm-35.65,3.1a1.55,1.55,0,1,1,1.55-1.55A1.55,1.55,0,0,1,52.565,222.195Z" transform="translate(-47.894 -215.994)" fill="#15c8ff"/>
    </g>
  </g>
  <g id="Group_21196" data-name="Group 21196" transform="translate(68.2 38.75)">
    <g id="Group_21195" data-name="Group 21195">
      <rect id="Rectangle_11254" data-name="Rectangle 11254" width="3" height="3" transform="translate(-0.2 0.25)" fill="#15c8ff"/>
    </g>
  </g>
  <g id="Group_21198" data-name="Group 21198" transform="translate(74.4 38.75)">
    <g id="Group_21197" data-name="Group 21197">
      <rect id="Rectangle_11255" data-name="Rectangle 11255" width="4" height="3" transform="translate(-0.4 0.25)" fill="#15c8ff"/>
    </g>
  </g>
  <g id="Group_21200" data-name="Group 21200" transform="translate(80.6 38.75)">
    <g id="Group_21199" data-name="Group 21199">
      <rect id="Rectangle_11256" data-name="Rectangle 11256" width="3" height="3" transform="translate(0.4 0.25)" fill="#15c8ff"/>
    </g>
  </g>
  <g id="Group_21202" data-name="Group 21202" transform="translate(62 38.75)">
    <g id="Group_21201" data-name="Group 21201">
      <rect id="Rectangle_11257" data-name="Rectangle 11257" width="3" height="3" transform="translate(0 0.25)" fill="#15c8ff"/>
    </g>
  </g>
  <g id="Group_21204" data-name="Group 21204" transform="translate(55.8 38.75)">
    <g id="Group_21203" data-name="Group 21203">
      <rect id="Rectangle_11258" data-name="Rectangle 11258" width="3" height="3" transform="translate(0.2 0.25)" fill="#15c8ff"/>
    </g>
  </g>
  <g id="Group_21206" data-name="Group 21206" transform="translate(68.2 44.95)">
    <g id="Group_21205" data-name="Group 21205">
      <rect id="Rectangle_11259" data-name="Rectangle 11259" width="3" height="3" transform="translate(-0.2 0.05)" fill="#15c8ff"/>
    </g>
  </g>
  <g id="Group_21208" data-name="Group 21208" transform="translate(74.4 44.95)">
    <g id="Group_21207" data-name="Group 21207">
      <rect id="Rectangle_11260" data-name="Rectangle 11260" width="4" height="3" transform="translate(-0.4 0.05)" fill="#15c8ff"/>
    </g>
  </g>
  <g id="Group_21210" data-name="Group 21210" transform="translate(80.6 44.95)">
    <g id="Group_21209" data-name="Group 21209">
      <rect id="Rectangle_11261" data-name="Rectangle 11261" width="3" height="3" transform="translate(0.4 0.05)" fill="#15c8ff"/>
    </g>
  </g>
  <g id="Group_21212" data-name="Group 21212" transform="translate(62 44.95)">
    <g id="Group_21211" data-name="Group 21211">
      <rect id="Rectangle_11262" data-name="Rectangle 11262" width="3" height="3" transform="translate(0 0.05)" fill="#15c8ff"/>
    </g>
  </g>
  <g id="Group_21214" data-name="Group 21214" transform="translate(55.8 44.95)">
    <g id="Group_21213" data-name="Group 21213">
      <rect id="Rectangle_11263" data-name="Rectangle 11263" width="3" height="3" transform="translate(0.2 0.05)" fill="#15c8ff"/>
    </g>
  </g>
  <g id="Group_21216" data-name="Group 21216" transform="translate(68.2 51.15)">
    <g id="Group_21215" data-name="Group 21215">
      <rect id="Rectangle_11264" data-name="Rectangle 11264" width="3" height="3" transform="translate(-0.2 -0.149)" fill="#15c8ff"/>
    </g>
  </g>
  <g id="Group_21218" data-name="Group 21218" transform="translate(74.4 51.15)">
    <g id="Group_21217" data-name="Group 21217">
      <rect id="Rectangle_11265" data-name="Rectangle 11265" width="4" height="3" transform="translate(-0.4 -0.149)" fill="#15c8ff"/>
    </g>
  </g>
  <g id="Group_21220" data-name="Group 21220" transform="translate(80.6 51.15)">
    <g id="Group_21219" data-name="Group 21219">
      <rect id="Rectangle_11266" data-name="Rectangle 11266" width="3" height="3" transform="translate(0.4 -0.149)" fill="#15c8ff"/>
    </g>
  </g>
  <g id="Group_21222" data-name="Group 21222" transform="translate(62 51.15)">
    <g id="Group_21221" data-name="Group 21221">
      <rect id="Rectangle_11267" data-name="Rectangle 11267" width="3" height="3" transform="translate(0 -0.149)" fill="#15c8ff"/>
    </g>
  </g>
  <g id="Group_21224" data-name="Group 21224" transform="translate(55.8 51.15)">
    <g id="Group_21223" data-name="Group 21223">
      <rect id="Rectangle_11268" data-name="Rectangle 11268" width="3" height="3" transform="translate(0.2 -0.149)" fill="#15c8ff"/>
    </g>
  </g>
  <g id="Group_21226" data-name="Group 21226" transform="translate(9.279 74.399)">
    <g id="Group_21225" data-name="Group 21225">
      <path id="Path_16672" data-name="Path 16672" d="M88.215,387.095H56.929a4.65,4.65,0,1,0,0,3.1H88.215a1.55,1.55,0,1,0,0-3.1Zm-35.65,3.1a1.55,1.55,0,1,1,1.55-1.55A1.55,1.55,0,0,1,52.565,390.195Z" transform="translate(-47.894 -383.994)" fill="#15c8ff"/>
    </g>
  </g>
  <g id="Group_21228" data-name="Group 21228" transform="translate(68.2 71.3)">
    <g id="Group_21227" data-name="Group 21227">
      <rect id="Rectangle_11269" data-name="Rectangle 11269" width="3" height="3" transform="translate(-0.2 -0.3)" fill="#15c8ff"/>
    </g>
  </g>
  <g id="Group_21230" data-name="Group 21230" transform="translate(74.4 71.3)">
    <g id="Group_21229" data-name="Group 21229">
      <rect id="Rectangle_11270" data-name="Rectangle 11270" width="4" height="3" transform="translate(-0.4 -0.3)" fill="#15c8ff"/>
    </g>
  </g>
  <g id="Group_21232" data-name="Group 21232" transform="translate(80.6 71.3)">
    <g id="Group_21231" data-name="Group 21231">
      <rect id="Rectangle_11271" data-name="Rectangle 11271" width="3" height="3" transform="translate(0.4 -0.3)" fill="#15c8ff"/>
    </g>
  </g>
  <g id="Group_21234" data-name="Group 21234" transform="translate(62 71.3)">
    <g id="Group_21233" data-name="Group 21233">
      <rect id="Rectangle_11272" data-name="Rectangle 11272" width="3" height="3" transform="translate(0 -0.3)" fill="#15c8ff"/>
    </g>
  </g>
  <g id="Group_21236" data-name="Group 21236" transform="translate(55.8 71.3)">
    <g id="Group_21235" data-name="Group 21235">
      <rect id="Rectangle_11273" data-name="Rectangle 11273" width="3" height="3" transform="translate(0.2 -0.3)" fill="#15c8ff"/>
    </g>
  </g>
  <g id="Group_21238" data-name="Group 21238" transform="translate(68.2 77.5)">
    <g id="Group_21237" data-name="Group 21237">
      <rect id="Rectangle_11274" data-name="Rectangle 11274" width="3" height="3" transform="translate(-0.2 0.5)" fill="#15c8ff"/>
    </g>
  </g>
  <g id="Group_21240" data-name="Group 21240" transform="translate(74.4 77.5)">
    <g id="Group_21239" data-name="Group 21239">
      <rect id="Rectangle_11275" data-name="Rectangle 11275" width="4" height="3" transform="translate(-0.4 0.5)" fill="#15c8ff"/>
    </g>
  </g>
  <g id="Group_21242" data-name="Group 21242" transform="translate(80.6 77.5)">
    <g id="Group_21241" data-name="Group 21241">
      <rect id="Rectangle_11276" data-name="Rectangle 11276" width="3" height="3" transform="translate(0.4 0.5)" fill="#15c8ff"/>
    </g>
  </g>
  <g id="Group_21244" data-name="Group 21244" transform="translate(62 77.5)">
    <g id="Group_21243" data-name="Group 21243">
      <rect id="Rectangle_11277" data-name="Rectangle 11277" width="3" height="3" transform="translate(0 0.5)" fill="#15c8ff"/>
    </g>
  </g>
  <g id="Group_21246" data-name="Group 21246" transform="translate(55.8 77.5)">
    <g id="Group_21245" data-name="Group 21245">
      <rect id="Rectangle_11278" data-name="Rectangle 11278" width="3" height="3" transform="translate(0.2 0.5)" fill="#15c8ff"/>
    </g>
  </g>
  <g id="Group_21248" data-name="Group 21248" transform="translate(68.2 83.7)">
    <g id="Group_21247" data-name="Group 21247">
      <rect id="Rectangle_11279" data-name="Rectangle 11279" width="3" height="3" transform="translate(-0.2 0.3)" fill="#15c8ff"/>
    </g>
  </g>
  <g id="Group_21250" data-name="Group 21250" transform="translate(74.4 83.7)">
    <g id="Group_21249" data-name="Group 21249">
      <rect id="Rectangle_11280" data-name="Rectangle 11280" width="4" height="3" transform="translate(-0.4 0.3)" fill="#15c8ff"/>
    </g>
  </g>
  <g id="Group_21252" data-name="Group 21252" transform="translate(80.6 83.7)">
    <g id="Group_21251" data-name="Group 21251">
      <rect id="Rectangle_11281" data-name="Rectangle 11281" width="3" height="3" transform="translate(0.4 0.3)" fill="#15c8ff"/>
    </g>
  </g>
  <g id="Group_21254" data-name="Group 21254" transform="translate(62 83.7)">
    <g id="Group_21253" data-name="Group 21253">
      <rect id="Rectangle_11282" data-name="Rectangle 11282" width="3" height="3" transform="translate(0 0.3)" fill="#15c8ff"/>
    </g>
  </g>
  <g id="Group_21256" data-name="Group 21256" transform="translate(55.8 83.7)">
    <g id="Group_21255" data-name="Group 21255">
      <rect id="Rectangle_11283" data-name="Rectangle 11283" width="3" height="3" transform="translate(0.2 0.3)" fill="#15c8ff"/>
    </g>
  </g>
</svg>
