<svg xmlns="http://www.w3.org/2000/svg" width="77.876" height="86.68" viewBox="0 0 77.876 86.68">
  <g id="support" transform="translate(-26)">
    <g id="Group_21154" data-name="Group 21154" transform="translate(81.868 67.041)">
      <g id="Group_21153" data-name="Group 21153">
        <path id="Path_16598" data-name="Path 16598" d="M357.693,396a1.693,1.693,0,1,0,1.693,1.693A1.694,1.694,0,0,0,357.693,396Z" transform="translate(-356 -396)" fill="#15c8ff"/>
      </g>
    </g>
    <g id="Group_21156" data-name="Group 21156" transform="translate(26)">
      <g id="Group_21155" data-name="Group 21155" transform="translate(0)">
        <path id="Path_16599" data-name="Path 16599" d="M87.729,61.567l-8.047-2.682-2.889-5.778A18.542,18.542,0,0,0,81.812,43.3l.36-2.159h3.081a5.085,5.085,0,0,0,5.079-5.079V25.394a25.394,25.394,0,1,0-50.789,0V36.06a5.087,5.087,0,0,0,3.386,4.788v1.984a5.085,5.085,0,0,0,5.079,5.079H49.5a18.366,18.366,0,0,0,2.84,4.4c.24.276.49.543.746.8l-2.887,5.774-8.047,2.682C32.791,64.687,26,74.536,26,84.987a1.693,1.693,0,0,0,1.693,1.693h74.49a1.693,1.693,0,0,0,1.693-1.693C103.876,74.536,97.086,64.687,87.729,61.567ZM86.947,36.06a1.7,1.7,0,0,1-1.693,1.693H82.67c.43-3.333.717-6.881.832-10.374,0-.1.006-.194.009-.291h3.435ZM44.623,37.753A1.7,1.7,0,0,1,42.93,36.06V27.087h3.436q.008.265.018.533c0,.006,0,.012,0,.018v0c.119,3.4.4,6.853.822,10.113H44.623Zm3.386,6.772a1.7,1.7,0,0,1-1.693-1.693V41.139H47.7l.36,2.16c.069.411.153.82.251,1.226ZM46.318,23.7H42.994a22.009,22.009,0,0,1,43.888,0H83.558a17.147,17.147,0,0,0-17.1-16.93h-3.03A17.147,17.147,0,0,0,46.318,23.7Zm17.1-13.544h3.03A13.766,13.766,0,0,1,80.175,23.94c0,.533,0,1-.013,1.419,0,.005,0,.011,0,.017l-2.118-.3a27.2,27.2,0,0,1-15.295-7.647,1.693,1.693,0,0,0-1.2-.5A15.316,15.316,0,0,0,49.776,22.5,13.762,13.762,0,0,1,63.423,10.158Zm-11.6,34.367c-.847-2.819-1.817-11.115-2.032-16.431l2.279-3.038a11.916,11.916,0,0,1,8.812-4.721,30.622,30.622,0,0,0,16.682,8.09l2.492.356c-.167,3.536-.507,7.084-.995,10.347v0c-.155,1.049-.277,1.724-.589,3.61-.9,5.378-4.909,10.241-10.206,11.565a13.32,13.32,0,0,1-14.953-6.4h3.451A5.087,5.087,0,0,0,61.552,51.3h3.386a5.079,5.079,0,0,0,0-10.158H61.552a5.081,5.081,0,0,0-4.791,3.386ZM61.41,57.733a16.981,16.981,0,0,0,6.3.142l-2.991,3.164Zm.978,5.767-5.37,5.679a64.5,64.5,0,0,1-3.79-8.789l2.016-4.033Zm11.958-7.717,2.3,4.606a64.488,64.488,0,0,1-3.791,8.792L67.11,63.433ZM59.859,46.218a1.693,1.693,0,0,1,1.693-1.693h3.386a1.693,1.693,0,0,1,0,3.386H61.552A1.7,1.7,0,0,1,59.859,46.218ZM29.454,83.294c.671-8.387,6.252-16.01,13.764-18.515L50.344,62.4a67.866,67.866,0,0,0,4.819,10.452l.009.017h0a67.883,67.883,0,0,0,4.634,7.076l2.083,3.343Zm35.484-1.509-2.3-3.686q-.039-.062-.082-.12a64.551,64.551,0,0,1-3.815-5.7l6.038-6.385,6.362,6.362a64.483,64.483,0,0,1-3.828,5.722C67.234,78.088,67.351,77.914,64.938,81.785Zm3.049,1.509,2.083-3.343a67.858,67.858,0,0,0,4.666-7.133l.025-.045,0-.005A67.811,67.811,0,0,0,79.532,62.4l7.126,2.375c7.512,2.5,13.093,10.128,13.764,18.515H67.987Z" transform="translate(-26)" fill="#15c8ff"/>
      </g>
    </g>
    <g id="Group_21158" data-name="Group 21158" transform="translate(87.817 70.273)">
      <g id="Group_21157" data-name="Group 21157">
        <path id="Path_16600" data-name="Path 16600" d="M398.657,421.258a16.926,16.926,0,0,0-4.793-5.818,1.693,1.693,0,1,0-2.065,2.684,13.521,13.521,0,0,1,3.828,4.648,1.693,1.693,0,0,0,3.029-1.513Z" transform="translate(-391.139 -415.088)" fill="#15c8ff"/>
      </g>
    </g>
  </g>
</svg>
