<svg xmlns="http://www.w3.org/2000/svg" width="91.321" height="91.321" viewBox="0 0 91.321 91.321">
  <g id="dashboard" transform="translate(-1 -1)">
    <path id="Path_16656" data-name="Path 16656" d="M83.483,50.387V21.5A10.3,10.3,0,1,0,71.7,11.31H1V70.227H45.262a23.551,23.551,0,1,0,38.221-19.84ZM82.01,3.946a7.365,7.365,0,1,1-7.365,7.365A7.373,7.373,0,0,1,82.01,3.946ZM3.946,14.256H72.134a10.3,10.3,0,0,0,1.631,3.218l-9.008,9.008a4.265,4.265,0,0,0-3.787,0L58,23.515a4.378,4.378,0,0,0,.442-1.894,4.419,4.419,0,0,0-8.837,0,4.346,4.346,0,0,0,.443,1.893L42.663,30.9a4.377,4.377,0,0,0-1.894-.442,4.419,4.419,0,1,0,4.419,4.419,4.346,4.346,0,0,0-.443-1.893L52.131,25.6a4.271,4.271,0,0,0,3.787,0l2.968,2.968a4.377,4.377,0,0,0-.442,1.894,4.419,4.419,0,0,0,8.837,0,4.346,4.346,0,0,0-.443-1.893l9.01-9.008a10.247,10.247,0,0,0,4.69,1.947V48.378a23.423,23.423,0,0,0-29.458,4.841V46.66H42.242V64.335h3.376a23.628,23.628,0,0,0-.355,2.946H3.946ZM62.862,28.985a1.473,1.473,0,1,1-1.473,1.473A1.474,1.474,0,0,1,62.862,28.985Zm-10.31-7.365a1.473,1.473,0,1,1,1.473,1.473A1.474,1.474,0,0,1,52.552,21.621ZM42.242,34.877A1.473,1.473,0,1,1,40.769,33.4,1.474,1.474,0,0,1,42.242,34.877Zm26.512,45.66A11.783,11.783,0,1,1,80.537,68.754,11.8,11.8,0,0,1,68.754,80.537ZM48.133,57.37a23.389,23.389,0,0,0-1.751,4.02H45.187V49.606h2.946Zm19.148-9.162V54.1A14.7,14.7,0,0,0,55.337,74.8l-5.11,2.95A20.55,20.55,0,0,1,67.281,48.208Zm1.473,41.166a20.61,20.61,0,0,1-17.068-9.066l5.13-2.962a14.681,14.681,0,0,0,23.876,0l5.13,2.962A20.61,20.61,0,0,1,68.754,89.375ZM87.28,77.749l-5.11-2.95A14.7,14.7,0,0,0,70.227,54.1V48.208A20.55,20.55,0,0,1,87.28,77.749Z" transform="translate(0 0)" fill="#15c8ff"/>
    <path id="Path_16657" data-name="Path 16657" d="M49.837,41a8.837,8.837,0,1,0,8.837,8.837A8.846,8.846,0,0,0,49.837,41Zm0,14.729a5.892,5.892,0,1,1,5.892-5.892A5.9,5.9,0,0,1,49.837,55.729Z" transform="translate(18.916 18.916)" fill="#15c8ff"/>
    <path id="Path_16658" data-name="Path 16658" d="M5,12H7.946v2.946H5Z" transform="translate(1.892 5.202)" fill="#15c8ff"/>
    <path id="Path_16659" data-name="Path 16659" d="M9,12H29.621v2.946H9Z" transform="translate(3.783 5.202)" fill="#15c8ff"/>
    <path id="Path_16660" data-name="Path 16660" d="M5,16H7.946v2.946H5Z" transform="translate(1.892 7.094)" fill="#15c8ff"/>
    <path id="Path_16661" data-name="Path 16661" d="M9,16H29.621v2.946H9Z" transform="translate(3.783 7.094)" fill="#15c8ff"/>
    <path id="Path_16662" data-name="Path 16662" d="M5,20H7.946v2.946H5Z" transform="translate(1.892 8.985)" fill="#15c8ff"/>
    <path id="Path_16663" data-name="Path 16663" d="M9,20H29.621v2.946H9Z" transform="translate(3.783 8.985)" fill="#15c8ff"/>
    <path id="Path_16664" data-name="Path 16664" d="M5,24H7.946v2.946H5Z" transform="translate(1.892 10.877)" fill="#15c8ff"/>
    <path id="Path_16665" data-name="Path 16665" d="M9,24H29.621v2.946H9Z" transform="translate(3.783 10.877)" fill="#15c8ff"/>
    <path id="Path_16666" data-name="Path 16666" d="M5,48.729h8.837V34H5ZM7.946,36.946h2.946v8.837H7.946Z" transform="translate(1.892 15.606)" fill="#15c8ff"/>
    <path id="Path_16667" data-name="Path 16667" d="M13,47.783h8.837V36H13Zm2.946-8.837h2.946v5.892H15.946Z" transform="translate(5.675 16.552)" fill="#15c8ff"/>
    <path id="Path_16668" data-name="Path 16668" d="M21,51.567h8.837V28H21Zm2.946-20.621h2.946V48.621H23.946Z" transform="translate(9.458 12.769)" fill="#15c8ff"/>
  </g>
</svg>
