<svg xmlns="http://www.w3.org/2000/svg" width="93.192" height="93.092" viewBox="0 0 93.192 93.092">
  <g id="data_1_" data-name="data (1)" transform="translate(0 -0.5)">
    <path id="Path_16626" data-name="Path 16626" d="M37.949,138.151a1.364,1.364,0,1,0,1.929-1.929l-3.312-3.312,3.312-3.311a1.364,1.364,0,0,0-1.929-1.929l-4.276,4.276a1.364,1.364,0,0,0,0,1.929Zm0,0" transform="translate(-27.217 -103.696)" fill="#15c8ff"/>
    <path id="Path_16627" data-name="Path 16627" d="M116.642,132.907l-3.312,3.312a1.364,1.364,0,1,0,1.929,1.929l4.277-4.277a1.363,1.363,0,0,0,0-1.928l-4.277-4.277a1.364,1.364,0,0,0-1.928,1.929Zm0,0" transform="translate(-92.376 -103.693)" fill="#15c8ff"/>
    <path id="Path_16628" data-name="Path 16628" d="M77.283,138.451a1.364,1.364,0,0,0,1.768-.771l3.36-8.553a1.364,1.364,0,1,0-2.538-1l-3.36,8.553A1.364,1.364,0,0,0,77.283,138.451Zm0,0" transform="translate(-62.508 -103.692)" fill="#15c8ff"/>
    <path id="Path_16629" data-name="Path 16629" d="M38.879,220.943h9.188a1.364,1.364,0,0,0,0-2.728H38.879a1.364,1.364,0,0,0,0,2.728Zm0,0" transform="translate(-30.687 -178.087)" fill="#15c8ff"/>
    <path id="Path_16630" data-name="Path 16630" d="M133.029,218.215H116.875a1.364,1.364,0,0,0,0,2.728h16.154a1.364,1.364,0,1,0,0-2.728Zm0,0" transform="translate(-94.487 -178.087)" fill="#15c8ff"/>
    <path id="Path_16631" data-name="Path 16631" d="M38.879,252.548h3.914a1.364,1.364,0,0,0,0-2.728H38.879a1.364,1.364,0,0,0,0,2.728Zm0,0" transform="translate(-30.687 -203.94)" fill="#15c8ff"/>
    <path id="Path_16632" data-name="Path 16632" d="M178.211,249.82a1.364,1.364,0,0,0,0,2.728h2.383a1.364,1.364,0,1,0,0-2.728Zm0,0" transform="translate(-144.658 -203.94)" fill="#15c8ff"/>
    <path id="Path_16633" data-name="Path 16633" d="M99.747,251.184a1.364,1.364,0,0,0-1.364-1.364H86.676a1.364,1.364,0,0,0,0,2.728H98.384A1.364,1.364,0,0,0,99.747,251.184Zm0,0" transform="translate(-69.784 -203.94)" fill="#15c8ff"/>
    <path id="Path_16634" data-name="Path 16634" d="M213.7,251.184a1.364,1.364,0,0,0,1.364,1.364h4.464a1.364,1.364,0,1,0,0-2.728h-4.464A1.364,1.364,0,0,0,213.7,251.184Zm0,0" transform="translate(-174.805 -203.94)" fill="#15c8ff"/>
    <path id="Path_16635" data-name="Path 16635" d="M166.763,152.005h4.709a1.364,1.364,0,1,0,0-2.728h-4.709a1.364,1.364,0,1,0,0,2.728Zm0,0" transform="translate(-135.293 -121.697)" fill="#15c8ff"/>
    <path id="Path_16636" data-name="Path 16636" d="M221.61,152.005h28.732a1.364,1.364,0,0,0,0-2.728H221.61a1.364,1.364,0,1,0,0,2.728Zm0,0" transform="translate(-180.158 -121.697)" fill="#15c8ff"/>
    <path id="Path_16637" data-name="Path 16637" d="M303.186,182.246H291.547a1.364,1.364,0,0,0,0,2.728h11.639a1.364,1.364,0,0,0,0-2.728Zm0,0" transform="translate(-237.365 -148.665)" fill="#15c8ff"/>
    <path id="Path_16638" data-name="Path 16638" d="M249.591,182.246h-4a1.364,1.364,0,0,0,0,2.728h4a1.364,1.364,0,0,0,0-2.728Zm0,0" transform="translate(-199.773 -148.665)" fill="#15c8ff"/>
    <path id="Path_16639" data-name="Path 16639" d="M166.763,184.974h9.8a1.364,1.364,0,0,0,0-2.728h-9.8a1.364,1.364,0,1,0,0,2.728Zm0,0" transform="translate(-135.293 -148.665)" fill="#15c8ff"/>
    <path id="Path_16640" data-name="Path 16640" d="M109.8,281.16H100.61a1.364,1.364,0,1,0,0,2.727H109.8a1.364,1.364,0,0,0,0-2.727Zm0,0" transform="translate(-81.182 -229.575)" fill="#15c8ff"/>
    <path id="Path_16641" data-name="Path 16641" d="M45.938,281.16H38.879a1.364,1.364,0,0,0,0,2.727h7.059a1.364,1.364,0,0,0,0-2.727Zm0,0" transform="translate(-30.687 -229.575)" fill="#15c8ff"/>
    <path id="Path_16642" data-name="Path 16642" d="M188.655,281.16h-12a1.364,1.364,0,0,0,0,2.727h12a1.364,1.364,0,0,0,0-2.727Zm0,0" transform="translate(-143.383 -229.575)" fill="#15c8ff"/>
    <path id="Path_16643" data-name="Path 16643" d="M302.275,242.668h-6.563a1.364,1.364,0,0,0,0,2.728h6.563a1.364,1.364,0,0,0,0-2.728Zm0,0" transform="translate(-240.771 -198.089)" fill="#15c8ff"/>
    <path id="Path_16644" data-name="Path 16644" d="M394.34,245.4h9.265a1.364,1.364,0,1,0,0-2.728H394.34a1.364,1.364,0,0,0,0,2.728Zm0,0" transform="translate(-321.448 -198.089)" fill="#15c8ff"/>
    <path id="Path_16645" data-name="Path 16645" d="M359.343,242.668H357.22a1.364,1.364,0,1,0,0,2.728h2.123a1.364,1.364,0,0,0,0-2.728Zm0,0" transform="translate(-291.084 -198.089)" fill="#15c8ff"/>
    <path id="Path_16646" data-name="Path 16646" d="M295.711,327.056h6.563a1.364,1.364,0,1,0,0-2.727h-6.563a1.364,1.364,0,0,0,0,2.727Zm0,0" transform="translate(-240.771 -264.886)" fill="#15c8ff"/>
    <path id="Path_16647" data-name="Path 16647" d="M394.34,327.056h9.265a1.364,1.364,0,1,0,0-2.727H394.34a1.364,1.364,0,0,0,0,2.727Zm0,0" transform="translate(-321.448 -264.886)" fill="#15c8ff"/>
    <path id="Path_16648" data-name="Path 16648" d="M357.223,327.056h2.123a1.364,1.364,0,1,0,0-2.727h-2.123a1.364,1.364,0,0,0,0,2.727Zm0,0" transform="translate(-291.087 -264.886)" fill="#15c8ff"/>
    <path id="Path_16649" data-name="Path 16649" d="M302.275,405.988h-6.563a1.364,1.364,0,0,0,0,2.727h6.563a1.364,1.364,0,1,0,0-2.727Zm0,0" transform="translate(-240.771 -331.682)" fill="#15c8ff"/>
    <path id="Path_16650" data-name="Path 16650" d="M403.605,405.988H394.34a1.364,1.364,0,0,0,0,2.727h9.265a1.364,1.364,0,1,0,0-2.727Zm0,0" transform="translate(-321.448 -331.682)" fill="#15c8ff"/>
    <path id="Path_16651" data-name="Path 16651" d="M359.343,405.988H357.22a1.364,1.364,0,1,0,0,2.727h2.123a1.364,1.364,0,0,0,0-2.727Zm0,0" transform="translate(-291.084 -331.682)" fill="#15c8ff"/>
    <path id="Path_16652" data-name="Path 16652" d="M87.19.5H6a6.01,6.01,0,0,0-6,6V72.5a6.01,6.01,0,0,0,6,6h5.133a1.364,1.364,0,1,0,0-2.727H6A3.278,3.278,0,0,1,2.728,72.5V67.322h49.69v2.351H51.337a2.685,2.685,0,0,0-2.683,2.683v3.416H19.428a1.364,1.364,0,1,0,0,2.727H32.542V83.39H28.424a4.988,4.988,0,0,0-4.982,4.982v2.946a2.276,2.276,0,0,0,2.273,2.273H67.374a2.276,2.276,0,0,0,2.273-2.273V88.372a4.988,4.988,0,0,0-4.982-4.982H60.547V81.666H85.761a2.685,2.685,0,0,0,2.682-2.683v-.642A6.011,6.011,0,0,0,93.089,72.5l.1-65.994A6.008,6.008,0,0,0,87.19.5ZM51.382,64.075V57.537H85.716v6.538Zm3.763-9.266V51.94H81.952v2.87ZM81.952,66.8v2.87H55.145V66.8ZM35.269,78.5H48.654v.486a2.685,2.685,0,0,0,2.683,2.682H57.82V83.39H35.269Zm29.4,7.62a2.256,2.256,0,0,1,2.254,2.254v2.492H26.169V88.372a2.257,2.257,0,0,1,2.255-2.254Zm21.05-7.18H51.382V72.4H85.716ZM90.362,72.5a3.276,3.276,0,0,1-1.918,2.976V72.355a2.685,2.685,0,0,0-2.683-2.682H84.68V67.322h5.682Zm0-7.9H88.4c.028-.154.045-7.1.045-7.1a2.686,2.686,0,0,0-2.683-2.683H84.68V51.94h1.081a2.686,2.686,0,0,0,2.683-2.683V42.628a2.686,2.686,0,0,0-2.683-2.683h-7.7a1.364,1.364,0,0,0,0,2.728h7.658v6.538H51.382V42.674H69.571a1.364,1.364,0,0,0,0-2.728H51.337a2.686,2.686,0,0,0-2.683,2.683v6.629a2.686,2.686,0,0,0,2.683,2.683h1.081v2.87H51.337a2.686,2.686,0,0,0-2.683,2.683s.017,6.949.045,7.1H2.728V19.053H90.362Zm0-48.27H2.828V6.5A3.278,3.278,0,0,1,6.1,3.228H87.087A3.278,3.278,0,0,1,90.362,6.5Zm0,0" fill="#15c8ff"/>
    <path id="Path_16653" data-name="Path 16653" d="M37.276,29.262a4,4,0,1,0,4,4A4.007,4.007,0,0,0,37.276,29.262Zm0,5.277a1.275,1.275,0,1,1,1.275-1.275A1.276,1.276,0,0,1,37.276,34.539Zm0,0" transform="translate(-27.217 -23.527)" fill="#15c8ff"/>
    <path id="Path_16654" data-name="Path 16654" d="M93.261,29.262a4,4,0,1,0,4,4A4.007,4.007,0,0,0,93.261,29.262Zm0,5.277a1.275,1.275,0,1,1,1.275-1.275A1.276,1.276,0,0,1,93.261,34.539Zm0,0" transform="translate(-73.011 -23.527)" fill="#15c8ff"/>
    <path id="Path_16655" data-name="Path 16655" d="M149.248,29.262a4,4,0,1,0,4,4A4.007,4.007,0,0,0,149.248,29.262Zm0,5.277a1.275,1.275,0,1,1,1.275-1.275A1.276,1.276,0,0,1,149.248,34.539Zm0,0" transform="translate(-118.809 -23.527)" fill="#15c8ff"/>
  </g>
</svg>
