<svg id="Group_20377" data-name="Group 20377" xmlns="http://www.w3.org/2000/svg" xmlns:xlink="http://www.w3.org/1999/xlink" width="247.195" height="68.829" viewBox="0 0 247.195 68.829">
  <defs>
    <clipPath id="clip-path">
      <path id="Path_16060" data-name="Path 16060" d="M9.182,63.839c-2.6-.3-4.174-2.1-4.267-4.878-.038-1.145-.015-2.291-.01-3.437,0-1.038.149-1.166,1.134-.828a11.927,11.927,0,0,1,7.234,6.269,19.151,19.151,0,0,1,.8,2.077c.183.535-.023.835-.617.829-.712-.007-1.425,0-2.137,0v-.019c-.448,0-.9.027-1.347.027a6.835,6.835,0,0,1-.787-.04m9.93-.92q-2.525-10.855-13.4-13.382A.9.9,0,0,1,4.9,48.518q.025-4-.007-8.007c-.007-.713.163-.99.966-.875A26.514,26.514,0,0,1,25.83,53.176a24.259,24.259,0,0,1,3.136,9.289c.15,1.184.1,1.262-1.125,1.27-.652,0-1.3,0-1.956,0,0,.045,0,.09,0,.135-1.86,0-3.721-.028-5.58.014h-.058c-.693,0-.979-.3-1.135-.967m14.858-.33a27.563,27.563,0,0,0-3.194-10.716C25.39,41.841,17.031,36.061,5.7,34.657c-.593-.073-.81-.292-.807-.867.012-2.823.02-5.647-.007-8.469-.007-.788.389-.95,1.051-.895a40.123,40.123,0,0,1,11.3,2.57,41.821,41.821,0,0,1,22.9,20.872,42.376,42.376,0,0,1,4.157,15.071c.065.671-.286.79-.832.786-1.427-.01-2.855,0-4.282,0v0c-1.3,0-2.609-.045-3.909.016q-.069,0-.134,0c-.778,0-1.091-.355-1.161-1.154M32.4,30.18a46.864,46.864,0,0,0-6.468-4.533c-.966-.575-1-.613-.2-1.453a29.876,29.876,0,0,0,5.62-8.383,29.627,29.627,0,0,0,2.607-9.46c.114-1.195.222-1.305,1.414-1.3q4,0,8,.011h.059c.458,0,.925,0,.867.689a42.276,42.276,0,0,1-2.089,10.272,41.274,41.274,0,0,1-8.059,14.026c-.42.479-.625.713-.858.713-.213,0-.451-.2-.9-.577M19.346,22.5a47.525,47.525,0,0,0-9.777-2.629c-1.187-.187-2.388-.285-3.582-.424a18.184,18.184,0,0,0,9.26-5.683,15.605,15.605,0,0,0,3.792-7.559c.151-.834.456-1.22,1.384-1.2,2.544.062,5.09.048,7.634.016.85-.011,1.109.34.992,1.126a26.967,26.967,0,0,1-8.426,16.187.97.97,0,0,1-.685.3,1.663,1.663,0,0,1-.591-.135M4.9,13.58c.012-.651,0-1.3,0-2.193a16.065,16.065,0,0,1,.126-2.448A4.476,4.476,0,0,1,9.332,4.925c.9-.06,1.8-.048,2.7-.036.465.006.929.012,1.393.009.65-.005.777.31.663.9-.7,3.562-4.713,7.626-8.315,8.427a1.742,1.742,0,0,1-.371.049c-.354,0-.515-.192-.506-.689M9.334,0A7.576,7.576,0,0,0,7.775.133,9.437,9.437,0,0,0,.015,9.706q-.024,12.341,0,24.681H.005c0,8.227.016,16.454-.005,24.682v.051a9.622,9.622,0,0,0,9.48,9.71h.052l.163,0c5.187-.113,10.378-.091,15.569-.069q3.347.014,6.694.018c5.4,0,10.806-.016,16.209-.005.755,0,1.227-.119,1.237-1.05a50.4,50.4,0,0,0-1.058-11.188A46.031,46.031,0,0,0,37.409,35.047c-.395-.439-.411-.714-.009-1.164a46.136,46.136,0,0,0,4.012-5.128A47.287,47.287,0,0,0,49.385,1.3C49.371.119,49.3.036,48.1.035Q28.723.011,9.347,0Z" fill="none"/>
    </clipPath>
    <linearGradient id="linear-gradient" x1="0.259" x2="0.602" y2="0.985" gradientUnits="objectBoundingBox">
      <stop offset="0" stop-color="#0c9ff8"/>
      <stop offset="1" stop-color="#4740f8"/>
    </linearGradient>
    <clipPath id="clip-path-2">
      <rect id="Rectangle_10865" data-name="Rectangle 10865" width="247.195" height="68.829" fill="none"/>
    </clipPath>
  </defs>
  <g id="Group_20374" data-name="Group 20374">
    <g id="Group_20373" data-name="Group 20373" clip-path="url(#clip-path)">
      <rect id="Rectangle_10864" data-name="Rectangle 10864" width="49.503" height="68.829" transform="translate(-0.001 0)" fill="url(#linear-gradient)"/>
    </g>
  </g>
  <g id="Group_20376" data-name="Group 20376">
    <g id="Group_20375" data-name="Group 20375" clip-path="url(#clip-path-2)">
      <path id="Path_16061" data-name="Path 16061" d="M884.415,127.9a10.141,10.141,0,0,1,4.446-2.857,12.422,12.422,0,0,1,16,9.658,14.523,14.523,0,0,1-1.722,11.025,11.624,11.624,0,0,1-9.295,5.573c-3.545.324-6.712-.47-9.257-3.212a1.4,1.4,0,0,0-.168,1c-.008,3.692,0,7.384-.006,11.076,0,1.322,0,1.325-1.364,1.327-1.241,0-2.483-.019-3.723.007-.688.014-1-.2-1-.958q.025-17.358,0-34.716c0-.678.23-.94.917-.922q2.093.052,4.188,0c.708-.019,1.04.208.989.953-.041.584-.008,1.174-.008,2.045m14.467,10.165c0-.31.014-.621,0-.93a7.252,7.252,0,0,0-10.871-6.108c-2.858,1.513-3.828,4.19-3.809,7.346.031,4.823,4.312,8.482,9.659,7.1a7.144,7.144,0,0,0,5.022-7.406" transform="translate(-714.612 -101.3)" fill="#fff"/>
      <path id="Path_16062" data-name="Path 16062" d="M1052.525,127.866c0-.853.011-1.5,0-2.141-.012-.528.179-.808.754-.8q2.328.024,4.655,0c.506-.005.751.207.757.707,0,.248.013.5.013.744q0,11.543,0,23.087c0,1.483,0,1.484-1.483,1.485q-1.536,0-3.073,0c-1.413,0-1.413,0-1.416-1.461,0-.49,0-.98,0-1.428-.283-.13-.378.028-.474.133-2.7,2.941-6.13,3.624-9.87,3.015-5.989-.975-9.934-5.518-10.395-11.643a14.664,14.664,0,0,1,3.069-10.719,12.254,12.254,0,0,1,15.351-2.738,18.959,18.959,0,0,1,2.114,1.761m-14.277,10.217c0,.31-.019.621,0,.93a6.682,6.682,0,0,0,4.231,6.163,7,7,0,0,0,7.938-1.379c2.205-2.083,2.547-4.7,2.129-7.538a7.194,7.194,0,0,0-11.2-4.873,7.4,7.4,0,0,0-3.1,6.7" transform="translate(-839.589 -101.309)" fill="#fff"/>
      <path id="Path_16063" data-name="Path 16063" d="M730.558,147.755c-.288.234-.414.316-.514.422-2.694,2.88-6.074,3.513-9.8,2.982-7.749-1.1-11.567-8.51-10.3-15.781a12.914,12.914,0,0,1,5.069-8.594,11.089,11.089,0,0,1,15.274,1.036c0-.884,0-1.612,0-2.34,0-.431.2-.609.627-.607q2.421.014,4.843,0c.473,0,.679.224.669.683,0,.217.006.434.006.652q0,11.686,0,23.372c0,1.3,0,1.307-1.269,1.31-1.242,0-2.484-.02-3.725.006-.637.013-.908-.24-.884-.876.025-.679.006-1.36.006-2.267m-.013-9.825a6.732,6.732,0,0,0-.218-1.956,7.161,7.161,0,0,0-13.941-.742,9.544,9.544,0,0,0-.264,4.505,7.137,7.137,0,0,0,9.658,5.546c2.976-1.013,4.756-3.825,4.766-7.354" transform="translate(-577.421 -101.255)" fill="#fff"/>
      <path id="Path_16064" data-name="Path 16064" d="M350.1,87.982l5.535-6.175c1.408-1.571,2.821-3.139,4.221-4.718a1.486,1.486,0,0,1,1.2-.573c1.894.021,3.788.006,5.681.01.212,0,.5-.076.609.119.153.271-.14.437-.3.613-2.686,3.01-5.361,6.03-8.074,9.015a1.112,1.112,0,0,0-.2,1.6c2.82,4.532,5.593,9.092,8.37,13.65.166.272.544.555.329.9-.175.277-.577.122-.877.124-1.552.009-3.107-.043-4.656.022a1.694,1.694,0,0,1-1.709-.965c-1.823-3.031-3.708-6.026-5.544-9.049-.369-.608-.612-.814-1.164-.141-.963,1.175-2,2.293-3.037,3.4a2.1,2.1,0,0,0-.572,1.6c.029,1.334-.023,2.67.02,4,.026.816-.213,1.189-1.1,1.147-1.332-.063-2.671-.058-4,0-.857.037-1.134-.273-1.128-1.121.03-4.532.014-9.064.014-13.6q0-10.756,0-21.511c0-1.268.03-1.3,1.306-1.3q1.77-.006,3.539,0c1.357,0,1.365.009,1.365,1.332q0,10.2.006,20.394a2.2,2.2,0,0,0,.165,1.226" transform="translate(-279.641 -52.906)" fill="#fff"/>
      <path id="Path_16065" data-name="Path 16065" d="M493.309,137.975c-.187,7.93-5.45,13.407-13.73,13.388-8.472-.02-13.686-5.634-13.695-13.5-.009-8.68,6.607-13.565,14.08-13.378,7.784.195,13.377,5.708,13.345,13.485m-21.208.035a5.806,5.806,0,0,0,.205,1.626,7.4,7.4,0,0,0,9.892,5.678,7.9,7.9,0,0,0,4.723-8.765,7.4,7.4,0,0,0-9.437-6.2,7.646,7.646,0,0,0-5.384,7.657" transform="translate(-379.047 -101.281)" fill="#fff"/>
      <path id="Path_16066" data-name="Path 16066" d="M1199.038,143.8c.978-2.564,1.895-4.963,2.808-7.363,1.092-2.87,2.218-5.729,3.253-8.62a1.622,1.622,0,0,1,1.9-1.28c1.3.1,2.606.019,3.91.024,1.107,0,1.141.055.736,1.091q-3.168,8.1-6.34,16.208c-2.385,6.1-4.784,12.187-7.144,18.292a1.3,1.3,0,0,1-1.426,1c-1.458-.049-2.918-.029-4.377-.009-.755.011-1.009-.187-.691-.982,1.325-3.313,2.583-6.652,3.911-9.963a2.752,2.752,0,0,0-.047-2.308c-3.243-7.453-6.442-14.926-9.673-22.385-.314-.726-.224-.989.621-.962,1.457.047,2.92.055,4.377,0a1.364,1.364,0,0,1,1.526,1c2.036,5.067,4.114,10.116,6.181,15.17.125.307.267.607.477,1.083" transform="translate(-964.686 -102.943)" fill="#fff"/>
      <path id="Path_16067" data-name="Path 16067" d="M636.588,128.558a12.474,12.474,0,0,1,5.224-3.491,9.172,9.172,0,0,1,2.938-.388c.571,0,.763.271.76.8-.01,1.738-.014,3.477,0,5.215.006.629-.315.784-.876.783a11.286,11.286,0,0,0-2.874.134,6.43,6.43,0,0,0-4.991,5.613,14.2,14.2,0,0,0-.185,2.5c.014,3.446-.011,6.891.019,10.337.007.763-.246,1.051-1.018,1.023-1.271-.045-2.545-.009-3.818-.012-1.248,0-1.257-.007-1.258-1.232q0-10.2,0-20.394c0-1.118.042-2.237-.013-3.352-.041-.832.285-1.085,1.085-1.056,1.4.051,2.794.031,4.191.009.6-.009.84.227.823.824-.026.894-.007,1.789-.007,2.683" transform="translate(-512.974 -101.439)" fill="#fff"/>
    </g>
  </g>
</svg>
