<svg xmlns="http://www.w3.org/2000/svg" xmlns:xlink="http://www.w3.org/1999/xlink" width="126.293" height="97.981" viewBox="0 0 126.293 97.981">
  <defs>
    <clipPath id="clip-path">
      <rect id="Rectangle_10861" data-name="Rectangle 10861" width="126.293" height="97.981" transform="translate(0 0)" fill="none"/>
    </clipPath>
  </defs>
  <g id="Group_20368" data-name="Group 20368" transform="translate(0 0.003)">
    <g id="Group_20367" data-name="Group 20367" transform="translate(0 -0.003)" clip-path="url(#clip-path)">
      <path id="Path_16036" data-name="Path 16036" d="M63.047,69.7A35,35,0,0,1,58.3,72.91a38.511,38.511,0,0,1-12.549,4.532c-1.146.2-2.3.335-3.458.451A47.746,47.746,0,0,1,37.066,78c-.73-.007-1.46-.12-2.189-.191a37.188,37.188,0,0,1-7.334-1.505,38.416,38.416,0,0,1-14.335-8.032A38.783,38.783,0,0,1,2.091,51.658a40.133,40.133,0,0,1-1.354-4.98C.492,45.5.346,44.3.2,43.1A41.635,41.635,0,0,1,.039,36.94c.025-.853.121-1.713.224-2.568a38.029,38.029,0,0,1,2.119-8.821A38.751,38.751,0,0,1,17.623,6.373,38.18,38.18,0,0,1,30.206.989,33.421,33.421,0,0,1,34.637.256c.837-.079,1.674-.137,2.512-.2a28.671,28.671,0,0,1,3.1-.04c1.09.042,2.181.1,3.266.232,1.035.122,2.066.274,3.086.479A38.744,38.744,0,0,1,62.837,8.139c.074.057.162.1.2.2-.464.495-1.019.887-1.526,1.332a39.191,39.191,0,0,0-7.941,9.662,38.778,38.778,0,0,0-4.771,13.087,34.281,34.281,0,0,0-.506,4.65c-.048,1.426-.056,2.856.032,4.285.075,1.223.21,2.436.388,3.646a37.742,37.742,0,0,0,1.515,6.332,39.021,39.021,0,0,0,8.125,13.922q1.492,1.628,3.142,3.1c.512.457,1.073.857,1.557,1.345" transform="translate(0 0.003)" fill="#eb001b"/>
      <path id="Path_16037" data-name="Path 16037" d="M995.028,8.382A33.553,33.553,0,0,1,999.043,5.6,38.551,38.551,0,0,1,1012.155.673c1.03-.186,2.069-.306,3.112-.413a39.368,39.368,0,0,1,4.938-.173c1.056.025,2.107.128,3.16.239a37.8,37.8,0,0,1,18.774,7.34,38.68,38.68,0,0,1,13.8,18.734,37.389,37.389,0,0,1,1.858,8.18,36.164,36.164,0,0,1,.231,5.8q-.073,1.524-.225,3.049a35.306,35.306,0,0,1-2.156,9.175,38.682,38.682,0,0,1-22.138,22.723,37.468,37.468,0,0,1-9.021,2.4,38.55,38.55,0,0,1-7.4.345,37.927,37.927,0,0,1-8.916-1.51,39.056,39.056,0,0,1-12.955-6.613c-.066-.051-.123-.113-.184-.169a.7.7,0,0,1,.253-.28,21.609,21.609,0,0,0,2-1.705,42.155,42.155,0,0,0,3.217-3.332,41.628,41.628,0,0,0,3.438-4.7,38.761,38.761,0,0,0,5.835-18.673,37.494,37.494,0,0,0-.032-4.346c-.089-1.357-.236-2.7-.45-4.046a36.644,36.644,0,0,0-1.164-5.013,39.02,39.02,0,0,0-3.193-7.512,40.058,40.058,0,0,0-3.059-4.695,38.443,38.443,0,0,0-2.507-2.977,41.787,41.787,0,0,0-3.283-3.167,5.162,5.162,0,0,1-1.053-.947" transform="translate(-931.767 -0.068)" fill="#f79e1b"/>
      <path id="Path_16038" data-name="Path 16038" d="M773.961,130.764a5.165,5.165,0,0,0,1.053.947,41.779,41.779,0,0,1,3.283,3.167,38.431,38.431,0,0,1,2.507,2.977,40.066,40.066,0,0,1,3.059,4.695,39.027,39.027,0,0,1,3.193,7.512,36.671,36.671,0,0,1,1.164,5.013c.214,1.343.361,2.689.45,4.046a37.494,37.494,0,0,1,.032,4.346,38.761,38.761,0,0,1-5.835,18.673,41.637,41.637,0,0,1-3.438,4.7,42.152,42.152,0,0,1-3.217,3.331,21.608,21.608,0,0,1-2,1.705.694.694,0,0,0-.253.28l-.216,0c-.484-.488-1.045-.888-1.557-1.345q-1.647-1.471-3.142-3.1a38.861,38.861,0,0,1-8.125-13.922,37.752,37.752,0,0,1-1.515-6.332c-.178-1.211-.313-2.423-.388-3.646-.087-1.429-.08-2.858-.032-4.285a34.311,34.311,0,0,1,.506-4.65,39.24,39.24,0,0,1,12.712-22.749c.508-.445,1.062-.837,1.526-1.332l.229-.029" transform="translate(-710.7 -122.45)" fill="#ff5f00"/>
      <path id="Path_16039" data-name="Path 16039" d="M102.689,1372.075a4.032,4.032,0,0,1,6.511.317,4.791,4.791,0,0,1,.6-.686,4.421,4.421,0,0,1,3.882-1.058,4.616,4.616,0,0,1,1,.236,3.433,3.433,0,0,1,2.192,2.726,8.7,8.7,0,0,1,.126,1.562c0,1.907,0,3.814.005,5.721,0,.232-.047.309-.293.3-.635-.019-1.271-.017-1.907,0-.232.006-.3-.047-.3-.293.012-1.716,0-3.433.009-5.149a7.979,7.979,0,0,0-.141-1.43,1.925,1.925,0,0,0-1.859-1.561,3.715,3.715,0,0,0-1.094.072,2.332,2.332,0,0,0-1.663,2.249c-.028,1.938-.018,3.877-.009,5.816,0,.244-.063.3-.3.3-.572-.017-1.144-.016-1.716,0-.225.006-.281-.062-.279-.283.009-1.759,0-3.518.005-5.276a5.073,5.073,0,0,0-.18-1.463,1.905,1.905,0,0,0-1.941-1.412,2.957,2.957,0,0,0-1.385.215,2.314,2.314,0,0,0-1.2,1.653,4.253,4.253,0,0,0-.062,1c0,1.748-.008,3.5.006,5.244,0,.273-.075.333-.334.324-.561-.021-1.123-.013-1.684,0-.2,0-.274-.036-.273-.259q.012-4.958,0-9.917c0-.176.04-.239.226-.235.614.011,1.229.013,1.843,0,.2,0,.222.073.217.239-.011.325,0,.65,0,1.056" transform="translate(-94.021 -1283.43)" fill="#fff"/>
      <path id="Path_16040" data-name="Path 16040" d="M1730.468,1322.232a3.676,3.676,0,0,1-3.063,1.509,5.146,5.146,0,0,1-5.253-4.069,5.48,5.48,0,0,1,3.021-6.361,4.8,4.8,0,0,1,2.814-.312,3.646,3.646,0,0,1,2.438,1.361c.083-.09.041-.2.042-.29,0-1.6.007-3.2,0-4.8,0-.224.056-.283.279-.276.561.017,1.123.02,1.683,0,.259-.01.333.052.333.323-.01,3.367-.007,6.734-.007,10.1,0,1.281,0,2.563,0,3.844,0,.2-.043.276-.259.271-.593-.014-1.186-.016-1.779,0-.226.006-.261-.081-.252-.274.014-.314,0-.628,0-1.03m-2.9-.583a2.513,2.513,0,0,0,1.37-.3,3.493,3.493,0,0,0,1.484-4.415,2.875,2.875,0,0,0-2.413-1.912,3.037,3.037,0,0,0-3.4,2.025,4.037,4.037,0,0,0-.187,1.829,3.16,3.16,0,0,0,3.146,2.774" transform="translate(-1612.523 -1225.772)" fill="#fff"/>
      <path id="Path_16041" data-name="Path 16041" d="M1401.547,1372.118c0-.409.011-.737,0-1.064-.009-.188.06-.226.232-.223.582.01,1.165.018,1.747,0,.254-.009.311.068.31.314q-.013,4.748-.006,9.5c0,.6,0,.6-.592.6-.487,0-.974-.008-1.461,0-.18,0-.239-.049-.231-.231.014-.325,0-.652,0-.978-.033,0-.059,0-.066,0a3.549,3.549,0,0,1-2.432,1.363,5.142,5.142,0,0,1-5.453-2.934,5.649,5.649,0,0,1-.5-2.664,5.169,5.169,0,0,1,2.565-4.484,4.86,4.86,0,0,1,3.413-.62,3.956,3.956,0,0,1,2.473,1.42m-2.931,7.239a2.7,2.7,0,0,0,1.387-.292,3.547,3.547,0,0,0,1.46-4.532,3.15,3.15,0,0,0-4.542-1.391,3.6,3.6,0,0,0-1.333,3.882,3.157,3.157,0,0,0,3.028,2.333" transform="translate(-1304.521 -1283.48)" fill="#fff"/>
      <path id="Path_16042" data-name="Path 16042" d="M401.776,1371.739c0-.339.006-.678,0-1.017,0-.133.032-.185.175-.184.646.007,1.292.006,1.938,0,.127,0,.173.045.159.166a1.114,1.114,0,0,0,0,.127q0,4.894.006,9.787c0,.264-.065.341-.331.331-.571-.021-1.144-.013-1.716,0-.18,0-.239-.052-.232-.232.013-.323,0-.646,0-1.039-.109.122-.166.182-.219.245a3.5,3.5,0,0,1-2.452,1.187,5.048,5.048,0,0,1-5.36-3.128,5.179,5.179,0,0,1-.454-2.429,5.247,5.247,0,0,1,3-4.738,4.824,4.824,0,0,1,4.128-.083,4.08,4.08,0,0,1,1.313,1.028c.01.013.022.039.029.037.037-.007.029-.032.015-.056m-3.015,7.325a2.617,2.617,0,0,0,1.353-.288,3.54,3.54,0,0,0,1.46-4.555,3.132,3.132,0,0,0-4.519-1.373,3.511,3.511,0,0,0-1.261,4.169,3.043,3.043,0,0,0,2.967,2.047" transform="translate(-368.277 -1283.186)" fill="#fff"/>
      <path id="Path_16043" data-name="Path 16043" d="M922.823,1376.742a3.387,3.387,0,0,0,.622,1.4,3.181,3.181,0,0,0,3.043,1.057,5.16,5.16,0,0,0,2.411-.956c.107-.077.157-.051.221.046.3.451.589.9.9,1.345.1.144.032.2-.069.273a6.159,6.159,0,0,1-2.675,1.152,8.272,8.272,0,0,1-1.492.138,5.015,5.015,0,0,1-5.1-4.218,6.225,6.225,0,0,1,.239-3.337,4.792,4.792,0,0,1,3.2-3.053,5.314,5.314,0,0,1,3.328.039,4.24,4.24,0,0,1,2.644,2.551,8.72,8.72,0,0,1,.457,3.4c0,.123-.035.176-.161.162a1.8,1.8,0,0,0-.191,0h-7.369Zm2.831-1.955c.825,0,1.65-.006,2.475,0,.2,0,.251-.049.213-.25a2.524,2.524,0,0,0-2.8-2.242,2.585,2.585,0,0,0-2.2,1.359,6.891,6.891,0,0,0-.332.818c-.1.247-.055.315.2.313.814-.008,1.629,0,2.443,0" transform="translate(-862.033 -1283.216)" fill="#fff"/>
      <path id="Path_16044" data-name="Path 16044" d="M600.829,1370.626a8.11,8.11,0,0,1,3.626.877c.236.135.312.235.153.5-.263.432-.484.89-.715,1.341-.074.144-.135.2-.309.114a6.925,6.925,0,0,0-1.962-.651,4.23,4.23,0,0,0-2.144.016,1.169,1.169,0,0,0-.908,1.013.7.7,0,0,0,.4.662,2.869,2.869,0,0,0,1.214.347,8.52,8.52,0,0,1,3.212.717,2.6,2.6,0,0,1,1.522,2.008,2.917,2.917,0,0,1-1.222,2.962,5.568,5.568,0,0,1-2.2.813,7.115,7.115,0,0,1-1.724.11,7.468,7.468,0,0,1-3.842-1.181c-.137-.09-.154-.153-.063-.291q.442-.677.857-1.371c.094-.157.166-.171.315-.068a5.511,5.511,0,0,0,2.422.925,4.757,4.757,0,0,0,2.413-.232,1.057,1.057,0,0,0,.781-1.156c-.064-.441-.423-.554-.751-.677a10.824,10.824,0,0,0-2.283-.4,4.911,4.911,0,0,1-2.5-.995,2.872,2.872,0,0,1,.283-4.488,5.3,5.3,0,0,1,3.429-.894" transform="translate(-557.926 -1283.485)" fill="#fff"/>
      <path id="Path_16045" data-name="Path 16045" d="M767.488,1332.385c0-.826-.021-1.653.01-2.478.013-.341-.1-.4-.405-.386-.486.025-.974,0-1.461.01-.163,0-.221-.042-.218-.213.01-.54.012-1.08,0-1.62,0-.2.074-.224.241-.221.519.009,1.038-.008,1.557.008.22.007.286-.052.283-.278-.014-.868,0-1.737-.011-2.6,0-.225.063-.285.283-.28q.857.023,1.715,0c.221-.005.289.059.286.283-.012.858.006,1.716-.012,2.573-.005.261.08.309.319.306,1.038-.013,2.076,0,3.114-.011.211,0,.27.056.264.264-.015.5-.017,1,0,1.493.008.232-.046.306-.293.3-1.027-.016-2.055,0-3.082-.012-.235,0-.326.039-.323.3.015,1.43.005,2.859.009,4.289a2.289,2.289,0,0,0,.148,1.018,1.453,1.453,0,0,0,1.744.787,3.28,3.28,0,0,0,1.427-.449c.113-.076.162-.046.2.077.18.552.363,1.1.553,1.65.052.149-.043.183-.138.233a5.89,5.89,0,0,1-1.915.6,5.157,5.157,0,0,1-1.651,0,2.847,2.847,0,0,1-2.372-1.87,3.937,3.937,0,0,1-.265-1.4c.005-.794,0-1.589,0-2.383h-.01" transform="translate(-716.75 -1240.125)" fill="#fff"/>
      <path id="Path_16046" data-name="Path 16046" d="M1238.763,1373.766a5.039,5.039,0,0,0-1.68-.84,3.246,3.246,0,0,0-4.088,2.337,3.462,3.462,0,0,0,1.566,3.9,3.853,3.853,0,0,0,3.606-.237c.206-.111.411-.4.6-.316s.267.384.391.593c.194.327.376.662.582.982.1.153.069.229-.07.33a4.973,4.973,0,0,1-2.246.939,8.649,8.649,0,0,1-1.624.117,5.169,5.169,0,0,1-4.955-3.789,5.821,5.821,0,0,1,.134-3.724,4.934,4.934,0,0,1,3.446-3.1,7.07,7.07,0,0,1,2.742-.14,5.181,5.181,0,0,1,2.492.957c.147.106.183.181.078.349-.334.537-.648,1.087-.974,1.64" transform="translate(-1152.364 -1283.6)" fill="#fff"/>
      <path id="Path_16047" data-name="Path 16047" d="M1611.869,1371.729a3.065,3.065,0,0,1,1.617-1.254,5.272,5.272,0,0,1,2.4-.054c.184.03.105.158.081.24-.178.609-.368,1.215-.549,1.824-.045.153-.14.086-.226.068a5.638,5.638,0,0,0-1.374-.163,1.933,1.933,0,0,0-1.858,1.505,4.771,4.771,0,0,0-.159,1.363c0,1.79-.005,3.581.009,5.371,0,.274-.077.333-.335.323-.561-.021-1.123-.011-1.684,0-.176,0-.266-.023-.266-.236q.009-4.974,0-9.947c0-.152.022-.229.2-.226q.937.016,1.875,0c.183,0,.2.072.2.223-.009.307,0,.614,0,.921,0,.036-.011.1,0,.1.045.022.062-.018.067-.059" transform="translate(-1507.194 -1283.189)" fill="#fff"/>
      <path id="Path_16048" data-name="Path 16048" d="M1119.135,1371.906c.068-.078.139-.152.2-.233a2.942,2.942,0,0,1,2.143-1.17,7.127,7.127,0,0,1,1.73.073c.1.016.122.031.09.134-.193.627-.383,1.255-.562,1.885-.046.163-.127.143-.255.119a7.33,7.33,0,0,0-1.241-.169,1.979,1.979,0,0,0-2.027,1.626,4.5,4.5,0,0,0-.108,1.249c0,1.779-.01,3.558.006,5.336,0,.306-.1.366-.372.356-.55-.02-1.1-.012-1.651,0-.18,0-.259-.026-.259-.237q.01-4.971,0-9.942c0-.176.042-.234.225-.231.614.011,1.228.01,1.842,0,.171,0,.215.052.209.215-.011.328,0,.656,0,.985-.011.021-.026.044.014.05a.237.237,0,0,0,.013-.043" transform="translate(-1045.828 -1283.348)" fill="#fff"/>
      <path id="Path_16049" data-name="Path 16049" d="M1645.338,1391.977c0,.041-.021.081-.067.059-.014-.007,0-.067,0-.1l.069.044" transform="translate(-1540.663 -1303.438)" fill="#fff"/>
      <path id="Path_16050" data-name="Path 16050" d="M526.263,1392.732c.014.024.022.049-.015.056-.007,0-.019-.024-.029-.037l.015-.026Z" transform="translate(-492.763 -1304.179)" fill="#fff"/>
      <path id="Path_16051" data-name="Path 16051" d="M1152.471,1392.732a.233.233,0,0,1-.013.043c-.04-.005-.024-.028-.014-.05l.016-.005Z" transform="translate(-1079.164 -1304.174)" fill="#fff"/>
    </g>
  </g>
</svg>
