<svg id="Group_20370" data-name="Group 20370" xmlns="http://www.w3.org/2000/svg" xmlns:xlink="http://www.w3.org/1999/xlink" width="229.962" height="38.716" viewBox="0 0 229.962 38.716">
  <defs>
    <clipPath id="clip-path">
      <rect id="Rectangle_10862" data-name="Rectangle 10862" width="229.962" height="38.716" fill="none"/>
    </clipPath>
  </defs>
  <g id="Group_20369" data-name="Group 20369" clip-path="url(#clip-path)">
    <path id="Path_16052" data-name="Path 16052" d="M194.4,20.458c-.63,3.409-1.215,6.581-1.8,9.753-.366,1.971-.788,3.934-1.085,5.915a1.43,1.43,0,0,1-1.749,1.4c-.334-.023-.671,0-1.007,0H78c-2.779,0-2.777,0-2.271-2.7q2.251-12.035,4.5-24.07c.335-1.8.272-1.868-1.546-1.874-1.007,0-2.02.07-3.019-.017-1.333-.116-1.84.467-2.07,1.735-1.524,8.407-3.142,16.8-4.648,25.207-.235,1.312-.762,1.744-2.061,1.741q-20.354-.047-40.707,0A2.048,2.048,0,0,1,23.9,35.92c-2.213-6.511-4.506-13-6.778-19.487A2.31,2.31,0,0,0,16.48,15.2a15.787,15.787,0,0,0-.805,3.559c-1.044,5.728-2.086,11.458-3.063,17.2a1.608,1.608,0,0,1-1.9,1.59c-3.02-.053-6.041-.009-9.062-.02C-.033,37.522-.18,37.354.13,35.69Q2.3,24.076,4.486,12.467C5.127,9.042,5.823,5.625,6.355,2.183,6.594.63,7.257.14,8.814.2c3.16.118,6.329.076,9.492.015A1.883,1.883,0,0,1,20.389,1.7C22.663,7.983,25,14.247,27.33,20.515a2.378,2.378,0,0,0,.8,1.361c.434-2.248.849-4.333,1.238-6.423.821-4.411,1.684-8.816,2.411-13.242C32.033.693,32.631.19,34.212.2c12.85.065,25.7.036,38.55.036q15.751,0,31.5,0c2.009,0,2.02.029,1.646,2.032-.3,1.6-.634,3.186-.85,4.793A1.8,1.8,0,0,1,102.9,8.9c-2.826-.091-5.658.012-8.485-.045-1.121-.023-1.671.341-1.79,1.491a29.8,29.8,0,0,1-.615,3.379c-.225,1.01.134,1.414,1.163,1.405,2.781-.024,5.563.037,8.342-.023,1.262-.027,1.616.414,1.327,1.618a29.73,29.73,0,0,0-.783,4.22c-.127,1.392-.822,1.723-2.084,1.694-2.636-.061-5.276.04-7.91-.042-1.325-.041-1.933.448-2.067,1.744a26,26,0,0,1-.56,3.1c-.222.973.038,1.442,1.111,1.438,5.322-.019,10.645-.035,15.966.011,1.271.011,1.487-.752,1.662-1.7q1.445-7.815,2.906-15.627c.6-3.238,1.244-6.47,1.8-9.716A1.681,1.681,0,0,1,114.887.2c3.067.079,6.137.018,9.205.028,1.658.006,1.736.1,1.428,1.733q-2.218,11.75-4.445,23.5c-.327,1.729-.3,1.766,1.48,1.771,1.63,0,3.262-.045,4.89.015,1.14.042,1.609-.448,1.807-1.535,1.408-7.7,2.874-15.39,4.293-23.089.44-2.388.4-2.4,2.9-2.4,2.781,0,5.562-.007,8.343,0,1.751.007,1.843.117,1.529,1.8q-2.115,11.332-4.243,22.661c-.477,2.541-.484,2.54,2.059,2.541,1.295,0,2.589,0,3.884,0,2.075-.006,2.066-.018,2.453-2.1,1.426-7.7,2.9-15.385,4.267-23.093C154.991.587,155.619.189,157.02.2c6.712.059,13.425.024,20.138.028,1.8,0,1.877.087,1.543,1.893-.329,1.784-.764,3.551-1.02,5.344-.159,1.111-.719,1.422-1.736,1.412-2.829-.027-5.659.043-8.486-.029-1.31-.034-1.949.393-2.043,1.737a17.253,17.253,0,0,1-.53,2.957c-.263,1.051.147,1.382,1.153,1.373,2.781-.026,5.562.015,8.343-.021,1.131-.015,1.577.333,1.3,1.529a47.16,47.16,0,0,0-.882,4.786c-.142,1.111-.708,1.427-1.73,1.417-2.733-.029-5.467.034-8.2-.026-1.232-.027-1.88.379-2,1.65a16.846,16.846,0,0,1-.542,2.955c-.363,1.282.026,1.7,1.36,1.687,4.458-.056,8.918.008,13.377-.029,4.161-.035,3.383.621,4.167-3.455q2.26-11.741,4.33-23.518A1.937,1.937,0,0,1,187.843,0c5.319.06,10.645-.124,15.953.289,3.714.289,7.344,1.01,10.209,3.676,3.461,3.221,3.3,7.249,2.191,11.3-1.072,3.911-3.992,6.113-7.846,6.98-1.474.331-1.479.858-1.016,2.024,1.5,3.772,2.927,7.574,4.373,11.367.641,1.682.5,1.885-1.334,1.892-2.925.012-5.851-.053-8.774.027a2.045,2.045,0,0,1-2.312-1.782c-1.33-4.635-2.746-9.246-4.131-13.866a2.538,2.538,0,0,0-.759-1.445M48.458,28.871c2.586,0,5.173-.039,7.757.018a1.523,1.523,0,0,0,1.8-1.5c.995-5.633,2.019-11.262,3.122-16.874.271-1.377-.21-1.669-1.445-1.657-4.118.039-8.237-.027-12.355.024-5.425.067-4.1-.874-5.2,4.586-.209,1.036.069,1.475,1.216,1.45,2.776-.061,5.554-.026,8.332-.016,1.762.006,1.882.156,1.558,1.924-.249,1.36-.582,2.707-.773,4.075-.179,1.282-.81,1.768-2.111,1.738-2.872-.065-5.746,0-8.619-.025-.973-.008-1.521.343-1.655,1.352a32.492,32.492,0,0,1-.623,3.519c-.286,1.158.193,1.417,1.24,1.4,2.585-.041,5.172-.014,7.758-.014M197.822,17.48a8.3,8.3,0,0,0,4.478-.995,4.921,4.921,0,0,0,2.24-5.039,3.985,3.985,0,0,0-3.618-3.352c-.941-.156-1.9-.207-2.85-.3-.929-.088-1.387.319-1.541,1.26-.323,1.975-.734,3.935-1.11,5.9-.486,2.542-.486,2.542,2.4,2.522" transform="translate(0 0)" fill="#7bc022"/>
  </g>
</svg>
