<svg id="Group_20379" data-name="Group 20379" xmlns="http://www.w3.org/2000/svg" xmlns:xlink="http://www.w3.org/1999/xlink" width="224.554" height="65.911" viewBox="0 0 224.554 65.911">
  <defs>
    <clipPath id="clip-path">
      <rect id="Rectangle_10866" data-name="Rectangle 10866" width="224.554" height="65.911" fill="none"/>
    </clipPath>
  </defs>
  <g id="Group_20378" data-name="Group 20378" clip-path="url(#clip-path)">
    <path id="Path_16068" data-name="Path 16068" d="M17.849,120.36q0-8.474,0-16.948c0-2.2.486-2.635,2.658-2.5,1.879.119,3.754-.007,5.625.1a28.609,28.609,0,0,1,7.661.988,8.555,8.555,0,0,1,5.647,6.037,13.291,13.291,0,0,1-.661,9.244,9.556,9.556,0,0,1-4.31,4.677,15.573,15.573,0,0,1-7.1,1.759c-1.223.042-2.436-.05-3.653-.026-.978.019-1.275.307-1.276,1.3-.005,4.262-.01,8.525.007,12.787,0,.627.105,1.254.134,1.884a1.5,1.5,0,0,0,.96,1.308c2.923,1.4,5.913,2.645,8.932,3.822a118.938,118.938,0,0,0,15.726,4.951,70.608,70.608,0,0,0,8.751,1.648c1.7.182,3.4.3,5.107.422,3.3.23,6.6.272,9.9.2,2.805-.058,5.608-.219,8.409-.442q3.894-.309,7.766-.789,4.478-.559,8.926-1.358c5.573-1,11.107-2.184,16.577-3.643,3.049-.813,6.062-1.762,9.086-2.664q5.562-1.659,11.173-3.144c6.161-1.639,12.333-3.23,18.528-4.734q6.855-1.664,13.784-2.99c3.876-.737,7.768-1.39,11.683-1.9,2.682-.347,5.364-.671,8.064-.854,1.605-.109,3.213-.151,4.815-.26,1.756-.119,3.51-.131,5.258-.075a65.717,65.717,0,0,1,14.93,1.814,33.517,33.517,0,0,1,11.718,5.613c.5.38,1.038.718,1.549,1.089.153.111.408.2.313.461s-.334.156-.526.125c-2.189-.352-4.375-.72-6.567-1.051-1.306-.2-2.616-.359-3.938-.441-2.3-.142-4.6-.167-6.9-.27-1.51-.068-3.017-.026-4.523-.09-3.65-.154-7.3-.133-10.954-.114-2.748.015-5.489.19-8.224.466-2.366.239-4.74.406-7.107.639-2.589.255-5.171.576-7.76.819-2.775.26-5.534.637-8.293,1.016q-3.837.528-7.662,1.147c-3.354.536-6.708,1.074-10.051,1.674-3.064.55-6.117,1.163-9.167,1.787-4.128.844-8.248,1.726-12.372,2.586-4.842,1.009-9.679,2.041-14.529,3.009-4.209.84-8.425,1.651-12.675,2.273-3.017.441-6.031.914-9.054,1.311-2.337.306-4.687.518-7.032.768-2.449.261-4.905.383-7.365.508-3.938.2-7.876.107-11.812.072-2.62-.023-5.243-.24-7.855-.479a97.569,97.569,0,0,1-21.407-4.156,86.045,86.045,0,0,1-9.268-3.629,57.114,57.114,0,0,1-8.584-4.785,36.37,36.37,0,0,1-5.744-4.819,47.93,47.93,0,0,1-5-6.536c-.144-.215-.269-.413-.039-.651s.448-.135.669-.017c1.816.967,3.634,1.932,5.446,2.908,1.775.957,3.539,1.935,5.315,2.89,1.9,1.023,3.823,2.011,5.713,3.055.541.3.585.131.585-.366q-.014-8.719-.006-17.437m4.584-8.068c0,2.1-.006,4.2,0,6.3,0,.938.332,1.25,1.25,1.264a40.5,40.5,0,0,0,5.363-.257,6.166,6.166,0,0,0,4.384-2.608,8.124,8.124,0,0,0,1.065-7.777,5.738,5.738,0,0,0-4.516-4.022,20.069,20.069,0,0,0-3.944-.343,11.319,11.319,0,0,1-2.016-.05c-1.089-.2-1.587.207-1.589,1.318q-.006,3.088,0,6.176" transform="translate(0 -88.524)" fill="#329f30"/>
    <path id="Path_16069" data-name="Path 16069" d="M980.291,112.256c0-2.977.053-5.955-.021-8.93-.04-1.607-.1-3.214-.1-4.821a4.2,4.2,0,0,1,.094-.907c.233-1.079.53-1.34,1.611-1.346.367,0,.735-.006,1.1,0,.738.015,1.006.267,1.174.975a12.1,12.1,0,0,1,.114,2.252c.009.175-.067.409.144.491s.319-.134.449-.254A20.4,20.4,0,0,1,988.3,97c3.534-2.067,9.159-1.35,11.276,3.049.314.653.328.629.884.122a20.067,20.067,0,0,1,4.493-3.438,8.449,8.449,0,0,1,9.987,1.979,7.146,7.146,0,0,1,1.655,4.38c.237,3.841.214,7.69.292,11.536.046,2.26.053,4.52.083,6.779.016,1.241-.448,1.683-1.7,1.69-.47,0-.939.005-1.409,0-1-.012-1.466-.47-1.469-1.46-.007-2.345,0-4.69,0-7.035,0-2.732.045-5.466-.016-8.2a8.335,8.335,0,0,0-1.508-5,4.052,4.052,0,0,0-4.909-1.317,9.91,9.91,0,0,0-4.188,3.454,7.219,7.219,0,0,0-1.046,5.029c.027.283.073.566.073.849q.007,5.872,0,11.745c0,1.469-.466,1.929-1.941,1.933-2.243.005-2.4-.146-2.4-2.373,0-3.772.053-7.545-.022-11.316a21.762,21.762,0,0,0-.591-5.684,5.33,5.33,0,0,0-1.944-3.218,4.153,4.153,0,0,0-4.813-.05,17.955,17.955,0,0,0-3.93,3.726,3.051,3.051,0,0,0-.533,2.027q0,7.493,0,14.987a5.335,5.335,0,0,1-.016.672,1.2,1.2,0,0,1-1.377,1.227q-.765.015-1.531,0c-1-.018-1.411-.429-1.412-1.42q0-4.71,0-9.42" transform="translate(-860.013 -84.133)" fill="#329f30"/>
    <path id="Path_16070" data-name="Path 16070" d="M572.135,133.381a16.641,16.641,0,0,1-6.812-1.462,5.522,5.522,0,0,1-3.135-5.067,6.894,6.894,0,0,1,1.957-5.273,8.54,8.54,0,0,1,1.127-.93c.324-.248.349-.426-.014-.684a4.452,4.452,0,0,1-2.141-3.384,6.393,6.393,0,0,1,.76-3.222,16.056,16.056,0,0,0,1.028-2.412,1.484,1.484,0,0,0-.136-1.225,9.386,9.386,0,0,1-1.222-5.158,9.265,9.265,0,0,1,2.318-5.654,8.44,8.44,0,0,1,5.968-2.812,32.439,32.439,0,0,1,5.42.13c.731.05,1.465.085,2.194.114,1.3.052,2.6.221,3.908.161a3.811,3.811,0,0,1,1.084.155,1.219,1.219,0,0,1,.964,1.189c.008.1,0,.2.005.306.015,1.645-.272,1.937-1.9,1.937-.51,0-1.022.019-1.531-.005s-.624.1-.375.583a9.425,9.425,0,0,1,1.022,3.051c.706,5.034-1.822,8.965-6.844,10.057a10.9,10.9,0,0,1-7.09-.8.706.706,0,0,0-1.031.306,7.63,7.63,0,0,0-.569,1.149,1.521,1.521,0,0,0,.562,1.982,6.318,6.318,0,0,0,3.579,1.238c2.694.232,5.4.29,8.089.616a6.394,6.394,0,0,1,5.629,4.621,7.465,7.465,0,0,1-2.083,7.4,10.178,10.178,0,0,1-5.085,2.527,27.529,27.529,0,0,1-5.644.562m1.411-3.347a10.943,10.943,0,0,0,4.816-1.15,4.049,4.049,0,0,0,2.406-3.749c-.046-1.861-.91-2.985-2.992-3.363-1.4-.254-2.818-.374-4.234-.5a14.537,14.537,0,0,0-3.038-.023c-1.858.222-2.829,1.477-3.6,2.962a3.182,3.182,0,0,0,1.279,4.608,11.294,11.294,0,0,0,5.366,1.216M567.9,105.141a4.993,4.993,0,0,0,.988,3.517,5.6,5.6,0,0,0,8.008.507,5.912,5.912,0,0,0,1.549-5.241,4.84,4.84,0,0,0-1.229-2.866,5.576,5.576,0,0,0-5.173-1.506,4.466,4.466,0,0,0-3.693,2.917,5.813,5.813,0,0,0-.45,2.673" transform="translate(-493.261 -84.252)" fill="#329f30"/>
    <path id="Path_16071" data-name="Path 16071" d="M1559.815,110.285q-3.674,0-7.349,0c-1.1,0-1.451.475-1.332,1.577a11.322,11.322,0,0,0,1.109,4.093,6.55,6.55,0,0,0,5.019,3.575,14.654,14.654,0,0,0,6.977-.743c1.124-.361,2.254-.707,3.383-1.053.539-.165.62-.087.522.469-.141.8-.33,1.6-.405,2.4a1.383,1.383,0,0,1-1.059,1.253,22.069,22.069,0,0,1-4.842,1.243,18.644,18.644,0,0,1-7.511-.429,9.426,9.426,0,0,1-6.876-6.868,23.285,23.285,0,0,1-.889-5.521,17.166,17.166,0,0,1,2.269-9.642,9.741,9.741,0,0,1,7.02-4.716,13.132,13.132,0,0,1,6.229.2,9.629,9.629,0,0,1,6.593,6.95,17.62,17.62,0,0,1,.493,5.752c-.032.969-.667,1.448-1.88,1.455-2.49.014-4.981,0-7.471.005m-2.123-3.232c1.817,0,3.633,0,5.449,0a1.376,1.376,0,0,0,1.576-1.563,6.194,6.194,0,0,0-1.708-4.2,6.433,6.433,0,0,0-5.894-1.983,5.989,5.989,0,0,0-4.011,2.216,9.534,9.534,0,0,0-1.914,4.427c-.143.729.211,1.1.991,1.1,1.837.008,3.674,0,5.511,0" transform="translate(-1356.96 -83.924)" fill="#329f30"/>
    <path id="Path_16072" data-name="Path 16072" d="M361.776,107.355c.819,0,1.472.007,2.126,0,.975-.013,1.369-.295,1.366-1.236a9.377,9.377,0,0,0-.81-4.452,4.266,4.266,0,0,0-3.638-2.323,12.692,12.692,0,0,0-7.863,1.927c-.545.328-1.163.769-1.82.367s-.548-1.13-.536-1.773a2.284,2.284,0,0,1,1.31-2.1,17.024,17.024,0,0,1,6.583-2.111,13.347,13.347,0,0,1,7.764,1.428,6.385,6.385,0,0,1,3.133,4.91,20.414,20.414,0,0,1,.127,2.618c.215,5.356.079,10.715.12,16.072a4.818,4.818,0,0,1-.114,1.15,1.2,1.2,0,0,1-1.145.991c-.366.019-.734.006-1.1.006-1.161,0-1.365-.445-1.474-1.5-.035-.342-.01-.691-.019-1.036s-.144-.449-.45-.214c-.5.385-1.011.754-1.511,1.139a10.282,10.282,0,0,1-11.439.535,6.705,6.705,0,0,1-3.015-5.634,7.135,7.135,0,0,1,1.217-4.75,8.362,8.362,0,0,1,3.973-2.926,19.018,19.018,0,0,1,7.22-1.079m3.507,6.421a7.638,7.638,0,0,0-.238-2.38,1.123,1.123,0,0,0-.828-.9,6.257,6.257,0,0,0-1.742-.282,22.415,22.415,0,0,0-5.481,1.12,4.135,4.135,0,0,0-3.054,4.642c.32,2.675,3.027,3.977,5.094,3.8a8.463,8.463,0,0,0,3.975-1.753,4.375,4.375,0,0,0,2.274-4.252" transform="translate(-306.524 -83.858)" fill="#329f30"/>
    <path id="Path_16073" data-name="Path 16073" d="M792.067,123.2a12.479,12.479,0,0,1-5.807-1.159,2.889,2.889,0,0,1-1.711-3.994c.161-.438.354-.6.857-.42a54.021,54.021,0,0,0,5.253,1.8,7.07,7.07,0,0,0,4.925-.633,3.432,3.432,0,0,0,.427-5.814,22.252,22.252,0,0,0-4.888-2.484,12.775,12.775,0,0,1-4.186-2.457,7.084,7.084,0,0,1,0-9.85,9,9,0,0,1,5.04-2.4,12.4,12.4,0,0,1,5.21.213,7.745,7.745,0,0,1,1.917.784,2.929,2.929,0,0,1,1.173,3.675c-.12.328-.31.362-.62.273a19.387,19.387,0,0,1-2.051-.79,8.627,8.627,0,0,0-5.062-.707,3.721,3.721,0,0,0-3.3,3.719,3.617,3.617,0,0,0,2.3,3.129,53.615,53.615,0,0,0,5.213,2.407,8.245,8.245,0,0,1,4.058,3.091,5.723,5.723,0,0,1,.922,3.055,9.307,9.307,0,0,1-.366,3.436A7.522,7.522,0,0,1,796,122.716a10.355,10.355,0,0,1-3.928.485" transform="translate(-688.15 -83.886)" fill="#329f30"/>
    <path id="Path_16074" data-name="Path 16074" d="M1453.915,19.367V2.123c0-.2,0-.408,0-.611.033-1.236.309-1.508,1.527-1.509.592,0,1.184-.007,1.775,0a.955.955,0,0,1,1.026.967c.019.243.008.489.008.734q0,17.03,0,34.06a18.065,18.065,0,0,1,.014,1.822,1.364,1.364,0,0,1-1.465,1.376q-.643.009-1.286,0c-1.044-.013-1.343-.249-1.535-1.259a4.917,4.917,0,0,1-.059-.911q0-8.714,0-17.427" transform="translate(-1275.684 0)" fill="#329f30"/>
    <path id="Path_16075" data-name="Path 16075" d="M1348.971,112.108q0-5.718,0-11.435c0-1.493.436-1.925,1.927-1.926.184,0,.368.011.551,0,1.384-.1,2,.383,1.958,1.975-.08,3.054-.1,6.108-.1,9.162,0,3.4.014,6.8-.008,10.2-.007,1.162.176,2.311.14,3.474-.051,1.6-.463,2.039-2.055,2.04h-.673c-1.241-.006-1.737-.492-1.739-1.746q-.009-5.412,0-10.824,0-.459,0-.917" transform="translate(-1183.604 -86.629)" fill="#329f30"/>
    <path id="Path_16076" data-name="Path 16076" d="M1344.948,22.836a2.653,2.653,0,0,1,2.688-2.842,2.826,2.826,0,0,1,.058,5.648,2.721,2.721,0,0,1-2.747-2.807" transform="translate(-1180.071 -17.543)" fill="#329f30"/>
  </g>
</svg>
