<svg id="Group_20385" data-name="Group 20385" xmlns="http://www.w3.org/2000/svg" xmlns:xlink="http://www.w3.org/1999/xlink" width="190.055" height="53.144" viewBox="0 0 190.055 53.144">
  <defs>
    <clipPath id="clip-path">
      <rect id="Rectangle_10869" data-name="Rectangle 10869" width="190.055" height="53.144" fill="none"/>
    </clipPath>
  </defs>
  <g id="Group_20384" data-name="Group 20384" clip-path="url(#clip-path)">
    <path id="Path_16121" data-name="Path 16121" d="M18.641,28.849a16.876,16.876,0,0,0,7.6-1.636c3.466-1.707,5.188-6.733,5.036-9.625-.214-4.077-3.275-8.3-6.609-9.109a19.2,19.2,0,0,0-5.688-.747,50.7,50.7,0,0,1-7.792-.019c-2.49-.241-2.861.723-2.842,2.958.11,13.039.017,26.079.1,39.117.011,1.858-.4,2.47-2.376,2.434C.042,52.114.041,52.206.041,46.2.041,31.617.073,17.039,0,2.461-.009.616.38-.022,2.368.021,8.7.159,15.052-.164,21.376.125,32.655.64,39.563,7.465,39.527,18.646c-.025,7.624-4.6,14.205-12.664,16.908-.373.125-.809.053-1,.513l-7.227-7.218" transform="translate(0 0)" fill="#011ca9"/>
    <path id="Path_16122" data-name="Path 16122" d="M391.818,203.982c-5.6.443-5.6.443-7.661-5.474-.393-1.128-.617-2.217-2.31-2.245-3.633-.06-3.632-.161-3.632,3.52v.972c0,3.219-.731,3.889-3.912,3.839-1.24-.019-1.23-.754-1.23-1.6q0-10.326-.006-20.651c0-.823.086-1.418,1.153-1.352,4.166.258,8.369-.513,12.512.692,2.623.762,4.581,2.321,5.078,4.842.482,2.443.726,5.36-1.8,7.031-2.3,1.518-1.682,2.991-.7,4.84.922,1.741,1.629,3.595,2.514,5.588m-13.6-15.231c.114,1.789-.921,4.027,2.7,3.746,4.768-.37,5.672-.67,5.686-3.846.013-2.83-1.13-3.243-5.657-3.617-3.568-.294-2.614,1.915-2.725,3.716" transform="translate(-313.298 -151.985)" fill="#fff"/>
    <path id="Path_16123" data-name="Path 16123" d="M81.134,180.069l7.227,7.218,15.489,16.08c-4.531,0-8.538,0-12.543,0-.848,0-1.268-.662-1.769-1.16-4.716-4.686-9.386-9.417-14.141-14.063-1.19-1.163-1.414-2.067-.016-3.131,2.016-1.534,3.124-4.119,5.754-4.945" transform="translate(-62.493 -151.22)" fill="#f9c331"/>
    <path id="Path_16124" data-name="Path 16124" d="M372.917,12.94c0-3.314-.01-6.629.008-9.943,0-.758-.254-1.813,1.028-1.752,4.082.2,8.214-.628,12.241.77,4.179,1.451,5.92,4.58,5.1,9.5-.406,2.442-4.409,5.458-7.349,5.61-1.915.1-4.451-.878-5.565.424-.935,1.092-.374,3.544-.3,5.386.11,2.695-1.849,1.746-3.2,1.961-1.669.266-2.044-.481-2-2.019.1-3.311.032-6.628.032-9.942m5.142-3.727c0,4.014,0,4.014,2.612,4.015,4,0,5.751-1.248,5.746-4.092,0-2.626-1.529-3.695-5.272-3.7-3.086,0-3.086,0-3.086,3.772" transform="translate(-313.141 -0.99)" fill="#fff"/>
    <path id="Path_16125" data-name="Path 16125" d="M699.9,233.4c0,2.019-.026,4.038.011,6.057.018.948,0,1.957-1.195,1.949s-2.862.792-3.431-.8c-.427-1.2-.54-1.261-1.47-.49-2.4,1.987-5.052,2.665-7.847.868a8.235,8.235,0,0,1-4.082-7.661c.079-3.949,1.407-6.705,5.286-8a6.749,6.749,0,0,1,6.12.757c.405.259,1.186,1.816,2.035-.132.558-1.279,2.462-.447,3.741-.47,1.307-.023.782,1.179.805,1.866.067,2.017.024,4.037.024,6.056m-4.723-.13c.006-2.671-1.341-3.947-4.179-3.958-3.414-.014-4.607,1-4.605,3.92,0,2.637,1.973,4.88,4.238,4.821a4.617,4.617,0,0,0,4.546-4.782" transform="translate(-572.637 -188.884)" fill="#fff"/>
    <path id="Path_16126" data-name="Path 16126" d="M511.741,54.212c0,2.019.013,4.038-.006,6.058-.008.862.173,2.042-1.112,2-1.239-.044-3.054.914-3.6-.891-.46-1.534-.806-.921-1.511-.347-2.112,1.717-4.487,2.523-7.035,1.193-2.823-1.473-4.792-3.622-4.747-7.124.069-5.376,1.4-7.648,5.214-9.011a8.5,8.5,0,0,1,2.1-.289,6.405,6.405,0,0,1,5.021,1.8c1.129-1.459,2.713-1.349,4.322-1.34,1.071.006,1.4.38,1.371,1.417-.062,2.179-.019,4.361-.018,6.542m-4.812-.2a4.3,4.3,0,0,0-4.058-4.31c-2.643.023-5,1.929-4.779,4.4.258,2.881,1.544,4.343,4.5,4.326,2.868-.016,4.352-1.524,4.342-4.411" transform="translate(-414.631 -38.427)" fill="#fff"/>
    <path id="Path_16127" data-name="Path 16127" d="M631.563,48.6c-1.485,6.04-2.923,11.9-4.372,17.767-.8,3.247-4.735,5.568-7.8,4.575-1.193-.387-1.363-1.5-1.431-2.521-.081-1.242.823-1.386,1.8-1.357a9.865,9.865,0,0,0,1.7-.017,1.844,1.844,0,0,0,1.834-2.1c-.108-1.4-1.286-.838-1.86-.736-1.961.349-2.564-.83-2.943-2.31-1-3.886-1.959-7.779-2.917-11.674-.237-.964-.234-1.685,1.179-1.662,1.97.032,3.737-.356,3.846,2.732.1,2.7,1.161,5.364,1.7,8.063.167.835.415,1.377,1.323,1.378,1.051,0,.73-1,.849-1.457.755-2.887,1.469-5.8,1.952-8.738.281-1.71,1.036-2.212,2.642-1.967a17.18,17.18,0,0,0,2.49.021" transform="translate(-516.859 -40.746)" fill="#fff"/>
    <path id="Path_16128" data-name="Path 16128" d="M908.553,233.961c2.147,4.853,4.8,5.528,8.747,2.6a4.55,4.55,0,0,1,1.037-.57c1.09-.429,2.65-.67,3.209.011.776.946-.379,2.009-1.137,2.828-2.8,3.022-6.736,4.106-10.157,2.63-3.385-1.461-5.915-4.14-5.546-8.82.411-5.2,4.9-8.013,9.683-7.534,4.326.434,6.748,3.012,7.706,7.212.337,1.478-.156,1.667-1.375,1.658-3.957-.03-7.914-.011-12.167-.011m4.8-2.508c.974,0,1.948.019,2.92-.01.366-.011.843.157,1.039-.347.184-.475-.213-.716-.463-1.018-1.208-1.456-5.549-1.63-6.855-.288a1.2,1.2,0,0,0-.363,1.313c.174.462.668.334,1.045.342.892.019,1.785.006,2.677.007" transform="translate(-759.731 -188.994)" fill="#fff"/>
    <path id="Path_16129" data-name="Path 16129" d="M514.881,235.637c-.979,3.649-4.834,5.868-8.853,5.8-3.848-.061-6.771-3.11-7.848-6.09-1.7-4.71,1.179-9.4,6.325-10.793,4.443-1.2,9.679,1.877,10.586,6.279.328,1.594.195,2.71-2.068,2.548-3.145-.224-6.321.017-9.479-.083-1.977-.063-1.739.792-1.039,1.983a4.5,4.5,0,0,0,6.622,1.491c1.888-1.327,3.742-1.178,5.756-1.14m-4.3-4.817c-1.211-2.836-5.614-3.534-7.571-1.367-.259.287-.652.527-.462,1.007.2.5.669.347,1.031.35,2.254.019,4.509.01,7,.01" transform="translate(-417.954 -188.361)" fill="#fff"/>
    <path id="Path_16130" data-name="Path 16130" d="M1103.952,243.15c-.812,0-1.625-.035-2.435.008-1.3.069-2.243.106-2.26-1.8-.017-1.989.929-2.008,2.365-1.941,1.62.075,3.246.019,4.87.014,1.115,0,2.185-.076,2.137-1.612-.044-1.429-1.068-1.363-2.073-1.373a15.12,15.12,0,0,1-3.63-.149c-2.657-.7-3.863-2.615-3.581-5.419.257-2.564,2.29-3.405,4.343-3.653a71.153,71.153,0,0,1,7.782-.142c1.586-.016.932,1.187,1.009,1.928.081.778.223,1.663-1.109,1.62-1.946-.063-3.9-.007-5.844-.008-.841,0-1.734.01-1.769,1.133-.04,1.275.917,1.293,1.859,1.295,2.307,0,4.6-.15,6.493,1.7,1.574,1.541,1.073,3.435.758,5a4.31,4.31,0,0,1-3.368,3.041,25,25,0,0,1-5.545.357" transform="translate(-923.143 -190.673)" fill="#fff"/>
    <path id="Path_16131" data-name="Path 16131" d="M861.634,193.834c0-3.322.11-6.65-.039-9.966-.1-2.165,1.341-1.547,2.407-1.559,1.09-.012,2.456-.559,2.423,1.573-.105,6.643-.071,13.29-.021,19.934.017,2.306-1.612,1.664-2.881,1.827-1.473.19-1.984-.3-1.927-1.844.122-3.318.038-6.644.038-9.966" transform="translate(-723.553 -153.04)" fill="#fff"/>
    <path id="Path_16132" data-name="Path 16132" d="M612.787,214.724c0-1.053.018-2.106,0-3.158-.034-1.642.684-3.719-2.4-3.379-.95.1-.87-1.108-.956-1.923-.1-.978.355-1.723,1.171-1.711,1.77.026,1.975-.943,1.77-2.265-.383-2.464,1.418-1.68,2.623-1.8,1.423-.148,2.589-.1,2.281,1.909-.211,1.376-.09,2.7,1.914,2.473,1.224-.14,1,.747.977,1.432-.026.646.326,1.631-.922,1.491-1.905-.214-1.845,1.031-1.837,2.31.016,2.753-.208,5.527.06,8.254.312,3.18-2.307,2.111-3.555,2.435-1.8.467-.988-1.35-1.082-2.182a34.657,34.657,0,0,1-.038-3.883" transform="translate(-511.777 -168.321)" fill="#fff"/>
    <path id="Path_16133" data-name="Path 16133" d="M1028.915,232.96c0-2.02-.051-4.042.028-6.059.026-.67-.549-1.938.754-1.857,1.216.075,2.878-.994,3.617.621.494,1.081.748.745,1.294.254.06-.054.109-.133.179-.162,1.213-.495,2.631-2.043,3.618-1.072s.319,2.919.275,4.435c-.03,1.042-.949.645-1.5.689-3.6.286-3.6.272-3.6,3.789,0,1.778-.034,3.556.012,5.333.026,1.009-.087,1.529-1.382,1.653-3.3.317-3.287.426-3.287-3.018q0-2.3,0-4.606" transform="translate(-864.007 -188.425)" fill="#fff"/>
    <path id="Path_16134" data-name="Path 16134" d="M813.389,235.738c0-2.184.1-4.374-.028-6.551-.115-2.008,1.279-1.477,2.268-1.434,1.018.044,2.558-.747,2.508,1.464-.1,4.285-.036,8.575-.025,12.862.006,2.34-1.773,1.5-2.978,1.689-1.364.215-1.847-.331-1.774-1.722.109-2.1.028-4.205.029-6.309" transform="translate(-683.044 -191.178)" fill="#fff"/>
    <path id="Path_16135" data-name="Path 16135" d="M812.693,182.2c1.787-.394,2.8.016,2.5,2.128-.191,1.34.457,2.891-2.047,2.723-1.933-.13-2.937-.343-2.909-2.646.024-1.973.586-2.656,2.459-2.205" transform="translate(-680.424 -152.9)" fill="#fff"/>
  </g>
</svg>
