<svg id="Group_20372" data-name="Group 20372" xmlns="http://www.w3.org/2000/svg" xmlns:xlink="http://www.w3.org/1999/xlink" width="161.908" height="55.341" viewBox="0 0 161.908 55.341">
  <defs>
    <clipPath id="clip-path">
      <rect id="Rectangle_10863" data-name="Rectangle 10863" width="161.908" height="55.341" fill="none"/>
    </clipPath>
  </defs>
  <g id="Group_20371" data-name="Group 20371" clip-path="url(#clip-path)">
    <path id="Path_16053" data-name="Path 16053" d="M.957,91.75q0-2.833,0-5.666c0-.383.007-.39.369-.249a42.291,42.291,0,0,0,9.391,2.417c1.4.2,2.808.3,4.222.365a19.473,19.473,0,0,0,4.973-.352A6.909,6.909,0,0,0,23.7,86.357a3.779,3.779,0,0,0,.109-4.929,4.443,4.443,0,0,0-2.455-1.289,20.952,20.952,0,0,0-2.89-.324A26.067,26.067,0,0,1,6.851,76.388,13.722,13.722,0,0,1,.132,65.966,15.119,15.119,0,0,1,3.767,53.822,16.393,16.393,0,0,1,10.6,49.211a26.484,26.484,0,0,1,7.253-1.532,48.827,48.827,0,0,1,5.979-.036A48.14,48.14,0,0,1,34.059,49.08c1.39.364,2.753.813,4.115,1.266.3.1.3.3.3.542q0,4.637,0,9.275c0,.549,0,1.1,0,1.646,0,.381-.05.418-.4.265a46.317,46.317,0,0,0-10.768-3,28.67,28.67,0,0,0-6.149-.391,10.669,10.669,0,0,0-3.86.766,3.537,3.537,0,0,0-2.266,2.467,3.4,3.4,0,0,0,2.269,4.294,9.2,9.2,0,0,0,2.692.534,32.724,32.724,0,0,1,9.977,2.024,18.452,18.452,0,0,1,5.916,3.6,13.928,13.928,0,0,1,4.459,8.649,15.22,15.22,0,0,1-1.6,9.261,15.99,15.99,0,0,1-6.375,6.479,23.868,23.868,0,0,1-8.708,2.823,42.18,42.18,0,0,1-7.014.288A71.5,71.5,0,0,1,3.823,98.491c-.836-.176-1.664-.391-2.5-.571a.4.4,0,0,1-.372-.472c.012-1.9.006-3.8.006-5.7" transform="translate(0 -44.554)" fill="#7c1b5b"/>
    <path id="Path_16054" data-name="Path 16054" d="M705.625,74.979a23.2,23.2,0,0,0,2.18-2.741,46.091,46.091,0,0,0,5.336-9.962.4.4,0,0,1,.443-.3q7.617.008,15.235,0c.37,0,.384.022.265.382a61.437,61.437,0,0,1-5.146,11.368,54.761,54.761,0,0,1-4.3,6.407.426.426,0,0,0-.039.557,132.752,132.752,0,0,1,7.175,14.622,35.7,35.7,0,0,1,1.407,4.131c.115.428.092.458-.34.458q-7.934,0-15.868.006c-.306,0-.411-.113-.482-.4a55.865,55.865,0,0,0-4.365-12.085c-.389-.761-.822-1.5-1.275-2.223-.047-.075-.073-.176-.184-.207a.631.631,0,0,0-.038.368q0,6.995,0,13.99c0,.549,0,.55-.536.55H692.166c-.5,0-.5,0-.5-.507q0-23.991,0-47.983c0-.5,0-.494.478-.588l13.042-2.57c.433-.085.443-.08.443.367q0,12.977,0,25.954Z" transform="translate(-647.825 -45.155)" fill="#7c1b5b"/>
    <path id="Path_16055" data-name="Path 16055" d="M2044.117,74q0,12.629,0,25.258c0,.116,0,.232,0,.348,0,.184-.079.275-.266.267-.074,0-.148,0-.222,0h-12.574c-.493,0-.5,0-.5-.489q0-24.182,0-48.364c0-.476,0-.478.477-.563L2043.71,48.2c.4-.07.406-.06.406.385q0,12.708,0,25.416" transform="translate(-1901.86 -45.117)" fill="#7c1b5b"/>
    <path id="Path_16056" data-name="Path 16056" d="M2354.709,74.055V99.373c0,.541,0,.542-.533.542H2341.7c-.516,0-.517,0-.517-.527V51.125c0-.528,0-.528.51-.618l12.583-2.247c.425-.076.435-.069.435.383q0,12.706,0,25.413" transform="translate(-2192.801 -45.167)" fill="#7c1b5b"/>
    <path id="Path_16057" data-name="Path 16057" d="M1312.6,284.731q0-4.953,0-9.906a21.845,21.845,0,0,1,.84-6.31,13.644,13.644,0,0,1,8.513-9.119,24.97,24.97,0,0,1,6.576-1.529,36.086,36.086,0,0,1,3.947-.221,15.292,15.292,0,0,1,2.115.128c.445.063.446.072.448.514,0,.232,0,.464,0,.7q0,4.747,0,9.495c0,.495,0,.48-.481.507a16.194,16.194,0,0,0-4.356.714,5.177,5.177,0,0,0-3.563,4.085,14.91,14.91,0,0,0-.332,2.854c-.129,6.276-.023,12.553-.058,18.829,0,.116-.006.232,0,.348.008.192-.088.268-.27.261-.074,0-.148,0-.222,0h-12.668c-.487,0-.488,0-.488-.491q0-5.428,0-10.856" transform="translate(-1229.413 -241.317)" fill="#7c1b5b"/>
    <path id="Path_16058" data-name="Path 16058" d="M1728.442,285.3q0-9.209,0-18.418c0-.52,0-.521.523-.521h12.509c.528,0,.529,0,.529.524v36.837c0,.5,0,.5-.516.505h-12.541c-.5,0-.5,0-.5-.508q0-9.209,0-18.418" transform="translate(-1618.896 -249.483)" fill="#7c1b5b"/>
    <path id="Path_16059" data-name="Path 16059" d="M1743.243,6.682a6.67,6.67,0,0,1-6.7,6.644,6.593,6.593,0,0,1-6.646-6.647A6.6,6.6,0,0,1,1736.542,0a6.678,6.678,0,0,1,6.7,6.682" transform="translate(-1620.255 0)" fill="#7c1b5b"/>
  </g>
</svg>
