<svg xmlns="http://www.w3.org/2000/svg" width="139.484" height="139.973" viewBox="0 0 139.484 139.973">
  <g id="support_1_" data-name="support (1)" transform="translate(-0.894)">
    <path id="Path_16678" data-name="Path 16678" d="M247.789,17.786a2.753,2.753,0,0,0,2.753-2.753V2.753a2.753,2.753,0,0,0-5.507,0v12.28A2.754,2.754,0,0,0,247.789,17.786Z" transform="translate(-177.397 0)" fill="#15c8ff"/>
    <path id="Path_16679" data-name="Path 16679" d="M137.692,154.281l-4.864-4.85a9.22,9.22,0,0,0-10.909-1.557l-9.165-9.155.446-.446a9.556,9.556,0,0,0,0-13.493,9.451,9.451,0,0,0-4.793-2.592,9.615,9.615,0,0,0,.38-2.679,9.534,9.534,0,0,0-7.585-9.338,9.614,9.614,0,0,0,.38-2.679A9.525,9.525,0,0,0,94,98.159,9.528,9.528,0,0,0,83.815,86L65.652,82.561c-2.77-.525-6.229-.873-8.413,1.119a4.976,4.976,0,0,0-.417.431A9.575,9.575,0,0,0,46.777,86.32a9.472,9.472,0,0,0-2.789,6.75,9.627,9.627,0,0,0,.379,2.679,9.536,9.536,0,0,0-7.582,9.328,9.6,9.6,0,0,0,.38,2.686A9.547,9.547,0,0,0,31.247,122.5a9.541,9.541,0,0,0-3.665,15.784l.445.443-9.167,9.15a9.205,9.205,0,0,0-10.415,1.8L3.578,154.53a9.2,9.2,0,0,0,0,12.988l6.074,6.066a2.753,2.753,0,0,0,3.891-3.9L7.47,163.622a3.692,3.692,0,0,1,0-5.195l4.867-4.853a3.686,3.686,0,0,1,4.491-.551,2.775,2.775,0,0,0,.346.424,2.74,2.74,0,0,0,.791.55l27.911,27.87a2.712,2.712,0,0,0,1.327,1.341,3.685,3.685,0,0,1-.153,5.027l-4.862,4.856a3.7,3.7,0,0,1-5.206,0l-6.074-6.074a2.753,2.753,0,0,0-3.894,3.894l6.078,6.079a9.218,9.218,0,0,0,12.984,0l4.865-4.859a9.206,9.206,0,0,0,1.289-11.37l10.316-10.3.033-.034c1.181-1.221,4.471-.993,7.652-.772a39.6,39.6,0,0,0,7.243.048l11.3,11.284a9.2,9.2,0,0,0,1.562,10.9l4.865,4.859a9.206,9.206,0,0,0,12.986,0l29.509-29.474a9.2,9.2,0,0,0,0-12.989ZM64.627,87.971,76.57,90.232l-7.149,7.146a17.357,17.357,0,0,1-4.284-3.113c-2.276-2.177-3.9-4.691-4.052-6.259a.008.008,0,0,1,0,0h0a2.4,2.4,0,0,1-.012-.271,9.329,9.329,0,0,1,3.554.24ZM50.669,90.216a4.061,4.061,0,0,1,5.138-.487c.893,3.745,4.088,7.139,5.525,8.514,1.065,1.019,4.483,4.075,7.932,4.915a4.041,4.041,0,0,1-6.177,5.161h0L50.668,95.923a4.054,4.054,0,0,1,0-5.707Zm-7.194,12.014a4.061,4.061,0,0,1,5.721,0l10,9.978a4.046,4.046,0,0,1-5.727,5.718h0l-7.585-7.583-.037-.035-2.373-2.372a4.04,4.04,0,0,1,0-5.709Zm-7.208,12.012a4.073,4.073,0,0,1,5.7-.019l7.608,7.6a4.041,4.041,0,0,1-5.726,5.7l-2.758-2.755,0,0-4.824-4.819a4.051,4.051,0,0,1,0-5.714Zm-4.8,14.431a4.07,4.07,0,0,1,5.729,0l2.762,2.759a4.041,4.041,0,0,1-5.729,5.7l-.346-.344-.013-.014-.016-.014-2.386-2.377a4.043,4.043,0,0,1,0-5.71Zm56.108,31.291a2.753,2.753,0,0,0-3.894,0l-2.45,2.447c-2.328,2.328-6.545,2.035-10.624,1.752-4.429-.308-9.009-.625-11.973,2.417L48.5,176.706l-25.36-25.323,8.975-8.959a9.548,9.548,0,0,0,14.534-8.143c0-.024,0-.047,0-.071l.071,0a9.524,9.524,0,0,0,9.545-9.533c0-.024,0-.047,0-.071l.072,0A9.513,9.513,0,0,0,65.876,115l.074,0A9.551,9.551,0,0,0,74.1,100.489l7.866-7.863a4.039,4.039,0,0,1,2.067-1.1c.082-.009.163-.022.243-.038A4.035,4.035,0,0,1,87.7,98.335l-2.4,2.386-.024.023L82.523,103.5a2.753,2.753,0,0,0,3.891,3.9l2.405-2.4,0,0,.364-.362a4.055,4.055,0,0,1,5.714.014,4.04,4.04,0,0,1-.006,5.707l-2.409,2.414h0l-2.759,2.748a2.753,2.753,0,0,0,3.886,3.9l2.772-2.76a4.041,4.041,0,0,1,5.719,5.711l-4.8,4.805a2.753,2.753,0,1,0,3.894,3.893l2.354-2.355c.013-.013.028-.024.041-.037a4.041,4.041,0,0,1,5.72,5.71l-2.393,2.391,0,0,0,0-3.8,3.794a2.753,2.753,0,0,0,3.891,3.9l1.858-1.856,8.906,8.9L92.405,176.833l-9.086-9.075a10.824,10.824,0,0,0,1.808-1.455l2.448-2.445a2.752,2.752,0,0,0,0-3.893Zm46.223,3.41-29.509,29.474a3.7,3.7,0,0,1-5.2,0l-4.865-4.859a3.682,3.682,0,0,1,0-5.188l29.509-29.474a3.7,3.7,0,0,1,5.206,0l4.864,4.85a3.691,3.691,0,0,1,0,5.2Z" transform="translate(0 -59.694)" fill="#15c8ff"/>
    <path id="Path_16680" data-name="Path 16680" d="M92.564,17.46a2.753,2.753,0,0,0,3.89-3.9L86.421,3.549a2.753,2.753,0,1,0-3.89,3.9Z" transform="translate(-58.732 -1.994)" fill="#15c8ff"/>
    <path id="Path_16681" data-name="Path 16681" d="M374.4,18.264a2.746,2.746,0,0,0,1.946-.805L386.375,7.446a2.753,2.753,0,1,0-3.891-3.9L372.459,13.564a2.753,2.753,0,0,0,1.946,4.7Z" transform="translate(-269.398 -1.995)" fill="#15c8ff"/>
    <path id="Path_16682" data-name="Path 16682" d="M60.72,431.016a2.753,2.753,0,0,0,.033,3.894l.008.008a2.753,2.753,0,1,0-.041-3.9Z" transform="translate(-42.896 -312.585)" fill="#15c8ff"/>
    <path id="Path_16683" data-name="Path 16683" d="M335.27,337.626a2.754,2.754,0,1,0-1.237-5.213l-.015.008a2.752,2.752,0,0,0,1.252,5.205Z" transform="translate(-240.957 -241.322)" fill="#15c8ff"/>
  </g>
</svg>
