<svg xmlns="http://www.w3.org/2000/svg" width="116.401" height="141.489" viewBox="0 0 116.401 141.489">
  <g id="Group_20346" data-name="Group 20346" transform="translate(-230.605 -374)">
    <g id="g2346" transform="translate(230.605 496.622)">
      <g id="g2362" transform="translate(0 0)">
        <g id="Group_20305" data-name="Group 20305">
          <g id="g2372" transform="translate(0 6.934)">
            <path id="path2374" d="M62.634,2.5H0A2.5,2.5,0,0,1-2.5,0,2.5,2.5,0,0,1,0-2.5H62.634a2.5,2.5,0,0,1,2.5,2.5A2.5,2.5,0,0,1,62.634,2.5Z" transform="translate(2.5 2.5)" fill="#15c8ff"/>
          </g>
          <g id="g2376" transform="translate(76.501 6.934)">
            <path id="path2378" d="M34.9,2.5H0A2.5,2.5,0,0,1-2.5,0,2.5,2.5,0,0,1,0-2.5H34.9A2.5,2.5,0,0,1,37.4,0,2.5,2.5,0,0,1,34.9,2.5Z" transform="translate(2.5 2.5)" fill="#15c8ff"/>
          </g>
          <g id="g2380" transform="translate(62.633)">
            <path id="path2382" d="M-73.066-42.5a9.444,9.444,0,0,1,9.434,9.434,9.444,9.444,0,0,1-9.434,9.434A9.444,9.444,0,0,1-82.5-33.066,9.444,9.444,0,0,1-73.066-42.5Zm0,13.867a4.439,4.439,0,0,0,4.434-4.434A4.439,4.439,0,0,0-73.066-37.5,4.439,4.439,0,0,0-77.5-33.066,4.439,4.439,0,0,0-73.066-28.633Z" transform="translate(82.5 42.5)" fill="#15c8ff"/>
          </g>
        </g>
      </g>
    </g>
    <g id="hosting" transform="translate(230.922 374)">
      <g id="Group_20307" data-name="Group 20307">
        <g id="Group_20306" data-name="Group 20306">
          <path id="Path_16016" data-name="Path 16016" d="M116.084,35.771a9.334,9.334,0,0,0-.782-3.751v0L103.963,6a10.192,10.192,0,0,0-9.418-6H21.539a10.192,10.192,0,0,0-9.418,6L.782,32.02A9.336,9.336,0,0,0,0,35.771V49.213a9.481,9.481,0,0,0,2.606,6.5A9.481,9.481,0,0,0,0,62.221V75.229a9.481,9.481,0,0,0,2.606,6.5A9.481,9.481,0,0,0,0,88.236v13.008A10,10,0,0,0,10.2,111h95.679a10,10,0,0,0,10.2-9.756V88.236a9.481,9.481,0,0,0-2.606-6.5,9.48,9.48,0,0,0,2.606-6.5V62.221a9.481,9.481,0,0,0-2.606-6.5,9.48,9.48,0,0,0,2.606-6.5ZM18.4,8.5a3.4,3.4,0,0,1,3.139-2H94.545a3.4,3.4,0,0,1,3.139,2l7.632,17.511H10.768Zm90.883,92.739a3.333,3.333,0,0,1-3.4,3.252H10.2a3.333,3.333,0,0,1-3.4-3.252V88.236a3.333,3.333,0,0,1,3.4-3.252h95.679a3.333,3.333,0,0,1,3.4,3.252Zm0-26.016a3.333,3.333,0,0,1-3.4,3.252H10.2a3.333,3.333,0,0,1-3.4-3.252V62.221a3.333,3.333,0,0,1,3.4-3.252h95.679a3.333,3.333,0,0,1,3.4,3.252Zm0-26.016a3.333,3.333,0,0,1-3.4,3.252H10.2a3.333,3.333,0,0,1-3.4-3.252V35.771a3.324,3.324,0,0,1,3.4-3.252h95.679a3.324,3.324,0,0,1,3.4,3.252Z" transform="translate(0)" fill="#15c8ff"/>
        </g>
      </g>
      <g id="Group_20309" data-name="Group 20309" transform="translate(37.604 91.488)">
        <g id="Group_20308" data-name="Group 20308">
          <path id="Path_16017" data-name="Path 16017" d="M212.221,422H153.252a3.252,3.252,0,0,0,0,6.5h58.969a3.252,3.252,0,1,0,0-6.5Z" transform="translate(-150 -422)" fill="#15c8ff"/>
        </g>
      </g>
      <g id="Group_20311" data-name="Group 20311" transform="translate(37.604 39.023)">
        <g id="Group_20310" data-name="Group 20310">
          <path id="Path_16018" data-name="Path 16018" d="M212.221,180H153.252a3.252,3.252,0,1,0,0,6.5h58.969a3.252,3.252,0,1,0,0-6.5Z" transform="translate(-150 -180)" fill="#15c8ff"/>
        </g>
      </g>
      <g id="Group_20313" data-name="Group 20313" transform="translate(13.008 39.023)">
        <g id="Group_20312" data-name="Group 20312">
          <path id="Path_16019" data-name="Path 16019" d="M63.252,180A3.252,3.252,0,0,0,60,183.252c0,1.8,1.456,3.686,3.252,3.686s3.252-1.89,3.252-3.686A3.252,3.252,0,0,0,63.252,180Z" transform="translate(-60 -180)" fill="#15c8ff"/>
        </g>
      </g>
      <g id="Group_20315" data-name="Group 20315" transform="translate(37.604 65.473)">
        <g id="Group_20314" data-name="Group 20314">
          <path id="Path_16020" data-name="Path 16020" d="M212.221,302H153.252a3.252,3.252,0,0,0,0,6.5h58.969a3.252,3.252,0,1,0,0-6.5Z" transform="translate(-150 -302)" fill="#15c8ff"/>
        </g>
      </g>
      <g id="Group_20317" data-name="Group 20317" transform="translate(12.609 65.563)">
        <g id="Group_20316" data-name="Group 20316" transform="translate(0 0)">
          <circle id="Ellipse_2948" data-name="Ellipse 2948" cx="3.362" cy="3.362" r="3.362" fill="#15c8ff"/>
        </g>
      </g>
      <g id="Group_20319" data-name="Group 20319" transform="translate(12.609 91.62)">
        <g id="Group_20318" data-name="Group 20318" transform="translate(0 0)">
          <circle id="Ellipse_2949" data-name="Ellipse 2949" cx="3.362" cy="3.362" r="3.362" fill="#15c8ff"/>
        </g>
      </g>
    </g>
  </g>
</svg>
