<svg xmlns="http://www.w3.org/2000/svg" width="113.721" height="113.721" viewBox="0 0 113.721 113.721">
  <g id="list" transform="translate(0.001)">
    <path id="Path_16006" data-name="Path 16006" d="M0,23.322A3.332,3.332,0,0,0,1.842,26.3l11.485,5.742v9.431L1.842,47.217A3.332,3.332,0,0,0,0,50.2V63.524A3.332,3.332,0,0,0,1.842,66.5l11.485,5.742v9.209L1.842,87.2A3.332,3.332,0,0,0,0,90.177V103.5a3.333,3.333,0,0,0,1.8,2.96l13.327,6.885a3.336,3.336,0,0,0,3.059,0l13.327-6.885a3.333,3.333,0,0,0,1.8-2.96V90.177a3.332,3.332,0,0,0-1.842-2.98L19.99,81.455V72.246L31.475,66.5a3.332,3.332,0,0,0,1.842-2.98V50.2a3.332,3.332,0,0,0-1.842-2.98L19.99,41.475V32.044L31.475,26.3a3.332,3.332,0,0,0,1.842-2.98V9.995a3.332,3.332,0,0,0-1.842-2.98L18.148.351a3.333,3.333,0,0,0-2.979,0L1.842,7.015A3.332,3.332,0,0,0,0,9.995Zm26.653,78.153-9.995,5.164-9.995-5.164V92.236l9.995-5,9.995,5Zm0-40.01-9.995,5-9.995-5V52.256l9.995-5,9.995,5ZM6.663,12.054l9.995-5,9.995,5v9.209l-9.995,5-9.995-5Zm0,0" transform="translate(-0.001)" fill="#15c8ff"/>
    <path id="Path_16007" data-name="Path 16007" d="M250.409,30H183.332a3.332,3.332,0,1,0,0,6.663h67.077a3.332,3.332,0,1,0,0-6.663Zm0,0" transform="translate(-140.021 -23.337)" fill="#15c8ff"/>
    <path id="Path_16008" data-name="Path 16008" d="M183.332,96.663H216.87a3.332,3.332,0,0,0,0-6.663H183.332a3.332,3.332,0,1,0,0,6.663Zm0,0" transform="translate(-140.021 -70.01)" fill="#15c8ff"/>
    <path id="Path_16009" data-name="Path 16009" d="M183.332,277.663H216.87a3.332,3.332,0,0,0,0-6.663H183.332a3.332,3.332,0,0,0,0,6.663Zm0,0" transform="translate(-140.021 -210.808)" fill="#15c8ff"/>
    <path id="Path_16010" data-name="Path 16010" d="M216.87,457.663a3.332,3.332,0,0,0,0-6.663H183.332a3.332,3.332,0,0,0,0,6.663Zm0,0" transform="translate(-140.021 -350.828)" fill="#15c8ff"/>
    <path id="Path_16011" data-name="Path 16011" d="M250.409,211H183.332a3.332,3.332,0,1,0,0,6.663h67.077a3.332,3.332,0,1,0,0-6.663Zm0,0" transform="translate(-140.021 -164.135)" fill="#15c8ff"/>
    <path id="Path_16012" data-name="Path 16012" d="M250.409,391H183.332a3.332,3.332,0,0,0,0,6.663h67.077a3.332,3.332,0,0,0,0-6.663Zm0,0" transform="translate(-140.021 -304.155)" fill="#15c8ff"/>
    <path id="Path_16013" data-name="Path 16013" d="M66.636,63.332A3.332,3.332,0,1,1,63.3,60,3.332,3.332,0,0,1,66.636,63.332Zm0,0" transform="translate(-46.653 -46.673)" fill="#15c8ff"/>
    <path id="Path_16014" data-name="Path 16014" d="M66.636,244.332A3.332,3.332,0,1,1,63.3,241,3.332,3.332,0,0,1,66.636,244.332Zm0,0" transform="translate(-46.653 -187.471)" fill="#15c8ff"/>
    <path id="Path_16015" data-name="Path 16015" d="M66.636,424.332A3.332,3.332,0,1,1,63.3,421,3.332,3.332,0,0,1,66.636,424.332Zm0,0" transform="translate(-46.653 -327.491)" fill="#15c8ff"/>
  </g>
</svg>
