<svg xmlns="http://www.w3.org/2000/svg" width="154.5" height="141.525" viewBox="0 0 154.5 141.525">
  <g id="verified-account" transform="translate(0 -21.498)">
    <path id="Path_16589" data-name="Path 16589" d="M113.534,64.031a3.81,3.81,0,0,0,5.388,0l18.593-18.593a2.263,2.263,0,0,0-3.2-3.2L116.229,60.324l-5.909-5.909a2.263,2.263,0,0,0-3.2,3.2Zm35.685,71.834H147.71V72.18a6.858,6.858,0,0,0,2.481-2.4c1.053-1.821.878-3.869.723-5.676a9.3,9.3,0,0,1,.006-2.756,8.964,8.964,0,0,1,1.319-2.269c1.06-1.509,2.261-3.22,2.261-5.4s-1.2-3.886-2.261-5.4a8.947,8.947,0,0,1-1.319-2.269,9.283,9.283,0,0,1-.007-2.756c.155-1.807.331-3.856-.723-5.676-1.067-1.844-2.944-2.719-4.6-3.489a9.129,9.129,0,0,1-2.34-1.349,9.125,9.125,0,0,1-1.349-2.34c-.771-1.656-1.645-3.533-3.489-4.6-1.82-1.053-3.868-.878-5.677-.723a9.293,9.293,0,0,1-2.756-.006,8.964,8.964,0,0,1-2.269-1.319c-1.509-1.06-3.22-2.261-5.4-2.261s-3.886,1.2-5.4,2.261a8.947,8.947,0,0,1-2.269,1.319,9.273,9.273,0,0,1-2.756.007c-1.807-.155-3.855-.331-5.676.723-1.844,1.067-2.718,2.944-3.489,4.6a9.135,9.135,0,0,1-1.349,2.34,13.808,13.808,0,0,1-3.14,1.727H18.105A11.329,11.329,0,0,0,6.79,45.789v90.075H5.281A5.288,5.288,0,0,0,0,141.146v10.562a11.329,11.329,0,0,0,11.316,11.316H143.184A11.329,11.329,0,0,0,154.5,151.707V141.146A5.287,5.287,0,0,0,149.219,135.865ZM96.1,50.887a11.893,11.893,0,0,0,1.987-3.7,12.853,12.853,0,0,0,.144-4.312,6.463,6.463,0,0,1,.131-3.023c.4-.7,1.728-1.25,2.592-1.653a12.3,12.3,0,0,0,3.63-2.251,12.3,12.3,0,0,0,2.251-3.63,6.472,6.472,0,0,1,1.653-2.592,6.468,6.468,0,0,1,3.023-.131,12.521,12.521,0,0,0,4.312-.144,11.9,11.9,0,0,0,3.7-1.987,6.456,6.456,0,0,1,2.795-1.439,6.456,6.456,0,0,1,2.795,1.439,11.9,11.9,0,0,0,3.7,1.987,12.521,12.521,0,0,0,4.312.144,6.456,6.456,0,0,1,3.023.131,6.473,6.473,0,0,1,1.653,2.592,12.3,12.3,0,0,0,2.251,3.63,12.306,12.306,0,0,0,3.63,2.251,6.474,6.474,0,0,1,2.593,1.653,6.471,6.471,0,0,1,.131,3.023,12.508,12.508,0,0,0,.144,4.312,11.9,11.9,0,0,0,1.987,3.7,6.456,6.456,0,0,1,1.439,2.795,6.456,6.456,0,0,1-1.439,2.795,11.9,11.9,0,0,0-1.987,3.7,12.527,12.527,0,0,0-.144,4.311,6.464,6.464,0,0,1-.131,3.023,6.475,6.475,0,0,1-2.592,1.653,12.306,12.306,0,0,0-3.63,2.251,12.306,12.306,0,0,0-2.251,3.63c-1.245,2.674-1.728,2.976-4.675,2.723a12.507,12.507,0,0,0-4.312.144,11.907,11.907,0,0,0-3.7,1.987,6.455,6.455,0,0,1-2.794,1.439,6.455,6.455,0,0,1-2.794-1.439,11.893,11.893,0,0,0-3.7-1.987,8.6,8.6,0,0,0-2.228-.261c-.719,0-1.423.06-2.084.117a6.462,6.462,0,0,1-3.022-.131,6.474,6.474,0,0,1-1.653-2.593,11.246,11.246,0,0,0-5.882-5.881,6.472,6.472,0,0,1-2.592-1.653,6.465,6.465,0,0,1-.131-3.022c.051-.594.1-1.223.113-1.865,0-.03,0-.061,0-.091a8.77,8.77,0,0,0-.258-2.356,11.907,11.907,0,0,0-1.987-3.7,6.455,6.455,0,0,1-1.439-2.794A6.451,6.451,0,0,1,96.1,50.887Zm47.084,23.8v61.174h-4.526V81.4a9.8,9.8,0,0,0,3.245-4.447A9.889,9.889,0,0,1,143.184,74.691ZM99.043,73.267a17.24,17.24,0,0,1,1.7.869A24.733,24.733,0,0,1,96.2,97.889a20.185,20.185,0,0,0-9.026-11.083,11.528,11.528,0,0,0,1.673-6V77.25a11.6,11.6,0,0,0-23.2,0v3.561a11.528,11.528,0,0,0,1.673,6A20.184,20.184,0,0,0,58.3,97.889,24.756,24.756,0,0,1,93.768,63.52c-.154,2.051-.494,4.238.675,6.258,1.068,1.844,2.944,2.718,4.6,3.489ZM70.5,90.237a11.56,11.56,0,0,0,13.492,0,15.559,15.559,0,0,1,8.46,11.259,24.683,24.683,0,0,1-30.411,0A15.559,15.559,0,0,1,70.5,90.237Zm-.326-9.426V77.25a7.072,7.072,0,0,1,14.145,0v3.561a7.072,7.072,0,0,1-14.145,0ZM11.316,45.79A6.8,6.8,0,0,1,18.105,39H93.861a13.093,13.093,0,0,0-.118,4.526H78.759a2.263,2.263,0,0,0,0,4.526h13.8c-1.117,1.6-2.424,3.344-2.424,5.628a6.243,6.243,0,0,0,.4,2.17,29.3,29.3,0,1,0,16,25.872,9.857,9.857,0,0,0,5.361.554,9.286,9.286,0,0,1,2.756.007,8.957,8.957,0,0,1,2.269,1.319c1.509,1.06,3.22,2.261,5.4,2.261s3.886-1.2,5.4-2.261a8.96,8.96,0,0,1,2.269-1.319,18.225,18.225,0,0,1,4.15.094v53.487H93.543a5.287,5.287,0,0,0-5.281,5.281v4.1a.755.755,0,0,1-.754.754H66.993a.755.755,0,0,1-.754-.754v-4.1a5.287,5.287,0,0,0-5.281-5.281H20.369V48.053H68.2a2.263,2.263,0,0,0,0-4.526H20.218A4.381,4.381,0,0,0,15.842,47.9v87.962H11.316ZM149.974,151.707a6.8,6.8,0,0,1-6.79,6.79H11.316a6.8,6.8,0,0,1-6.79-6.79V141.146a.755.755,0,0,1,.754-.754H60.958a.755.755,0,0,1,.754.754v4.1a5.287,5.287,0,0,0,5.281,5.281H87.507a5.287,5.287,0,0,0,5.281-5.281v-4.1a.755.755,0,0,1,.754-.754h55.677a.755.755,0,0,1,.754.754Zm-104.3-30.176v4.526a5.287,5.287,0,0,0,5.281,5.281H63.736a2.263,2.263,0,1,0,0-4.526H50.958a.755.755,0,0,1-.754-.754v-4.526a.755.755,0,0,1,.754-.754h52.584a.755.755,0,0,1,.754.754v4.526a.755.755,0,0,1-.754.754H74.3a2.263,2.263,0,1,0,0,4.526h29.245a5.287,5.287,0,0,0,5.281-5.281v-4.526a5.287,5.287,0,0,0-5.281-5.281H50.958a5.287,5.287,0,0,0-5.281,5.281Z" fill="#15c8ff"/>
  </g>
</svg>
