<svg xmlns="http://www.w3.org/2000/svg" width="162.453" height="50.838" viewBox="0 0 162.453 50.838">
  <g id="visa_2_" data-name="visa (2)" transform="translate(0 -100.23)">
    <g id="Group_20366" data-name="Group 20366" transform="translate(15.179 100.23)">
      <g id="Group_20365" data-name="Group 20365">
        <path id="Path_16034" data-name="Path 16034" d="M78.486,100.23l-8.153,50.736H83.364l8.148-50.736ZM117.794,120.9c-4.554-2.249-7.346-3.767-7.346-6.067.056-2.091,2.361-4.234,7.508-4.234a22.678,22.678,0,0,1,9.707,1.879l1.183.528,1.772-10.615a32.892,32.892,0,0,0-11.7-2.091c-12.869,0-21.931,6.691-21.987,16.261-.106,7.062,6.488,10.981,11.423,13.331,5.041,2.411,6.757,3.975,6.757,6.118-.056,3.29-4.076,4.807-7.828,4.807A26.5,26.5,0,0,1,95.056,138.2l-1.716-.782-1.822,11.032c3.061,1.361,8.691,2.558,14.535,2.62,13.677,0,22.576-6.59,22.688-16.789C128.785,128.685,125.308,124.4,117.794,120.9Zm46.233-20.51H153.945c-3.107,0-5.468.894-6.813,4.082l-19.358,46.5h13.677l3.767-10.067h15.3l1.954,10.108h12.062ZM149.01,130.74c.264.026,5.249-16.433,5.249-16.433l3.97,16.433ZM59.443,100.23,46.675,134.7l-1.391-6.8c-2.361-7.844-9.762-16.367-18.022-20.6l11.692,43.614H52.742l20.49-50.68H59.443Z" transform="translate(-27.262 -100.23)" fill="#2394bc"/>
      </g>
    </g>
    <path id="Path_16035" data-name="Path 16035" d="M28.907,106.781a8.515,8.515,0,0,0-8.478-6.533H.208L0,101.187c15.773,3.889,29.013,15.854,33.308,27.109Z" transform="translate(0 -0.008)" fill="#efc75e"/>
  </g>
</svg>
