<svg xmlns="http://www.w3.org/2000/svg" width="131.324" height="131.324" viewBox="0 0 131.324 131.324">
  <g id="layer1" transform="translate(-0.529 -280.596)">
    <path id="path2270" d="M24.605,280.6a6.6,6.6,0,0,0-6.566,6.566v52.53a2.189,2.189,0,1,0,4.377,0v-52.53a2.137,2.137,0,0,1,2.189-2.189h67.86v10.944a6.59,6.59,0,0,0,6.558,6.562h10.944v37.213a2.189,2.189,0,1,0,4.377,0v-39.4a2.189,2.189,0,0,0-.641-1.547l-17.51-17.51a2.19,2.19,0,0,0-1.548-.641Zm72.22,7.464L106.863,298.1h-7.84a2.138,2.138,0,0,1-2.2-2.18ZM39.927,298.1a2.1,2.1,0,0,0-2.189,2.189v4.719a8.736,8.736,0,0,0,2.2,17.2,4.38,4.38,0,1,1-4.377,4.378,2.191,2.191,0,1,0-4.382,0,8.782,8.782,0,0,0,6.562,8.443V339.7a2.189,2.189,0,1,0,4.377,0v-4.672a8.739,8.739,0,0,0-2.18-17.2,4.38,4.38,0,1,1,4.36-4.378,2.189,2.189,0,1,0,4.377,0A8.768,8.768,0,0,0,42.115,305v-4.715A2.1,2.1,0,0,0,39.927,298.1Zm13.128,0a2.191,2.191,0,1,0,0,4.382H81.508a2.191,2.191,0,1,0,0-4.382Zm6.579,13.137a2.189,2.189,0,1,0,0,4.378H81.508a2.189,2.189,0,1,0,0-4.378Zm30.634,0a2.189,2.189,0,1,0,0,4.378h8.755a2.189,2.189,0,1,0,0-4.378ZM59.634,328.748H99.023a2.189,2.189,0,1,0,0-4.378H59.52A2.19,2.19,0,0,0,59.634,328.748Zm-48.259-3.189a2.173,2.173,0,0,0-1.329.547L1.29,333.655a2.19,2.19,0,0,0-.761,1.659v70.04A6.6,6.6,0,0,0,7.1,411.92H125.287a6.6,6.6,0,0,0,6.566-6.566v-70.04a2.19,2.19,0,0,0-.761-1.659l-8.755-7.549a2.19,2.19,0,1,0-2.86,3.317l6.836,5.895-60.122,51.82L6.069,335.314l6.836-5.891a2.189,2.189,0,0,0-1.53-3.865Zm41.68,16.326h8.759a2.189,2.189,0,1,0,0-4.377H52.95A2.189,2.189,0,0,0,53.055,341.885Zm17.518,0H99.023a2.189,2.189,0,1,0,0-4.377H70.46a2.189,2.189,0,0,0,.113,4.377Zm-65.667-1.8L64.755,391.7a2.188,2.188,0,0,0,2.86,0l59.861-51.6v64.859l-33.37-28.757a2.189,2.189,0,1,0-2.86,3.313l32.532,28.035H8.613l31.053-26.778a2.189,2.189,0,1,0-2.86-3.313l-31.9,27.509ZM41.9,350.64l-.009,0a2.192,2.192,0,0,0,.227,4.378H90.268a2.189,2.189,0,0,0,0-4.378H42.12c-.073,0-.145-.007-.218,0Z" transform="translate(0 0)" fill="#15c8ff"/>
  </g>
</svg>
